<svg id="Слой_1" data-name="Слой 1" xmlns="http://www.w3.org/2000/svg" xmlns:xlink="http://www.w3.org/1999/xlink" viewBox="0 0 96.6 96.66"><defs><style>.cls-1{fill:#3c3c3b;}.cls-1,.cls-2{opacity:0.95;}.cls-2{fill:url(#linear-gradient);}.cls-3{fill:#ededed;}</style><linearGradient id="linear-gradient" x1="6.58" y1="48.33" x2="96.6" y2="48.33" gradientUnits="userSpaceOnUse"><stop offset="0" stop-color="#e6332a"/><stop offset="1" stop-color="#951b81"/></linearGradient></defs><g id="_67" data-name="67"><path class="cls-1" d="M48.3,96.66A48.35,48.35,0,0,1,3.8,29.52a48.32,48.32,0,0,1,89,0A48.31,48.31,0,0,1,48.3,96.66Zm0-93.4A45.05,45.05,0,0,0,16.45,80.2,45.07,45.07,0,1,0,48.3,3.26Z"/><path class="cls-2" d="M48.3,96.66A48.23,48.23,0,0,1,6.81,73.08,1.63,1.63,0,0,1,9.6,71.41a45,45,0,0,0,38.7,22A45.06,45.06,0,0,0,80.15,16.46,44.84,44.84,0,0,0,48.3,3.26,1.63,1.63,0,1,1,48.3,0,48.33,48.33,0,0,1,82.46,82.51,48.22,48.22,0,0,1,48.3,96.66Z"/><path class="cls-3" d="M34.82,44.64a4,4,0,0,1,3.39,1.88,9.26,9.26,0,0,1,1.5,5.63,9.31,9.31,0,0,1-1.43,5.49,4.62,4.62,0,0,1-4,2q-6,0-6-10.8Q28.31,36,35.47,36a8.19,8.19,0,0,1,3.39.77l-.19,3.43a7.21,7.21,0,0,0-3.05-1q-4,0-4.28,7.73l.08.05A3.62,3.62,0,0,1,34.82,44.64ZM34,56.54c1.6,0,2.4-1.45,2.4-4.33s-.8-4.35-2.4-4.35-2.35,1.45-2.35,4.35S32.48,56.54,34,56.54Z"/><path class="cls-3" d="M46,59.35l6-19.69H44.73V36.29H55.21V40l-5.56,19.4Z"/><path class="cls-3" d="M60.5,50.72a2,2,0,0,1-1.07-.28,2.36,2.36,0,0,1-.79-.81,4.18,4.18,0,0,1-.5-1.32,9.71,9.71,0,0,1,0-3.51,4.06,4.06,0,0,1,.5-1.3,2.31,2.31,0,0,1,.79-.82,2,2,0,0,1,1.07-.28,2,2,0,0,1,1.86,1.1A6.06,6.06,0,0,1,63,46.56a6.13,6.13,0,0,1-.64,3.07A2,2,0,0,1,60.5,50.72Zm0-1.8a.59.59,0,0,0,.49-.24,1.57,1.57,0,0,0,.28-.58,4.23,4.23,0,0,0,.14-.77c0-.27,0-.53,0-.77s0-.51,0-.78a4.12,4.12,0,0,0-.14-.76,1.57,1.57,0,0,0-.28-.58.58.58,0,0,0-.49-.23.56.56,0,0,0-.48.23,1.76,1.76,0,0,0-.3.58,3.42,3.42,0,0,0-.14.76,7.53,7.53,0,0,0,0,1.55,3.52,3.52,0,0,0,.14.77,1.76,1.76,0,0,0,.3.58A.57.57,0,0,0,60.5,48.92Zm6.08-6.75h1.23L61.31,59H60.07Zm.77,16.55a2,2,0,0,1-1.07-.28,2.4,2.4,0,0,1-.79-.82,4.05,4.05,0,0,1-.49-1.3,9.14,9.14,0,0,1,0-3.51,4,4,0,0,1,.49-1.31,2.4,2.4,0,0,1,.79-.82,2.14,2.14,0,0,1,2.93.82,6.07,6.07,0,0,1,.65,3.07,6,6,0,0,1-.65,3A2,2,0,0,1,67.35,58.72Zm0-1.81a.58.58,0,0,0,.49-.23,1.57,1.57,0,0,0,.28-.58,3.42,3.42,0,0,0,.14-.76c0-.27,0-.53,0-.77s0-.51,0-.78a3.63,3.63,0,0,0-.14-.77,1.57,1.57,0,0,0-.28-.58.58.58,0,0,0-.49-.23.56.56,0,0,0-.48.23,1.75,1.75,0,0,0-.29.58,3.09,3.09,0,0,0-.15.77,7.53,7.53,0,0,0,0,1.55,2.93,2.93,0,0,0,.15.76,1.75,1.75,0,0,0,.29.58A.56.56,0,0,0,67.35,56.91Z"/></g></svg>