<svg id="Слой_1" data-name="Слой 1" xmlns="http://www.w3.org/2000/svg" xmlns:xlink="http://www.w3.org/1999/xlink" viewBox="0 0 93.53 93.53"><defs><style>.cls-1{fill:#3c3c3b;}.cls-1,.cls-2{opacity:0.95;}.cls-2{fill:url(#linear-gradient);}.cls-3{fill:#ededed;}</style><linearGradient id="linear-gradient" y1="46.77" x2="93.53" y2="46.77" gradientUnits="userSpaceOnUse"><stop offset="0" stop-color="#e6332a"/><stop offset="1" stop-color="#951b81"/></linearGradient></defs><g id="_84" data-name="84"><path class="cls-1" d="M46.77,93.53a46.78,46.78,0,0,1-43.09-65A46.8,46.8,0,0,1,65,3.68,46.69,46.69,0,0,1,93.53,46.77,46.71,46.71,0,0,1,46.77,93.53Zm0-90.38A43.6,43.6,0,0,0,15.93,77.61,43.62,43.62,0,0,0,87,63.74,43.65,43.65,0,0,0,63.74,6.58,43.21,43.21,0,0,0,46.77,3.15Z"/><path class="cls-2" d="M46.77,93.53A46.77,46.77,0,0,1,6.42,23.11a1.57,1.57,0,1,1,2.71,1.6A43.65,43.65,0,1,0,46.77,3.15a1.58,1.58,0,1,1,0-3.15A46.74,46.74,0,0,1,79.83,79.83a46.53,46.53,0,0,1-33.06,13.7Z"/><path class="cls-3" d="M38.57,51.39A6.47,6.47,0,0,1,37,56.1a5.48,5.48,0,0,1-4.13,1.63,5,5,0,0,1-4-1.75,6.51,6.51,0,0,1-1.51-4.44c0-2.43.82-4.15,2.45-5.14l.9-.51a5.75,5.75,0,0,1-2.83-5.18,6.22,6.22,0,0,1,1.42-4.36A4.77,4.77,0,0,1,33,34.79a4.93,4.93,0,0,1,3.52,1.35,5.46,5.46,0,0,1,1.56,4.06,6,6,0,0,1-2.9,5.41l.66.46A6.05,6.05,0,0,1,38.57,51.39Zm-5.14-3.68-.68-.51-.59.56a4.79,4.79,0,0,0-1.68,3.72,4.24,4.24,0,0,0,.65,2.44,2.09,2.09,0,0,0,1.82.93c1.64,0,2.46-1.16,2.46-3.5A4.15,4.15,0,0,0,35,49.3,5.63,5.63,0,0,0,33.43,47.71Zm-.46-10a1.9,1.9,0,0,0-1.58.83,3.73,3.73,0,0,0-.62,2.25q0,1.9,2.4,3.68A12.28,12.28,0,0,0,34.43,43a4.6,4.6,0,0,0,.63-2.38C35.06,38.65,34.36,37.69,33,37.69Z"/><path class="cls-3" d="M52.23,57.42h-3V52.79H42.45V49.06l6.19-13.94h3.59V49.77h2v3h-2Zm-3-18.24h0L44.79,49.77h4.45Z"/><path class="cls-3" d="M58.68,49.08a2,2,0,0,1-1-.27,2.33,2.33,0,0,1-.77-.79,4.21,4.21,0,0,1-.48-1.27,9.11,9.11,0,0,1,0-3.4,4,4,0,0,1,.48-1.26,2.33,2.33,0,0,1,.77-.79,2,2,0,0,1,1-.27,2,2,0,0,1,1.79,1.06,5.81,5.81,0,0,1,.63,3,5.86,5.86,0,0,1-.63,3A2,2,0,0,1,58.68,49.08Zm0-1.75a.57.57,0,0,0,.47-.22,1.68,1.68,0,0,0,.27-.57,3.26,3.26,0,0,0,.13-.74q0-.4,0-.75c0-.24,0-.49,0-.76a3.27,3.27,0,0,0-.13-.73,1.72,1.72,0,0,0-.27-.56.57.57,0,0,0-.47-.22.56.56,0,0,0-.47.22,1.74,1.74,0,0,0-.29.56,3.94,3.94,0,0,0-.14.73c0,.27,0,.52,0,.76s0,.48,0,.75a3.89,3.89,0,0,0,.14.74,1.7,1.7,0,0,0,.29.57A.56.56,0,0,0,58.68,47.33Zm5.88-6.52h1.19L59.45,57H58.26Zm.75,16a2,2,0,0,1-1-.27,2.33,2.33,0,0,1-.77-.79A4,4,0,0,1,63,54.49a7.79,7.79,0,0,1-.17-1.69A8,8,0,0,1,63,51.1a3.87,3.87,0,0,1,.47-1.27,2.25,2.25,0,0,1,.77-.79,2,2,0,0,1,1-.27,2,2,0,0,1,1.8,1.06,6,6,0,0,1,.62,3,6,6,0,0,1-.62,3A2,2,0,0,1,65.31,56.82Zm0-1.75a.57.57,0,0,0,.47-.22,1.73,1.73,0,0,0,.28-.56,4.92,4.92,0,0,0,.13-.74c0-.26,0-.52,0-.75s0-.49,0-.75a4.92,4.92,0,0,0-.13-.74,1.69,1.69,0,0,0-.28-.57.61.61,0,0,0-.94,0,1.69,1.69,0,0,0-.28.57,3.24,3.24,0,0,0-.14.74,7.05,7.05,0,0,0,0,1.5,3.24,3.24,0,0,0,.14.74,1.73,1.73,0,0,0,.28.56A.57.57,0,0,0,65.31,55.07Z"/></g></svg>