<svg id="Слой_1" data-name="Слой 1" xmlns="http://www.w3.org/2000/svg" xmlns:xlink="http://www.w3.org/1999/xlink" viewBox="0 0 93.53 93.53"><defs><style>.cls-1{fill:#3c3c3b;}.cls-1,.cls-2{opacity:0.95;}.cls-2{fill:url(#linear-gradient);}.cls-3{fill:#ededed;}</style><linearGradient id="linear-gradient" y1="46.77" x2="93.53" y2="46.77" gradientUnits="userSpaceOnUse"><stop offset="0" stop-color="#e6332a"/><stop offset="1" stop-color="#951b81"/></linearGradient></defs><g id="_90" data-name="90"><path class="cls-1" d="M46.77,93.53a46.78,46.78,0,0,1-43.09-65A46.8,46.8,0,0,1,65,3.68,46.69,46.69,0,0,1,93.53,46.77,46.71,46.71,0,0,1,46.77,93.53Zm0-90.38A43.6,43.6,0,0,0,15.93,77.61,43.62,43.62,0,0,0,87,63.74,43.65,43.65,0,0,0,63.74,6.58,43.21,43.21,0,0,0,46.77,3.15Z"/><path class="cls-2" d="M46.77,93.53A46.74,46.74,0,0,1,0,46.77,46.65,46.65,0,0,1,18.36,9.62a1.57,1.57,0,0,1,1.91,2.5,43.9,43.9,0,0,0-12.46,15A43.65,43.65,0,0,0,29.79,87,43.63,43.63,0,0,0,87,63.74,43.65,43.65,0,0,0,63.74,6.58a43.21,43.21,0,0,0-17-3.43,1.58,1.58,0,1,1,0-3.15A46.74,46.74,0,0,1,79.83,79.83a46.53,46.53,0,0,1-33.06,13.7Z"/><path class="cls-3" d="M31.11,57.73A7.65,7.65,0,0,1,27.79,57L28,53.63a6.7,6.7,0,0,0,3,1q3.86,0,4.15-7.48l-.08,0a3.46,3.46,0,0,1-3.24,2.24,3.93,3.93,0,0,1-3.32-1.82A9.15,9.15,0,0,1,27,42.06a9,9,0,0,1,1.37-5.31,4.45,4.45,0,0,1,3.89-2q5.77,0,5.78,10.4Q38,57.73,31.11,57.73Zm1.34-19.95c-1.54,0-2.32,1.41-2.32,4.24s.78,4.16,2.32,4.16,2.33-1.39,2.33-4.16S34,37.78,32.45,37.78Z"/><path class="cls-3" d="M48.29,57.73q-5.62,0-5.63-11.46t5.63-11.48q5.64,0,5.65,11.48T48.29,57.73Zm0-19.95q-1.4,0-2,2.37a28.45,28.45,0,0,0-.48,6.12,27.92,27.92,0,0,0,.48,6.07q.59,2.37,2,2.37c.94,0,1.61-.79,2-2.37a28.72,28.72,0,0,0,.47-6.07,29,29,0,0,0-.47-6.12C49.9,38.57,49.23,37.78,48.29,37.78Z"/><path class="cls-3" d="M58.94,49.08a2,2,0,0,1-1-.27,2.33,2.33,0,0,1-.77-.79,4.21,4.21,0,0,1-.48-1.27,9.11,9.11,0,0,1,0-3.4,4,4,0,0,1,.48-1.26,2.33,2.33,0,0,1,.77-.79,2.08,2.08,0,0,1,2.84.79,5.93,5.93,0,0,1,.62,3,6,6,0,0,1-.62,3A2,2,0,0,1,58.94,49.08Zm0-1.75a.57.57,0,0,0,.47-.22,1.51,1.51,0,0,0,.27-.57,3.26,3.26,0,0,0,.13-.74q0-.4,0-.75c0-.24,0-.49,0-.76a3.27,3.27,0,0,0-.13-.73,1.54,1.54,0,0,0-.27-.56.57.57,0,0,0-.47-.22.56.56,0,0,0-.47.22,1.74,1.74,0,0,0-.29.56,3.94,3.94,0,0,0-.14.73c0,.27,0,.52,0,.76s0,.48,0,.75a3.89,3.89,0,0,0,.14.74,1.7,1.7,0,0,0,.29.57A.56.56,0,0,0,58.94,47.33Zm5.88-6.52H66L59.72,57h-1.2Zm.75,16a2,2,0,0,1-1-.27,2.31,2.31,0,0,1-.76-.79,4,4,0,0,1-.48-1.27,7.83,7.83,0,0,1-.16-1.69,8,8,0,0,1,.16-1.7,3.87,3.87,0,0,1,.48-1.27,2.22,2.22,0,0,1,.76-.79,2,2,0,0,1,1-.27,2,2,0,0,1,1.8,1.06,5.86,5.86,0,0,1,.62,3,5.85,5.85,0,0,1-.62,3A2,2,0,0,1,65.57,56.82Zm0-1.75a.56.56,0,0,0,.47-.22,1.73,1.73,0,0,0,.28-.56,4.92,4.92,0,0,0,.13-.74c0-.26,0-.52,0-.75s0-.49,0-.75a4.92,4.92,0,0,0-.13-.74,1.69,1.69,0,0,0-.28-.57.56.56,0,0,0-.47-.22.57.57,0,0,0-.47.22,1.69,1.69,0,0,0-.28.57,3.24,3.24,0,0,0-.14.74,7.05,7.05,0,0,0,0,1.5,3.24,3.24,0,0,0,.14.74,1.73,1.73,0,0,0,.28.56A.57.57,0,0,0,65.57,55.07Z"/></g></svg>