<svg xmlns="http://www.w3.org/2000/svg" xmlns:xlink="http://www.w3.org/1999/xlink" viewBox="0 0 294.22 305.58"><defs><style>.cls-1{isolation:isolate;}.cls-2{fill:#d95f5f;}.cls-3{fill:url(#Безымянный_градиент_8);}.cls-4{fill:url(#Безымянный_градиент_45);}.cls-5{fill:url(#Безымянный_градиент_307);}.cls-6{fill:#f2c6d5;}.cls-16,.cls-6,.cls-7{mix-blend-mode:multiply;}.cls-7{fill:#ccb1e0;}.cls-8{fill:url(#Безымянный_градиент_8-2);}.cls-9{fill:url(#Безымянный_градиент_45-2);}.cls-10{fill:url(#Безымянный_градиент_8-3);}.cls-11{fill:url(#Безымянный_градиент_45-3);}.cls-12{fill:#4f92a8;}.cls-13{fill:url(#Безымянный_градиент_45-4);}.cls-14{fill:url(#Безымянный_градиент_45-5);}.cls-15{fill:url(#Безымянный_градиент_38);}.cls-16{fill:#eddad3;}.cls-17{fill:url(#Безымянный_градиент_45-6);}.cls-18{fill:url(#Безымянный_градиент_52);}.cls-19{fill:url(#Безымянный_градиент_41);}.cls-20{fill:url(#Безымянный_градиент_52-2);}.cls-21{fill:url(#Безымянный_градиент_41-2);}.cls-22{fill:url(#Безымянный_градиент_37);}.cls-23{fill:url(#Безымянный_градиент_8-4);}.cls-24{fill:#d13b2d;}.cls-25,.cls-26,.cls-27,.cls-35{mix-blend-mode:screen;}.cls-25{fill:url(#Безымянный_градиент_395);}.cls-26{fill:url(#Безымянный_градиент_395-2);}.cls-27{fill:url(#Безымянный_градиент_395-3);}.cls-28{fill:#fbb03b;}.cls-29{fill:#ffe0aa;}.cls-30{fill:url(#Безымянный_градиент_8-5);}.cls-31{fill:url(#Безымянный_градиент_45-7);}.cls-32{fill:url(#Безымянный_градиент_41-3);}.cls-33{fill:url(#Безымянный_градиент_45-8);}.cls-34{fill:url(#Безымянный_градиент_45-9);}.cls-35{fill:url(#Безымянный_градиент_407);}.cls-36{fill:#f38457;}.cls-37{fill:#f7c772;}.cls-38{fill:url(#Безымянный_градиент_8-6);}.cls-39{fill:#f37777;}.cls-40{fill:url(#Безымянный_градиент_45-10);}.cls-41{fill:url(#Безымянный_градиент_45-11);}.cls-42{fill:url(#Безымянный_градиент_307-2);}.cls-43{fill:url(#Безымянный_градиент_307-3);}.cls-44{fill:url(#Безымянный_градиент_45-12);}.cls-45{fill:url(#Безымянный_градиент_45-13);}.cls-46{fill:#fffefc;}</style><linearGradient id="Безымянный_градиент_8" x1="43" y1="266.56" x2="24.64" y2="221.53" gradientUnits="userSpaceOnUse"><stop offset="0" stop-color="#f37777"/><stop offset="0.06" stop-color="#f5857e"/><stop offset="0.23" stop-color="#f8a68e"/><stop offset="0.41" stop-color="#fbbf9a"/><stop offset="0.59" stop-color="#fdd2a3"/><stop offset="0.79" stop-color="#ffdca8"/><stop offset="1" stop-color="#ffe0aa"/></linearGradient><linearGradient id="Безымянный_градиент_45" x1="36.33" y1="224.13" x2="42.51" y2="244.13" gradientUnits="userSpaceOnUse"><stop offset="0" stop-color="#3c7f91"/><stop offset="1" stop-color="#133a7d"/></linearGradient><linearGradient id="Безымянный_градиент_307" x1="12.44" y1="223.3" x2="24.9" y2="277.09" gradientUnits="userSpaceOnUse"><stop offset="0" stop-color="#fa492c"/><stop offset="1" stop-color="#b1161a"/></linearGradient><linearGradient id="Безымянный_градиент_8-2" x1="171" y1="128.34" x2="106.38" y2="80.11" xlink:href="#Безымянный_градиент_8"/><linearGradient id="Безымянный_градиент_45-2" x1="108.1" y1="111.74" x2="131.87" y2="111.74" xlink:href="#Безымянный_градиент_45"/><linearGradient id="Безымянный_градиент_8-3" x1="269.55" y1="162" x2="176.66" y2="116.13" xlink:href="#Безымянный_градиент_8"/><linearGradient id="Безымянный_градиент_45-3" x1="179.03" y1="139.97" x2="226.44" y2="160.78" xlink:href="#Безымянный_градиент_45"/><linearGradient id="Безымянный_градиент_45-4" x1="188.02" y1="119.61" x2="235.35" y2="140.39" xlink:href="#Безымянный_градиент_45"/><linearGradient id="Безымянный_градиент_45-5" x1="304.65" y1="98.11" x2="274.13" y2="139.26" xlink:href="#Безымянный_градиент_45"/><linearGradient id="Безымянный_градиент_38" x1="354.14" y1="155.02" x2="405.13" y2="144.44" gradientTransform="matrix(-0.76, -0.65, -0.65, 0.76, 601.08, 223.36)" gradientUnits="userSpaceOnUse"><stop offset="0" stop-color="#f97762"/><stop offset="0.06" stop-color="#fa856a"/><stop offset="0.23" stop-color="#fca67b"/><stop offset="0.41" stop-color="#fdbf89"/><stop offset="0.59" stop-color="#fed293"/><stop offset="0.79" stop-color="#ffdc99"/><stop offset="1" stop-color="#ffe09b"/></linearGradient><linearGradient id="Безымянный_градиент_45-6" x1="443.01" y1="118.21" x2="358.33" y2="181.62" gradientTransform="matrix(-0.76, -0.65, -0.65, 0.76, 601.08, 223.36)" xlink:href="#Безымянный_градиент_45"/><linearGradient id="Безымянный_градиент_52" x1="433.08" y1="133.61" x2="362.3" y2="131.87" gradientTransform="matrix(-0.76, -0.65, -0.65, 0.76, 601.08, 223.36)" gradientUnits="userSpaceOnUse"><stop offset="0" stop-color="#d2f7d6"/><stop offset="0.13" stop-color="#ccf3d4"/><stop offset="0.31" stop-color="#bbe8cd"/><stop offset="0.52" stop-color="#a0d5c2"/><stop offset="0.74" stop-color="#79bbb2"/><stop offset="0.98" stop-color="#489a9e"/><stop offset="1" stop-color="#43979c"/></linearGradient><linearGradient id="Безымянный_градиент_41" x1="435.12" y1="133.92" x2="360.44" y2="127.26" gradientTransform="matrix(-0.76, -0.65, -0.65, 0.76, 601.08, 223.36)" gradientUnits="userSpaceOnUse"><stop offset="0" stop-color="#bde8bf"/><stop offset="0.27" stop-color="#95d0b2"/><stop offset="0.54" stop-color="#74bda7"/><stop offset="0.69" stop-color="#67b5a3"/><stop offset="0.75" stop-color="#70baa6"/><stop offset="0.84" stop-color="#87c8ad"/><stop offset="0.96" stop-color="#addeba"/><stop offset="1" stop-color="#bde8bf"/></linearGradient><linearGradient id="Безымянный_градиент_52-2" x1="432.02" y1="172.85" x2="361.31" y2="171.11" xlink:href="#Безымянный_градиент_52"/><linearGradient id="Безымянный_градиент_41-2" x1="404.93" y1="194.74" x2="348.69" y2="160.48" xlink:href="#Безымянный_градиент_41"/><linearGradient id="Безымянный_градиент_37" x1="343.68" y1="143.27" x2="368.59" y2="143.12" gradientTransform="matrix(-0.76, -0.65, -0.65, 0.76, 601.08, 223.36)" gradientUnits="userSpaceOnUse"><stop offset="0" stop-color="#ee5656"/><stop offset="0.08" stop-color="#f1695e"/><stop offset="0.27" stop-color="#f68f6f"/><stop offset="0.46" stop-color="#faad7c"/><stop offset="0.65" stop-color="#fdc385"/><stop offset="0.83" stop-color="#fed08b"/><stop offset="1" stop-color="#ffd48d"/></linearGradient><linearGradient id="Безымянный_градиент_8-4" x1="348.83" y1="143.24" x2="362.66" y2="143.24" gradientTransform="matrix(-0.76, -0.65, -0.65, 0.76, 601.08, 223.36)" xlink:href="#Безымянный_градиент_8"/><linearGradient id="Безымянный_градиент_395" x1="428.34" y1="115.35" x2="385.05" y2="181.35" gradientTransform="matrix(-0.76, -0.65, -0.65, 0.76, 601.08, 223.36)" gradientUnits="userSpaceOnUse"><stop offset="0" stop-color="#3d4a4a"/><stop offset="0.51" stop-color="#1c2222"/><stop offset="1"/></linearGradient><linearGradient id="Безымянный_градиент_395-2" x1="417.09" y1="136.49" x2="416.9" y2="197.51" xlink:href="#Безымянный_градиент_395"/><linearGradient id="Безымянный_градиент_395-3" x1="407.52" y1="136.44" x2="407.33" y2="197.51" xlink:href="#Безымянный_градиент_395"/><linearGradient id="Безымянный_градиент_8-5" x1="92.26" y1="39.86" x2="119.88" y2="2.2" xlink:href="#Безымянный_градиент_8"/><linearGradient id="Безымянный_градиент_45-7" x1="78.87" y1="35.87" x2="115.95" y2="80.48" xlink:href="#Безымянный_градиент_45"/><linearGradient id="Безымянный_градиент_41-3" x1="77.95" y1="53.25" x2="111.34" y2="53.25" gradientTransform="matrix(1, 0, 0, 1, 0, 0)" xlink:href="#Безымянный_градиент_41"/><linearGradient id="Безымянный_градиент_45-8" x1="91.26" y1="25.51" x2="128.35" y2="70.14" xlink:href="#Безымянный_градиент_45"/><linearGradient id="Безымянный_градиент_45-9" x1="96.29" y1="60.77" x2="71.42" y2="59.03" xlink:href="#Безымянный_градиент_45"/><linearGradient id="Безымянный_градиент_407" x1="95.06" y1="19.91" x2="94.19" y2="56.75" gradientUnits="userSpaceOnUse"><stop offset="0" stop-color="#aed4d4"/><stop offset="0.4" stop-color="#637979"/><stop offset="0.81" stop-color="#1c2222"/><stop offset="1"/></linearGradient><linearGradient id="Безымянный_градиент_8-6" x1="117.64" y1="257.46" x2="72.68" y2="197.7" xlink:href="#Безымянный_градиент_8"/><linearGradient id="Безымянный_градиент_45-10" x1="117.36" y1="184.53" x2="98.23" y2="227.43" xlink:href="#Безымянный_градиент_45"/><linearGradient id="Безымянный_градиент_45-11" x1="77.6" y1="159.78" x2="69.77" y2="213.3" xlink:href="#Безымянный_градиент_45"/><linearGradient id="Безымянный_градиент_307-2" x1="29.68" y1="285.74" x2="88.19" y2="285.74" xlink:href="#Безымянный_градиент_307"/><linearGradient id="Безымянный_градиент_307-3" x1="125.27" y1="175.71" x2="185.34" y2="175.71" xlink:href="#Безымянный_градиент_307"/><linearGradient id="Безымянный_градиент_45-12" x1="50.45" y1="248.26" x2="78.97" y2="268.52" xlink:href="#Безымянный_градиент_45"/><linearGradient id="Безымянный_градиент_45-13" x1="39.34" y1="263.94" x2="67.85" y2="284.19" xlink:href="#Безымянный_градиент_45"/></defs><g class="cls-1"><g id="Слой_1" data-name="Слой 1"><path class="cls-2" d="M249.89,139.78a101.88,101.88,0,0,1,10.48,18.09,163.55,163.55,0,0,1-63.47,57.34c-11.32-.92-23.84-4.43-33.3-10.75,12.78-13.27,24.61-26.39,38.76-38.17S232.69,146.33,249.89,139.78Z"/><path class="cls-3" d="M52,254a46.77,46.77,0,0,1-15.71,20.33,41.54,41.54,0,0,1-3.52,2.36c-.14.08-.26.15-.41.22a5.82,5.82,0,0,1-1.33.46c-2.88.63-6.33-.7-9-2.09a13.89,13.89,0,0,1-7.3-9C11.34,253.9,6,242.21,1.5,230.19a8.58,8.58,0,0,1-.76-4.8,4.44,4.44,0,0,1,1.2-2.22,22.51,22.51,0,0,1,2.34-2.11,36.3,36.3,0,0,1,4.29-2.9c3.37-2,7.53-2.33,11.42-2.31a49.49,49.49,0,0,1,14.74,7.67,98.31,98.31,0,0,1,9.71,8.38l.05-.05c3.22-2.57,6.31-5.4,9.28-8.25a42.78,42.78,0,0,1,1.31,6.8A49.88,49.88,0,0,1,52,254Z"/><path class="cls-4" d="M43.31,244.53a63.05,63.05,0,0,0-8.92-8,22,22,0,0,0,.34-13,98.31,98.31,0,0,1,9.71,8.38l.05-.05A20.74,20.74,0,0,1,43.31,244.53Z"/><path class="cls-5" d="M36.27,274.34a41.54,41.54,0,0,1-3.52,2.36c-.14.08-.26.15-.41.22-3.08,1.51-7.23,0-10.31-1.63a13.89,13.89,0,0,1-7.3-9C11.34,253.9,6,242.21,1.5,230.19a8.58,8.58,0,0,1-.76-4.8,4.44,4.44,0,0,1,1.2-2.22,22.51,22.51,0,0,1,2.34-2.11c3.11-.16,6.81,1.3,9.15,2.67a29.26,29.26,0,0,1,8.53,8c8.55,11.47,11.55,26.07,14,40.18A17.49,17.49,0,0,1,36.27,274.34Z"/><path class="cls-6" d="M31.75,277.17l-.49.14Z"/><path class="cls-6" d="M31,277.37h0l.11,0Z"/><path class="cls-6" d="M55.08,230.4c-4.2,1.46-7.12,5.53-11.37,6.88a45.12,45.12,0,0,1-6.05,1,22.58,22.58,0,0,0-6.52,2.28,47.28,47.28,0,0,0-5.43,3.37A10.41,10.41,0,0,0,23,246c1.88,3.88,3.62,7.82,5.19,11.83,2.4,6.12,4.45,12.57,4.16,19.12.15-.07.27-.14.41-.22a41.54,41.54,0,0,0,3.52-2.36A46.77,46.77,0,0,0,52,254,49.88,49.88,0,0,0,55.08,230.4Z"/><path class="cls-7" d="M32.34,276.92c-3.08,1.51-7.23,0-10.31-1.63a13.89,13.89,0,0,1-7.3-9C11.34,253.9,6,242.21,1.5,230.19a8.58,8.58,0,0,1-.76-4.8c1.44-.89,3.66-.75,5.24-.33a15.9,15.9,0,0,1,7.57,4.9,40.94,40.94,0,0,1,5.09,7.57,167.91,167.91,0,0,1,9.54,20.27C30.58,263.92,32.63,270.37,32.34,276.92Z"/><path class="cls-8" d="M180.66,112.69a7.77,7.77,0,0,1-1.32,4.34,27.82,27.82,0,0,1-14.6,11.36c-5.43,1.58-11.23-.07-16.62-1.78-5.79-1.84-11.58-3.77-17.22-6.07l-1.36-.55c-5.07-2.14-10.78-3.88-14.85-7.76-2.28-2.17-4.48-4.52-6.59-7-2.61-3-5.09-6.06-7.47-9.08a62.48,62.48,0,0,1-6.17-9.27,40.08,40.08,0,0,1-3.59-9.06,4.79,4.79,0,0,1,.84-3.79,12.24,12.24,0,0,1,2.9-2.75,47.13,47.13,0,0,1,17.27-7.94,61.26,61.26,0,0,1,4.92,3.74A66.7,66.7,0,0,1,132,85.22a5.48,5.48,0,0,1,3.6-.1,7.64,7.64,0,0,1,1.45,3.51c0,.7,5.47,1.12,6.36,1.34q3.27.84,6.46,1.93A86.21,86.21,0,0,1,162,97.08a93.55,93.55,0,0,1,11.49,7.12,33.51,33.51,0,0,1,5.13,4A6.88,6.88,0,0,1,180.66,112.69Z"/><path class="cls-9" d="M131.87,114.27c-.21,2.12-.61,4.19-1,6.27l-1.36-.55c-5.07-2.14-10.78-3.88-14.85-7.76-2.28-2.17-4.48-4.52-6.59-7l5.39-2.35C119.26,107.44,125.09,111.52,131.87,114.27Z"/><path class="cls-6" d="M175.84,111.48a3.63,3.63,0,0,1-1.07,2.3q-2.31,2.89-4.83,5.6c-2,2.19-4.21,4.34-7,5.35-3.27,1.2-6.88.68-10.26-.09a81.89,81.89,0,0,1-51-35.88,32.21,32.21,0,0,1-7.18-1.83,40.08,40.08,0,0,1-3.59-9.06,4.79,4.79,0,0,1,.84-3.79,12.24,12.24,0,0,1,2.9-2.75,47.13,47.13,0,0,1,17.27-7.94,61.26,61.26,0,0,1,4.92,3.74.59.59,0,0,1,0,.13c-.51,2.55-1.62,5-1.66,7.59A116.15,116.15,0,0,1,135,92.45a28,28,0,0,1-3.24,8.75l7.34-6.76a21.6,21.6,0,0,1,.6,7.51c1.25-2.14,2.84-3.9,3.3-6.34a87.55,87.55,0,0,1,30.87,13.25C174.78,109.51,175.81,110.34,175.84,111.48Z"/><path class="cls-10" d="M294.22,120.12a47.83,47.83,0,0,1-9,20.46c-17.63,6.67-35.91,13.79-53.09,21.56A138.52,138.52,0,0,1,213,180.87c-3.59,2.88-7.31,5.6-11.17,8.11a53.82,53.82,0,0,0-7.73,5.51c-2.74,2.51-6.44,4.85-10.25,3.26-2.42-12.42-10.83-22.54-20.91-30.13s-21.82-12.56-33.42-17.47q-.15-1.49-.21-2.85a19.14,19.14,0,0,1,1.12-7.48c6.37-2.79,12.57-6.11,19.21-8.16,9.84-7.73,18.43-17.81,29-24.9,1.54-1,3.13-2,4.76-2.88,13.17-7.16,27-13,40.51-19.56,8.88-4.3,17.86-7.89,27.61-9.3A145.88,145.88,0,0,1,294.22,120.12Z"/><path class="cls-11" d="M195.84,134.91c3.13-1,7.1-1.11,9.1,1.51,4.43,5.8-3.94,15.56-8.24,18.85a14.76,14.76,0,0,1-8,3.35c-9.48.52-9.36-9.23-5.19-15A23.91,23.91,0,0,1,195.84,134.91Z"/><path class="cls-12" d="M186,144.86a7,7,0,0,0-.32,1.71,2.9,2.9,0,0,0,2.12,3.1,4,4,0,0,0,1.9-.34,23.66,23.66,0,0,0,9.81-6.49,4.72,4.72,0,0,0,1.37-3.52c-.59-4.07-5.81-2.54-8.21-1.57A12.5,12.5,0,0,0,186,144.86Z"/><path class="cls-13" d="M199.6,149.74a52.92,52.92,0,0,0,11.2,1.48c2.7-5.22,4.67-11.54,7.37-16.76,4.1-2.26,9-3.27,12.58-6.28a24,24,0,0,0,7.92-11.37,7.23,7.23,0,0,1-3.78,0c-4.35,7-11,13.21-18.76,16.08-2.67,4.72-4.53,11-6.25,16.12-2.51.18-6.08-1.38-8.34-2.52C200.82,147.55,200.33,148.69,199.6,149.74Z"/><path class="cls-6" d="M294.22,120.12a47.83,47.83,0,0,1-9,20.46q-6.48,2.46-13.06,5c-13.46,5.21-27.06,10.71-40,16.57A138.52,138.52,0,0,1,213,180.87c-3.59,2.88-7.31,5.6-11.17,8.11a53.82,53.82,0,0,0-7.73,5.51c-2.74,2.51-6.44,4.85-10.25,3.26-2.42-12.42-10.83-22.54-20.91-30.13s-21.82-12.56-33.42-17.47q-.15-1.49-.21-2.85c3.12.34,6.58,2.37,9.08,3.29l17.08,6.28a39.72,39.72,0,0,0-9.18-11.47,91,91,0,0,1,33.86,32.34,33.14,33.14,0,0,0,10.43,3c10.67-6.81,20.26-13.67,29.14-22.71a47.72,47.72,0,0,1,6.54-16.63c.06,1.48.47,3,.52,4.43a40.08,40.08,0,0,0,21.88-9.21c1.4.14,2,.67,3.4.8a27.47,27.47,0,0,0,3.88-6.86,28.46,28.46,0,0,1-6-4.66c2.24.13,4.49-.31,6.74-.18a4.4,4.4,0,0,0,0-2.71,35.81,35.81,0,0,1-8.5-5c-.65.52-1.47.83-2.11,1.34.31,1,.24,2,.54,3.08l-4.33-.2c0,.81.09,1.63.13,2.43-10,2.78-20.16,5.57-30.5,5.07-13.08-.64-33.62-8-33.25-23,1.54-1,3.13-2,4.76-2.88,13.17-7.16,27-13,40.51-19.56,8.88-4.3,17.86-7.89,27.61-9.3a146,146,0,0,1,36.82,36.16Q291.45,115.55,294.22,120.12Z"/><path class="cls-14" d="M294.22,120.12a47.83,47.83,0,0,1-9,20.46q-6.48,2.46-13.06,5c0-2.07.18-4.25,0-6.19,2.26-2.57,4.55-4.91,6.81-7.48a54.38,54.38,0,0,1-2-12.82,70.37,70.37,0,0,1,11.34-7.9Q291.45,115.55,294.22,120.12Z"/><path class="cls-15" d="M175.08,64.09a49,49,0,0,0-5,13.58c-1.91,9.23-.85,18.66,4.83,26.37a39.63,39.63,0,0,0,4.6,5.17,72.91,72.91,0,0,0,13.7,10c.83.5,1.67,1,2.5,1.46A38.52,38.52,0,0,0,222,125c14.94-2.88,26.44-14.68,30.59-28.95a42.33,42.33,0,0,0,1.58-9c.05-.74.07-1.47.07-2.21a40.37,40.37,0,0,0-.51-6.89,42,42,0,0,0-5.12-14.24,44.41,44.41,0,0,0-21.25-18.6c-.81-.33-1.6-.64-2.41-.93-8.71-3.06-19.35-4-27.95-.26l-.1,0-1.34.64-.71.34A46.87,46.87,0,0,0,175.08,64.09Z"/><path class="cls-16" d="M194.13,118.06c-.3.36-.6.72-.89,1.11.83.5,1.67,1,2.5,1.46A38.52,38.52,0,0,0,222,125c14.94-2.88,26.44-14.68,30.59-28.95a69.53,69.53,0,0,0,1.65-11.2c0-.22,0-.43,0-.66a17.75,17.75,0,0,0-.56-6.23,8.22,8.22,0,0,0-1.18-2.3C249.79,72,244,72,240,74.35s-6.62,6.32-9.38,10a103.17,103.17,0,0,1-19.36,19.58C205.41,108.46,199,112.42,194.13,118.06Z"/><path class="cls-17" d="M175.08,64.09a49,49,0,0,0-5,13.58c-1.91,9.23-.85,18.66,4.83,26.37a39.63,39.63,0,0,0,4.6,5.17A40.43,40.43,0,0,0,189.83,116a38.08,38.08,0,0,0,27.82,1.45,35.36,35.36,0,0,0,20.57-18.67A65.82,65.82,0,0,0,207,50.07,39.25,39.25,0,0,0,194.88,45,46.87,46.87,0,0,0,175.08,64.09Z"/><path class="cls-18" d="M235.42,92.05a56.88,56.88,0,0,0-24.65-37.36C204,50,197.27,47.18,189.8,48l-2,1.43-.9-2.41S206.37,42,227,68.16c4.77,6,7.85,15.14,9.3,22.86Z"/><path class="cls-19" d="M227,68.16C206.37,42,186.92,47,186.92,47l8.35-4.53s19.46,1.06,33.09,20.72A70.6,70.6,0,0,1,239,89l-2.68,2C234.85,83.3,231.77,74.19,227,68.16Z"/><path class="cls-20" d="M230.44,107a38.12,38.12,0,0,1-31.79,9.42c-11.5-1.77-21.74-9.36-27.54-19.48-.47.12-.9.51-1.36.63,4.22,5.89,9,12.2,15.22,16,6.74,4.08,15,5.29,22.79,4.22,15.3-1.29,22.93-9.56,22.93-9.56Z"/><path class="cls-21" d="M185,113.48c6.74,4.08,15,5.29,22.79,4.22,15.3-1.29,22.93-9.56,22.93-9.56l-.14-.64,1.12,2.34c-7.1,8.72-19,13-30.12,11.6s-21.36-8-28-17a41.55,41.55,0,0,1-3.79-6.89C174,103.42,178.77,109.73,185,113.48Z"/><path class="cls-22" d="M230.72,101c0,.1-.05.18-.07.27-.83,3.56-.72,11.31,5,10.92a4.49,4.49,0,0,0,.83-.12,9.47,9.47,0,0,0,4-2.26A21.35,21.35,0,0,0,247.32,98c.53-2.81.74-7.38-2.28-9.14a4.1,4.1,0,0,0-.9-.4C237.53,86.28,232,96.05,230.72,101Z"/><path class="cls-23" d="M230.72,101c0,.1-.05.18-.07.27-.83,3.56-.72,11.31,5,10.92a4.49,4.49,0,0,0,.83-.12,6.31,6.31,0,0,1-4.29-4.32,11.38,11.38,0,0,1,.08-6.31A19.16,19.16,0,0,1,241,89.91a6.17,6.17,0,0,1,4.09-1,4.1,4.1,0,0,0-.9-.4C237.53,86.28,232,96.05,230.72,101Z"/><path class="cls-24" d="M237.36,101.45c-.4,1.22-.21,3.65,1.48,3.6s3.17-2.16,3.91-3.44a7,7,0,0,0,.9-4.19,1.76,1.76,0,0,0-.67-1.25c-1.16-.79-3.12.81-3.64,1.77a4.79,4.79,0,0,1,1.45-1.11,1.56,1.56,0,0,1,1.71.11,2.14,2.14,0,0,1,.32,2.08,10.39,10.39,0,0,1-2.07,4.13,2.36,2.36,0,0,1-2,1.09,1.59,1.59,0,0,1-1.16-1.06A3.14,3.14,0,0,1,237.36,101.45Z"/><path class="cls-25" d="M189.43,49.83c-7.34,5.35-17,18.31-18.1,31.92.38,6,4.55,11.32,10,13.78a22,22,0,0,0,17.33-.14,32.22,32.22,0,0,0,13.51-11.31,60.94,60.94,0,0,0,7.71-16C212.73,57.88,201.68,50.07,189.43,49.83Z"/><path class="cls-26" d="M184.86,77.05a6.28,6.28,0,0,1-4,1.07,4.38,4.38,0,0,1-3-2.51,9.57,9.57,0,0,1-.76-4,22.81,22.81,0,0,1,3-11.53,16.88,16.88,0,0,1,6.68-6.75,11.13,11.13,0,0,1,9.29-.59C209.4,58.41,191,73.66,184.86,77.05Z"/><path class="cls-27" d="M172.85,87.23c1.46-8.22,11.22-.75,10,5.13-.62,2.92-2.66,8-6.11,5C174.13,95.14,172.25,90.58,172.85,87.23Z"/><path class="cls-28" d="M70.3,32a14,14,0,0,1-1.12-11.28c1.09-3.53,3.59-6.81,7.1-7.92a12.18,12.18,0,0,1,6.48,0,13.1,13.1,0,0,1,5.39,2.55,10.73,10.73,0,0,1,3.66,8.32,13.11,13.11,0,0,1-3.51,8.51,17.28,17.28,0,0,1-7.51,4.58c-2.48.81-5.28-.06-7.36-1.5A10.76,10.76,0,0,1,70.3,32Z"/><path class="cls-29" d="M73.74,32.86c2.65,2.46,6.54,2.4,9.6.75,3.6-1.93,5.53-5.88,5.79-9.89a10.54,10.54,0,0,0-1.57-6.43,7.78,7.78,0,0,0-5.4-3c-4.62-.67-9,.89-10.94,5.4A12,12,0,0,0,73.74,32.86Z"/><path class="cls-30" d="M100.51,30.11c1.79-6.32,3.93-12.51,5.72-18.83,6.33-1.45,12.92-3.84,19.37-4.52a2.3,2.3,0,0,0,1.77-2A4,4,0,0,0,126.81,2a3.56,3.56,0,0,0-2-1.75,121,121,0,0,0-19.77,9L99.41,28.48C100,29.16,99.9,29.43,100.51,30.11Z"/><path class="cls-31" d="M116.64,49.26a64.57,64.57,0,0,1-2.21,17.5c-.75,2.75-.38,5.8-.86,8.61-.65,3.8-5,6.13-8.78,6.95s-7.67.36-11.48-.1c-5.16-.61-7.71-6.89-9.37-11.82S82,60.18,81.8,55c0-1.6,0-3.34.93-4.6a5.77,5.77,0,0,1,3.39-1.83c5.34-1.21,10.94.55,16.38-.11,2.41-.29,4.76-1,7.18-1.22S115.06,47.41,116.64,49.26Z"/><path class="cls-32" d="M107.84,81.83a93,93,0,0,1-26.4,0L78,25.86c11.53-2.68,22.75-3,33.39,0Z"/><path class="cls-28" d="M80.6,35.15,83.19,80.1h23.43l1.54-44.95C97.27,29.93,86.16,38.67,80.6,35.15Z"/><path class="cls-6" d="M102.18,81.41c-2.31,0-4.49-.28-6.81-.24a62.27,62.27,0,0,0,0-7.23,59.08,59.08,0,0,0-10.11-.8A104,104,0,0,1,83.53,50,3.31,3.31,0,0,1,84,48a3.32,3.32,0,0,1,2-1c3.3-.75,6.58-1.48,9.88-2.24V31a65,65,0,0,1,8,.83c-.09,3.19,0,6.52-.08,9.71,2,3,3.63,6.25,5.46,9.39A25.74,25.74,0,0,1,104,53.8C103.28,62.68,102.23,72.5,102.18,81.41Z"/><path class="cls-33" d="M106.55,37a9.5,9.5,0,0,0-3.43,6.33,59.42,59.42,0,0,0,6.76,10.47c.16,1.29-.08,2.66.09,4a29.56,29.56,0,0,1,2.7-1.77,22,22,0,0,0,2.69-2.33A4.55,4.55,0,0,0,117,51.18c.22-1.34.2-2.78.3-4.14a31,31,0,0,0-6-4.68A15.74,15.74,0,0,1,106.55,37Z"/><path class="cls-34" d="M96.21,67.92a6.67,6.67,0,0,0-2.12,1.45,11.39,11.39,0,0,1,.74,3.1,30.66,30.66,0,0,1-9.31,3.94l-.49.14a20.58,20.58,0,0,1-10.48-.19,34.6,34.6,0,0,1-.81-7.19c.26-.41.8-1.12,1.27-1.25a84.92,84.92,0,0,0-.54-12.66,2.35,2.35,0,0,0,0-.37c-.7-.24-1.33-.46-2-.68l0,0a15,15,0,0,1-2.23-7.51c3.51-1.43,7.83-3.59,11.53-4.45l.23,0a39.45,39.45,0,0,1,7,1.82c1.23-.17,2.83-.34,4.05-.51a16.38,16.38,0,0,1,1.13,5.53,18,18,0,0,1-7.6,2.2c-.74.77-1.08,1.53-1.81,2.3a58.65,58.65,0,0,1,10.12,2.24A36.37,36.37,0,0,1,96.21,67.92Z"/><path class="cls-12" d="M82.17,49.51a3.6,3.6,0,0,1-1.79,1.23l-4.65,1.95-2.33,1c-.29.13-.66.34-1,.5a15,15,0,0,1-2.23-7.51c3.51-1.43,7.83-3.59,11.53-4.45l.23,0a4.68,4.68,0,0,1,.21,1c.17,1.33.31,2.67.4,4A3.6,3.6,0,0,1,82.17,49.51Zm3.37,20a19.44,19.44,0,0,1-9.91-1.29A27.09,27.09,0,0,0,86.28,68c-.21-1.68-.4-3.59-.6-5.28a33.08,33.08,0,0,1-8.89.12c2.77-.35,5.82-.86,8.58-1.21a28.32,28.32,0,0,0-1.64-7.23,33.53,33.53,0,0,0-9.26.9A84.92,84.92,0,0,1,75,67.92c-.47.13-1,.84-1.27,1.25a34.6,34.6,0,0,0,.81,7.19A20.58,20.58,0,0,0,85,76.55l.49-.14a6.22,6.22,0,0,0,.24-2.36A21.23,21.23,0,0,1,85.54,69.55Z"/><path class="cls-35" d="M109.17,38.92c.46-3.61,1-7.58,1.44-11.19a68.93,68.93,0,0,0-31.46-.22c.13,4.75.47,9.5,1,14.22a31,31,0,0,1,5.07-.81c.63-4.59,1.46-8.65,2.1-13.23a43.2,43.2,0,0,1,19.09,1.12c-.11,2.67-.3,5.5-.24,8.17C107.28,37.72,108.06,38.19,109.17,38.92Z"/><path class="cls-36" d="M124.8,5.72a1.3,1.3,0,0,0,.4.41c.52.28,1-.31,1.19-.73A3.37,3.37,0,0,0,126.54,3a3.24,3.24,0,0,0-1.88-2,.59.59,0,0,0-.45,0c-.6.26-.43,1.6-.38,2.1A5.45,5.45,0,0,0,124.8,5.72Z"/><path class="cls-37" d="M72,25.58c-1.6,1.89.55,7.44,3.38,6a3,3,0,0,0,1.25-1.79,14.74,14.74,0,0,0,.73-3.35,1.25,1.25,0,0,0-.2-1,1.34,1.34,0,0,0-.58-.3,8.59,8.59,0,0,0-2.39-.47A2.87,2.87,0,0,0,72,25.58Z"/><path class="cls-37" d="M72.08,21.39c-.32-2.05,1.83-4.33,3.5-5.2a2.3,2.3,0,0,1,1.11-.32c2,.07,3,3.22,2.94,4.79,0,1.82-1.33,3.67-3.31,3.55C74.69,24.12,72.37,23.26,72.08,21.39Z"/><path class="cls-37" d="M81,20.25A3.46,3.46,0,0,0,83.31,23a5.1,5.1,0,0,0,3.48-.85A2.78,2.78,0,0,0,88.09,21a2.53,2.53,0,0,0-.33-2.33,6.65,6.65,0,0,0-2.87-2.88c-1-.46-3-.8-3.72.3S80.75,19.24,81,20.25Z"/><path class="cls-38" d="M185.34,198.18c-2.22,1.16-4.87,1.82-6.78,3.42-.19.16-.37.32-.57.46a320.41,320.41,0,0,1-54,36.23c-11.22,6-22.77,11.47-34.82,16.67,0,.5-.08,1-.13,1.51-.25,3-.54,6.19-.89,9.43-.2,1.81-.42,3.65-.66,5.54-3.66,7.32-26.05,30.27-34,34.08a32.26,32.26,0,0,1-11.3-1.27,30.9,30.9,0,0,1-12.32-7.07c-.14-1.41-.22-2.83-.22-4.26,0-5.74,1.24-11.47,4.69-16.07,1.27-1.7,2.61-3.34,3.93-5a55.36,55.36,0,0,0,6-8.8c.4-.77.77-1.55,1.1-2.36.77-1.9,1.62-3.85,2.38-5.84a39.69,39.69,0,0,0,2.4-8.34c.1-.7.18-1.4.21-2.11.75-13.93.39-31.6,1.16-45.11a80.91,80.91,0,0,1,1.8-14.51c2.81-7.2,8.69-17.39,13.49-19.49l1.9-.56a227.65,227.65,0,0,1,45.38-8.19,53.74,53.74,0,0,1,6.47-5.66c1.4.25,3.09.3,4.48.55l.2-.11c1.21-.66,2.77-1.29,3.93-1.95,12,5,24.17,10,34.61,17.78a67.22,67.22,0,0,1,11.83,11.14A44.92,44.92,0,0,1,185.34,198.18Z"/><path class="cls-39" d="M93.78,222.48A199.8,199.8,0,0,1,89.71,250a142.58,142.58,0,0,1,2.15-29.6C92.58,221.45,93.05,221.47,93.78,222.48Z"/><path class="cls-39" d="M109.43,196.2c3-2.27,6.22-4.44,9.25-6.71a149.88,149.88,0,0,0-21,11C101.8,199.37,106,198.78,109.43,196.2Z"/><path class="cls-40" d="M91.1,225.67a147.34,147.34,0,0,1,25.83-12,82.49,82.49,0,0,0-7-17.94,78.79,78.79,0,0,0-12.27,4.79A90.51,90.51,0,0,0,91.1,225.67Z"/><path class="cls-41" d="M95.12,182.19A54.3,54.3,0,0,0,80,207a40.47,40.47,0,0,1-28.47-7.7,80.91,80.91,0,0,1,1.8-14.51c2.81-7.2,8.69-17.39,13.49-19.49l1.9-.56A35.57,35.57,0,0,1,95.12,182.19Z"/><path class="cls-42" d="M88.19,265.9c-.2,1.81-.42,3.65-.66,5.54-3.66,7.32-26.05,30.27-34,34.08a31.4,31.4,0,0,1-23.62-8.34c-.14-1.41-.22-2.83-.22-4.26A43.49,43.49,0,0,0,51.4,301.1C65.79,291.54,77.66,279.29,88.19,265.9Z"/><path class="cls-6" d="M175.64,178.28c-1.78,1.18-3.32,3.13-5.16,4.62A138.11,138.11,0,0,1,147,197.62c-3-2.13-6.83-3.24-10.41-4.22a41.81,41.81,0,0,1,5.28,7.58,108,108,0,0,1-20.06,12.86,135.87,135.87,0,0,1-22,8.57A36.87,36.87,0,0,1,101.52,204c6.67-4.91,13.62-9.53,20.72-13.82l1.5-.9c-.47.19-.95.37-1.43.58a20.5,20.5,0,0,0-1.08-10.21,59.22,59.22,0,0,0-4.81-9.83c.32,2.19-.34,4.32,0,6.52-.84-1.68-2.68-2.78-3.51-4.44A143.35,143.35,0,0,0,82,186.48c-4,26-6.13,52.8-4.75,79-6.86,12.68-14.48,25.8-26.87,33.14A46.55,46.55,0,0,0,43.5,303a9.75,9.75,0,0,0-1.28,1.29,32.26,32.26,0,0,0,11.3,1.27c8-3.81,30.35-26.76,34-34.08.24-1.89.46-3.73.66-5.54.35-3.24.64-6.38.89-9.43,0-.51.08-1,.13-1.51l4.49-2c3.11-1.36,6.17-2.75,9.21-4.17,1.14-.52,2.28-1,3.4-1.59l3.82-1.84c.9-.43,1.79-.87,2.68-1.32,2.35-1.17,4.68-2.35,7-3.56,1.37-.71,2.74-1.42,4.09-2.16a.67.67,0,0,0,.12-.06,320.33,320.33,0,0,0,54.53-36.69c1.91-1.6,4.56-2.26,6.78-3.42A44.92,44.92,0,0,0,175.64,178.28Z"/><path class="cls-6" d="M138.68,190.52a49.92,49.92,0,0,0-12.72-7A49.62,49.62,0,0,0,120.43,170,99,99,0,0,1,138.68,190.52Z"/><path class="cls-43" d="M185.34,198.18c-2.22,1.16-4.87,1.82-6.78,3.42-.19.16-.37.32-.57.46-3-10.06-6.74-20.08-14.13-27.39-4.24-4.2-9.46-7.24-14.66-10.17q-5.82-3.31-11.72-6.49c-4.2-2.28-8.22-4.19-12.21-6.7,1.21-.66,2.77-1.29,3.93-1.95,12,5,24.17,10,34.61,17.78a67.22,67.22,0,0,1,11.83,11.14A44.92,44.92,0,0,1,185.34,198.18Z"/><path class="cls-6" d="M145.66,175.19l-21.83-10.53A28.69,28.69,0,0,1,145.66,175.19Z"/><path class="cls-44" d="M72.86,254.84A37.16,37.16,0,0,1,69.29,265a31.81,31.81,0,0,1-21.51-10.15,39.69,39.69,0,0,0,2.4-8.34A68.75,68.75,0,0,0,72.86,254.84Z"/><path class="cls-45" d="M64.31,275.06c-1.86,2.93-4.09,4.73-6.77,6.91A25.86,25.86,0,0,0,38.3,271.84a55.36,55.36,0,0,0,6-8.8A28.6,28.6,0,0,1,64.31,275.06Z"/><path class="cls-46" d="M111,25.63a57.17,57.17,0,0,0-7.4-1.53c-.1.32-.21.64-.31,1a58.55,58.55,0,0,1,7.66,1.38Z"/><path class="cls-46" d="M75.27,76.35a39.76,39.76,0,0,1-.61-6.28c.26-.4.79-1.11,1.27-1.24a83.53,83.53,0,0,0-.55-12.65c0-.12,0-.25,0-.37l-1.27-.43a85.26,85.26,0,0,1,.5,12.27A3.18,3.18,0,0,0,73.3,68.9a33.29,33.29,0,0,0,.81,7.19Z"/><path class="cls-46" d="M71.92,53.92l0,0,.86.28A14.42,14.42,0,0,1,71,47.59c2.71-1.1,5.89-2.63,8.91-3.67l-.37-6a9.4,9.4,0,0,1-1.29-.13l.3,4.91c-3,1-6.19,2.56-8.9,3.66A14.93,14.93,0,0,0,71.92,53.92Z"/><path class="cls-46" d="M116.47,66.86l-.69-.54s0,.05,0,.08c.69.53,1.38,1.07,2,1.63C117.37,67.64,116.92,67.24,116.47,66.86Z"/><path class="cls-46" d="M30.7,297.92c-.14-1.41-.22-2.83-.22-4.26,0-5.73,1.24-11.46,4.7-16.06.66-.88,1.34-1.74,2-2.6l-.12.09a41.7,41.7,0,0,1-3.53,2.36c-.14.08-.26.15-.41.22l-.22.09a27.1,27.1,0,0,0-3.8,14.73c0,1.43.08,2.85.21,4.25.43.4.87.79,1.32,1.16l.16.12Z"/><path class="cls-46" d="M190.64,49.15l.38-.26h0Z"/><path class="cls-46" d="M138.15,89.53c0,.7,5.49,1.11,6.37,1.34q3.28.82,6.48,1.93A85.35,85.35,0,0,1,163.09,98a95.21,95.21,0,0,1,11.41,7,43.75,43.75,0,0,1-3.6-6.58h0c.47-.12.89-.52,1.36-.63l0,0a34.92,34.92,0,0,1-1-19.26,49.4,49.4,0,0,1,5-13.57,46.78,46.78,0,0,1,13-14.85l-.23.17-.89-2.42,8.36-4.52a26.92,26.92,0,0,1,4,.64c8.18-2.73,17.77-1.68,25.74,1.12.82.28,1.62.59,2.42.93A44.68,44.68,0,0,1,240.08,53a44.55,44.55,0,0,0-12.75-8.08c-.81-.34-1.6-.65-2.42-.94-8-2.79-17.57-3.84-25.74-1.12a28.9,28.9,0,0,0-4-.64l-8.36,4.53.9,2.41.22-.16a46.54,46.54,0,0,0-13,14.85,48.87,48.87,0,0,0-5,13.57,35.12,35.12,0,0,0,1,19.26s0,0,0,0c-.47.12-.9.51-1.37.63h0a42.86,42.86,0,0,0,3.61,6.58,95.44,95.44,0,0,0-11.41-7,87.61,87.61,0,0,0-12.09-5.18c-2.14-.74-4.29-1.37-6.48-1.93-.62-.16-3.42-.4-5.09-.77A3.08,3.08,0,0,1,138.15,89.53Z"/><path class="cls-46" d="M254.81,77.26l1,.72,1,.76c.63.45,1.26.91,1.87,1.38l1.19.9,1.69,1.33,1.19,1,1.7,1.4.85.72-1.11-1-1.1-.91-1.7-1.41-1.18-1-1.7-1.32-1.18-.91-1.87-1.38-.76-.55C254.77,77.09,254.8,77.17,254.81,77.26Z"/><path class="cls-46" d="M116,46a33.72,33.72,0,0,0-4.67-3.54l0,.21a9.33,9.33,0,0,0,.92.67A43.33,43.33,0,0,1,116,46Z"/><path class="cls-46" d="M45.27,232.68l.06,0c2.2-1.76,4.34-3.63,6.43-5.55.13-9.36.18-18.93.64-27a81.72,81.72,0,0,1,1.81-14.5c2.81-7.19,8.72-17.37,13.53-19.47.64-.2,1.26-.38,1.9-.56a229.31,229.31,0,0,1,45.49-8.19,55.46,55.46,0,0,1,6.48-5.65c1.41.25,3.1.3,4.5.55l.2-.12c1.22-.66,2.77-1.28,3.94-1.94l.23.09c-.07-.74-.12-1.46-.15-2.15a18.9,18.9,0,0,1,1.13-7.47c6.38-2.8,12.6-6.11,19.25-8.15,1.41-1.11,2.79-2.27,4.16-3.45-.7-.16-1.4-.36-2.09-.55-1.13,1-2.27,1.91-3.43,2.82-6.65,2-12.87,5.36-19.25,8.15A19.12,19.12,0,0,0,129,147c0,.69.08,1.42.14,2.16l-.22-.09c-1.17.66-2.73,1.28-3.94,1.94l-.21.11c-1.39-.25-3.08-.29-4.49-.54a52.16,52.16,0,0,0-6.48,5.65,229.51,229.51,0,0,0-45.5,8.18l-1.9.56c-4.81,2.1-10.71,12.28-13.53,19.48a81.58,81.58,0,0,0-1.8,14.5c-.46,8.07-.52,17.63-.65,27-2.08,1.92-4.22,3.8-6.42,5.55C44.41,231.87,44.85,232.27,45.27,232.68Z"/><path class="cls-46" d="M95.43,87.82a42.43,42.43,0,0,1-2-4.2l-.85,0c.46,1,.94,2.06,1.48,3.06a61.24,61.24,0,0,0,6.19,9.26c2.38,3,4.87,6.11,7.48,9.07,2.12,2.43,4.32,4.78,6.6,7,.37.35.77.66,1.16,1-2.21-2.12-4.35-4.4-6.41-6.75-2.61-3-5.09-6-7.48-9.07A61.77,61.77,0,0,1,95.43,87.82Z"/><path class="cls-46" d="M15.5,267c-3.41-12.36-8.72-24-13.27-36a8.67,8.67,0,0,1-.76-4.8A4.48,4.48,0,0,1,2.67,224,23.7,23.7,0,0,1,5,221.85,36.32,36.32,0,0,1,9.32,219c3.38-2,7.55-2.33,11.45-2.31a49.68,49.68,0,0,1,14.78,7.66c1.47,1.09,2.89,2.24,4.29,3.44-1.83-1.62-3.7-3.17-5.65-4.61a49.33,49.33,0,0,0-14.78-7.66c-3.89,0-8.07.34-11.44,2.3a35.6,35.6,0,0,0-4.3,2.9,21.54,21.54,0,0,0-2.35,2.11A4.48,4.48,0,0,0,.11,225a8.66,8.66,0,0,0,.76,4.8c4.56,12,9.87,23.69,13.27,36.06a13.78,13.78,0,0,0,4.94,7.49A14,14,0,0,1,15.5,267Z"/><path class="cls-46" d="M81,81.55l1.3.16L82.08,78c-.43,0-.86,0-1.29,0Z"/><path class="cls-46" d="M133.09,86.12a4.8,4.8,0,0,1,2.85-.25l-.6-1a5.74,5.74,0,0,0-3.07-.07C132.54,85.22,132.83,85.66,133.09,86.12Z"/><path class="cls-46" d="M92.77,24.6c0,.06,0,.12,0,.19a63.24,63.24,0,0,1,8.93.12l.3-1h-.06c.28-.91.57-1.81.85-2.72q1.6-5.51,3.2-11a120.55,120.55,0,0,1,19.81-9,2.3,2.3,0,0,1,.42.17A3.12,3.12,0,0,0,124.44,0a120.51,120.51,0,0,0-19.81,9l-4.29,14.74a64.21,64.21,0,0,0-7.61-.17C92.76,23.91,92.77,24.25,92.77,24.6Z"/><path class="cls-46" d="M72.65,34.75a10.58,10.58,0,0,1-1.44-1.85,13.93,13.93,0,0,1-1.13-11.28c1.1-3.52,3.6-6.8,7.11-7.91a12.26,12.26,0,0,1,6.5,0,13.52,13.52,0,0,1,4.91,2.19,9.55,9.55,0,0,0-.86-.82,13.27,13.27,0,0,0-5.4-2.55,12.26,12.26,0,0,0-6.5,0c-3.52,1.1-6,4.39-7.11,7.91a13.94,13.94,0,0,0,1.12,11.27A10.93,10.93,0,0,0,72.65,34.75Z"/></g></g></svg>