<svg xmlns="http://www.w3.org/2000/svg" xmlns:xlink="http://www.w3.org/1999/xlink" viewBox="0 0 256.23 233.57"><defs><style>.cls-1{isolation:isolate;}.cls-2{fill:#d95f5f;}.cls-3{fill:url(#Безымянный_градиент_8);}.cls-4{fill:url(#Безымянный_градиент_45);}.cls-5{fill:url(#Безымянный_градиент_45-2);}.cls-6{fill:url(#Безымянный_градиент_45-3);}.cls-7{fill:url(#Безымянный_градиент_307);}.cls-8{fill:#f2c6d5;mix-blend-mode:multiply;}.cls-9{fill:url(#Безымянный_градиент_8-2);}.cls-10{fill:url(#Безымянный_градиент_45-4);}.cls-11{fill:url(#Безымянный_градиент_8-3);}.cls-12{fill:url(#Безымянный_градиент_36);}.cls-13{fill:url(#Безымянный_градиент_45-5);}.cls-14{fill:url(#Безымянный_градиент_52);}.cls-15{fill:url(#Безымянный_градиент_41);}.cls-16{fill:url(#Безымянный_градиент_52-2);}.cls-17{fill:url(#Безымянный_градиент_41-2);}.cls-18{fill:url(#Безымянный_градиент_35);}.cls-19{fill:url(#Безымянный_градиент_8-4);}.cls-20{fill:#d13b2d;}.cls-21,.cls-22,.cls-23{mix-blend-mode:screen;}.cls-21{fill:url(#Безымянный_градиент_395);}.cls-22{fill:url(#Безымянный_градиент_395-2);}.cls-23{fill:url(#Безымянный_градиент_395-3);}.cls-24{fill:url(#Безымянный_градиент_45-6);}.cls-25{fill:url(#Безымянный_градиент_45-7);}.cls-26{fill:#4f92a8;}.cls-27{fill:url(#Безымянный_градиент_411);}.cls-28{fill:url(#Безымянный_градиент_307-2);}.cls-29{fill:url(#Безымянный_градиент_45-8);}.cls-30{fill:url(#Безымянный_градиент_45-9);}.cls-31{fill:url(#Безымянный_градиент_307-3);}.cls-32{fill:url(#Безымянный_градиент_45-10);}.cls-33{fill:url(#Безымянный_градиент_45-11);}.cls-34{fill:url(#Безымянный_градиент_45-12);}.cls-35{fill:#fffefc;}</style><linearGradient id="Безымянный_градиент_8" x1="160.32" y1="208.28" x2="219.83" y2="188.19" gradientTransform="matrix(1, -0.05, 0.05, 1, -4.52, -1.04)" gradientUnits="userSpaceOnUse"><stop offset="0" stop-color="#f37777"/><stop offset="0.06" stop-color="#f5857e"/><stop offset="0.23" stop-color="#f8a68e"/><stop offset="0.41" stop-color="#fbbf9a"/><stop offset="0.59" stop-color="#fdd2a3"/><stop offset="0.79" stop-color="#ffdca8"/><stop offset="1" stop-color="#ffe0aa"/></linearGradient><linearGradient id="Безымянный_градиент_45" x1="205.71" y1="153.32" x2="178.27" y2="179.02" gradientTransform="matrix(1, -0.05, 0.05, 1, -4.52, -1.04)" gradientUnits="userSpaceOnUse"><stop offset="0" stop-color="#3c7f91"/><stop offset="1" stop-color="#133a7d"/></linearGradient><linearGradient id="Безымянный_градиент_45-2" x1="217.17" y1="206.56" x2="197.65" y2="232.64" xlink:href="#Безымянный_градиент_45"/><linearGradient id="Безымянный_градиент_45-3" x1="229.62" y1="215.88" x2="210.11" y2="241.96" xlink:href="#Безымянный_градиент_45"/><linearGradient id="Безымянный_градиент_307" x1="254.77" y1="223.83" x2="173.81" y2="252.23" gradientTransform="matrix(1, -0.05, 0.05, 1, -4.52, -1.04)" gradientUnits="userSpaceOnUse"><stop offset="0" stop-color="#fa492c"/><stop offset="1" stop-color="#b1161a"/></linearGradient><linearGradient id="Безымянный_градиент_8-2" x1="101.11" y1="118.55" x2="181.69" y2="88.22" xlink:href="#Безымянный_градиент_8"/><linearGradient id="Безымянный_градиент_45-4" x1="169.89" y1="99.13" x2="147.28" y2="124.34" xlink:href="#Безымянный_градиент_45"/><linearGradient id="Безымянный_градиент_8-3" x1="17.91" y1="113.42" x2="99.64" y2="76.9" xlink:href="#Безымянный_градиент_8"/><linearGradient id="Безымянный_градиент_36" x1="62.8" y1="54.21" x2="113.82" y2="43.63" gradientTransform="matrix(1, -0.05, 0.05, 1, -4.52, -1.04)" gradientUnits="userSpaceOnUse"><stop offset="0" stop-color="#f97762"/><stop offset="0.06" stop-color="#fa856a"/><stop offset="0.23" stop-color="#fca67b"/><stop offset="0.41" stop-color="#fdbf89"/><stop offset="0.59" stop-color="#fed293"/><stop offset="0.79" stop-color="#ffdc99"/><stop offset="1" stop-color="#ffe09b"/></linearGradient><linearGradient id="Безымянный_градиент_45-5" x1="151.68" y1="17.43" x2="67.04" y2="80.81" xlink:href="#Безымянный_градиент_45"/><linearGradient id="Безымянный_градиент_52" x1="141.8" y1="32.78" x2="70.93" y2="31.04" gradientTransform="matrix(1, -0.05, 0.05, 1, -4.52, -1.04)" gradientUnits="userSpaceOnUse"><stop offset="0" stop-color="#d2f7d6"/><stop offset="0.13" stop-color="#ccf3d4"/><stop offset="0.31" stop-color="#bbe8cd"/><stop offset="0.52" stop-color="#a0d5c2"/><stop offset="0.74" stop-color="#79bbb2"/><stop offset="0.98" stop-color="#489a9e"/><stop offset="1" stop-color="#43979c"/></linearGradient><linearGradient id="Безымянный_градиент_41" x1="143.84" y1="33.09" x2="69.07" y2="26.43" gradientTransform="matrix(1, -0.05, 0.05, 1, -4.52, -1.04)" gradientUnits="userSpaceOnUse"><stop offset="0" stop-color="#bde8bf"/><stop offset="0.27" stop-color="#95d0b2"/><stop offset="0.54" stop-color="#74bda7"/><stop offset="0.69" stop-color="#67b5a3"/><stop offset="0.75" stop-color="#70baa6"/><stop offset="0.84" stop-color="#87c8ad"/><stop offset="0.96" stop-color="#addeba"/><stop offset="1" stop-color="#bde8bf"/></linearGradient><linearGradient id="Безымянный_градиент_52-2" x1="140.84" y1="72.03" x2="69.97" y2="70.29" xlink:href="#Безымянный_градиент_52"/><linearGradient id="Безымянный_градиент_41-2" x1="113.71" y1="93.96" x2="57.34" y2="59.62" xlink:href="#Безымянный_градиент_41"/><linearGradient id="Безымянный_градиент_35" x1="52.31" y1="42.4" x2="77.23" y2="42.25" gradientTransform="matrix(1, -0.05, 0.05, 1, -4.52, -1.04)" gradientUnits="userSpaceOnUse"><stop offset="0" stop-color="#ee5656"/><stop offset="0.08" stop-color="#f1695e"/><stop offset="0.27" stop-color="#f68f6f"/><stop offset="0.46" stop-color="#faad7c"/><stop offset="0.65" stop-color="#fdc385"/><stop offset="0.83" stop-color="#fed08b"/><stop offset="1" stop-color="#ffd48d"/></linearGradient><linearGradient id="Безымянный_градиент_8-4" x1="57.47" y1="42.37" x2="71.29" y2="42.37" xlink:href="#Безымянный_градиент_8"/><linearGradient id="Безымянный_градиент_395" x1="137.03" y1="14.59" x2="93.77" y2="80.54" gradientTransform="matrix(1, -0.05, 0.05, 1, -4.52, -1.04)" gradientUnits="userSpaceOnUse"><stop offset="0" stop-color="#3d4a4a"/><stop offset="0.51" stop-color="#1c2222"/><stop offset="1"/></linearGradient><linearGradient id="Безымянный_градиент_395-2" x1="125.81" y1="35.71" x2="125.61" y2="96.77" xlink:href="#Безымянный_градиент_395"/><linearGradient id="Безымянный_градиент_395-3" x1="116.27" y1="35.68" x2="116.08" y2="96.74" xlink:href="#Безымянный_градиент_395"/><linearGradient id="Безымянный_градиент_45-6" x1="7.04" y1="29.5" x2="12.54" y2="87.47" xlink:href="#Безымянный_градиент_45"/><linearGradient id="Безымянный_градиент_45-7" x1="103.36" y1="92.63" x2="41.91" y2="99.78" xlink:href="#Безымянный_градиент_45"/><linearGradient id="Безымянный_градиент_411" x1="103.96" y1="218.07" x2="177" y2="98.08" gradientTransform="matrix(1, -0.05, 0.05, 1, -4.52, -1.04)" gradientUnits="userSpaceOnUse"><stop offset="0" stop-color="#f37777"/><stop offset="0.17" stop-color="#f69385"/><stop offset="0.4" stop-color="#fab495"/><stop offset="0.62" stop-color="#fdcca1"/><stop offset="0.83" stop-color="#fedba8"/><stop offset="1" stop-color="#ffe0aa"/></linearGradient><linearGradient id="Безымянный_градиент_307-2" x1="130.38" y1="131.8" x2="55.6" y2="172.57" xlink:href="#Безымянный_градиент_307"/><linearGradient id="Безымянный_градиент_45-8" x1="177.2" y1="124.98" x2="206.48" y2="151.64" xlink:href="#Безымянный_градиент_45"/><linearGradient id="Безымянный_градиент_45-9" x1="186.01" y1="115.3" x2="215.29" y2="141.97" xlink:href="#Безымянный_градиент_45"/><linearGradient id="Безымянный_градиент_307-3" x1="229.82" y1="121.68" x2="195.33" y2="175.59" xlink:href="#Безымянный_градиент_307"/><linearGradient id="Безымянный_градиент_45-10" x1="151.43" y1="111.4" x2="132.3" y2="150.96" xlink:href="#Безымянный_градиент_45"/><linearGradient id="Безымянный_градиент_45-11" x1="174.66" y1="62.56" x2="202.38" y2="62.56" xlink:href="#Безымянный_градиент_45"/><linearGradient id="Безымянный_градиент_45-12" x1="183.24" y1="66.02" x2="212.33" y2="66.02" xlink:href="#Безымянный_градиент_45"/></defs><g class="cls-1"><g id="Слой_1" data-name="Слой 1"><path class="cls-2" d="M79.89,163.43c-7.9,2.46-19.43,8.84-27.7,8.44C33.81,148.66,21.12,115.15,14.9,86.2,22,81.65,33.22,78,41.35,75.79,52,105.47,64.75,135.79,79.89,163.43Z"/><path class="cls-3" d="M255,218.6a46.4,46.4,0,0,1-17.8,9.23,85,85,0,0,1-10.43,2.26c-10.18,1.58-19.6,1.64-29.74,3.48-.72-2-1.44-4-2.15-6-5.72-15.75-11.65-31.6-18.12-47-1.34.19-2.18.36-3.53.56-.47-1.39-.25-2.9-.71-4.3q-20.27,3.3-40.79,4.76c6.4-13.14,16.58-26.17,27.31-36.45.79-.76,1.59-1.5,2.38-2.23a157.83,157.83,0,0,1,20.23-4.45c4.78-.77,9.53-1.31,13.95-1.62,6.57,4.34,13.73,11.64,15,15.82.58,5.45,1.2,10.86,1.81,16.27,1.07,9.43,2.18,18.83,3.2,28.33a13.37,13.37,0,0,1,1.59.74,26.62,26.62,0,0,1,6.24,4.45,7.81,7.81,0,0,1,.59.55c1.28.27,2.59.51,3.91.71a58.85,58.85,0,0,0,7.74.66,49,49,0,0,0,10-.78,17.23,17.23,0,0,1,7.77,8.19A16.08,16.08,0,0,1,255,218.6Z"/><path class="cls-4" d="M212.37,168.93c-3.87.2-7.59.32-11.58.59a136.73,136.73,0,0,0-7.61-14.16c-3.93-1.52-7.45-3.42-11.37-4.93a1.26,1.26,0,0,0-.07.16,28.36,28.36,0,0,1-.09-12.13c4.78-.77,9.53-1.31,13.95-1.62,6.57,4.34,13.73,11.64,15,15.82C211.14,158.11,211.76,163.52,212.37,168.93Z"/><path class="cls-5" d="M223.4,202.45a25.2,25.2,0,0,1-8.58,10.09c-2.32-2-4.13-4.06-6.45-6a94.17,94.17,0,0,0,8.79-8.51A26.62,26.62,0,0,1,223.4,202.45Z"/><path class="cls-6" d="M235.64,204.37a107.42,107.42,0,0,0-1.34,11.82,60.71,60.71,0,0,1-8.09.12,30.17,30.17,0,0,1,1.69-12.6A58.85,58.85,0,0,0,235.64,204.37Z"/><path class="cls-7" d="M255,218.6a46.4,46.4,0,0,1-17.8,9.23,85,85,0,0,1-10.43,2.26c-10.18,1.58-19.6,1.64-29.74,3.48-.72-2-1.44-4-2.15-6a57.44,57.44,0,0,1,19.36-4.65q5.83-.51,11.71-.6c2,0,4,0,6,0,.57,0,1.08.06,1.57.07a7.38,7.38,0,0,0,2.93-.33,45.32,45.32,0,0,0,17-10.3A16.08,16.08,0,0,1,255,218.6Z"/><path class="cls-8" d="M237.2,227.83a85,85,0,0,1-10.43,2.26c-10.18,1.58-19.6,1.64-29.74,3.48-.72-2-1.44-4-2.15-6-5.72-15.75-11.65-31.6-18.12-47-1.34.19-2.18.36-3.53.56-.47-1.39-.25-2.9-.71-4.3q-20.27,3.3-40.79,4.76c6.4-13.14,16.58-26.17,27.31-36.45a94,94,0,0,1,23.57,1,262,262,0,0,1,23.26,57.62,9.26,9.26,0,0,0,5.21,5.84,77.3,77.3,0,0,0,7.77,2.66,33.61,33.61,0,0,1,14.65,10.17A32.84,32.84,0,0,1,237.2,227.83Z"/><path class="cls-9" d="M188.43,80.33a139.84,139.84,0,0,1-15.75,22.41,119,119,0,0,1-12.53,12.57c-.7.61-4.66-.34-5.61-.44-4.74-.49-9.46-1.21-14.16-2.06q-2.53-.47-5.06-1c-5.86-1.18-12-2.08-17.34-5.14s-9.67-8.22-10.53-14.47a14.55,14.55,0,0,1,3-10.85,7.88,7.88,0,0,1,3-2.46c1.82-.78,3.72-.38,6.35,0a94.12,94.12,0,0,1,13.87,3c1.35.41,12.5,5.35,12.91,5a256.87,256.87,0,0,1,28.06-23.59A39.5,39.5,0,0,1,188.43,80.33Z"/><path class="cls-10" d="M172.68,102.74a119,119,0,0,1-12.53,12.57c-.7.61-4.66-.34-5.61-.44-4.74-.49-9.46-1.21-14.16-2.06a45.5,45.5,0,0,1,3.73-7.85,59.67,59.67,0,0,0,10.94,0c4.67-.42,8.45-3.2,11.81-6.48A36.93,36.93,0,0,1,172.68,102.74Z"/><path class="cls-8" d="M117.45,88a106.78,106.78,0,0,1,28.37,4.73,13.51,13.51,0,0,0,4,5.43,6.9,6.9,0,0,0,.38-4.57l3.63,2.24a13,13,0,0,0-.75-5.59,119.25,119.25,0,0,1,20.66-17c2.09,3.57,5,7.12,8.72,8.87a103.89,103.89,0,0,1-20.65,27.46,96.39,96.39,0,0,1-38.34-3.49c-2.86-.84-5.89-2-7.6-4.41a9.46,9.46,0,0,1-1.21-7.18C115.17,92,116.29,90.22,117.45,88Z"/><path class="cls-11" d="M136.87,122.37c-.25-.32-8.07,2.88-8.75,3.13-3.55,1.37-7.12,2.65-10.55,4.27a166.12,166.12,0,0,0-16.52,9,156.32,156.32,0,0,0-21.48,16.08q-4.16,3.72-8,7.74a9.48,9.48,0,0,1-7.49-5.31c-1-2.11-1.37-4.46-2.41-6.54A50.42,50.42,0,0,0,58,145.28a129.7,129.7,0,0,1-7.44-12.41,131,131,0,0,1-6-13.14c-.9-2.25-1.73-4.53-2.51-6.82-.36-1.06-1.19-6.06-2-6.55A235.61,235.61,0,0,1,10.74,86.45c-3.21-2.52-6.37-5.12-9.48-7.76-1.46-6.88-2-14,.36-20.32A109,109,0,0,1,10.37,47,117.18,117.18,0,0,1,63,12.75c.47,9-.46,21.11-5.68,28.75a64.61,64.61,0,0,1-9,10.44,61.92,61.92,0,0,1-5.11,4.31c-.13.09-.35.28-.64.51-1.32,1.08-4,3.25-4.67,3q4.31,1.53,8.49,3.29l.14.06q4.44,1.84,8.77,3.93,5.06,2.43,10,5.17c9.38-1,18.73-2.8,28.2-2.62l1.06,0c6,.2,12.5,1,17.24,4.51A15.21,15.21,0,0,1,116.06,79a54,54,0,0,1,3.53,8.62C123.79,99.4,129.07,112.47,136.87,122.37Z"/><path class="cls-8" d="M100.52,80c-1.23,4.06-7.44,5.35-11.06,5.59-9,.62-19-2.6-27.14-6.38a54.73,54.73,0,0,1-8.84-4.91c-3.61-2.58-6.56-5.89-7.13-10.3a3.14,3.14,0,0,1,0-.92l.14.06q4.44,1.84,8.77,3.93,5.06,2.43,10,5.17c9.38-1,18.73-2.8,28.2-2.62l1.06,0A30.79,30.79,0,0,1,98,73C99.72,74.92,101.28,77.5,100.52,80Z"/><path class="cls-8" d="M79.57,154.86q-4.16,3.72-8,7.74a9.48,9.48,0,0,1-7.49-5.31c-1-2.11-1.37-4.46-2.41-6.54A50.42,50.42,0,0,0,58,145.28a129.7,129.7,0,0,1-7.44-12.41,131,131,0,0,1-6-13.14c-.9-2.25-1.73-4.53-2.51-6.82-.36-1.06-1.19-6.06-2-6.55A235.61,235.61,0,0,1,10.74,86.45c-3.21-2.52-6.37-5.12-9.48-7.76-1.46-6.88-2-14,.36-20.32A109,109,0,0,1,10.37,47,117.18,117.18,0,0,1,63,12.75c.47,9-.46,21.11-5.68,28.75a64.61,64.61,0,0,1-9,10.44,61.92,61.92,0,0,1-5.11,4.31c-.13.09-.35.28-.64.51a25.38,25.38,0,0,0-18.74,5c2.5-.17,4.94.67,7.32,1.44a25.6,25.6,0,0,0-4.26,8.35c.9-.25,1.66-.05,2.55-.3Q39.79,80.83,51,89.44c1.14-1.13,1.58-2,2.72-3.12A72.21,72.21,0,0,1,55,96.57c0,3.72-.69,7.27-.11,11,1,6.29,4.38,12.25,7.44,17.74s7,10.49,9.2,16.38c1.12,3,1.75,6.27,3.55,8.93A16,16,0,0,0,79.57,154.86Z"/><path class="cls-12" d="M133.62,48.65a49.43,49.43,0,0,1-4.37,13.78c-4.14,8.45-10.75,15.26-20,17.85a39.65,39.65,0,0,1-6.81,1.27,73.52,73.52,0,0,1-17-.56c-1-.11-1.92-.24-2.87-.37A38.83,38.83,0,0,1,59.12,67.94c-10.07-11.45-12-27.84-6.52-41.65a42.43,42.43,0,0,1,4.25-8.08c.41-.61.85-1.2,1.3-1.78a39.08,39.08,0,0,1,4.63-5.13A41.45,41.45,0,0,1,75.55,3.2a44.39,44.39,0,0,1,28.22-1.64c.84.23,1.66.47,2.48.74,8.77,2.93,17.8,8.69,22.3,17l0,.09.68,1.33c.12.24.24.47.35.7A46.92,46.92,0,0,1,133.62,48.65Z"/><path class="cls-8" d="M85.48,79.57c0,.47,0,1,0,1.42-1-.11-1.92-.24-2.87-.37A38.83,38.83,0,0,1,59.12,67.94c-10.07-11.45-12-27.84-6.52-41.65a69,69,0,0,1,5.55-9.86c.11-.19.24-.37.36-.55a17.48,17.48,0,0,1,4.27-4.58,8.08,8.08,0,0,1,2.34-1.09c4.46-1.2,9,2.37,10.75,6.65s1.38,9.06,1.32,13.67a103.33,103.33,0,0,0,3.35,27.34C82.43,65.06,85.1,72.15,85.48,79.57Z"/><path class="cls-13" d="M133.62,48.65a49.43,49.43,0,0,1-4.37,13.78c-4.14,8.45-10.75,15.26-20,17.85a39.65,39.65,0,0,1-6.81,1.27,40.74,40.74,0,0,1-12.31-1A38.25,38.25,0,0,1,67.23,64.64a35.39,35.39,0,0,1-4.87-27.38A65.78,65.78,0,0,1,117,18a39.56,39.56,0,0,1,12.68,3.38A46.92,46.92,0,0,1,133.62,48.65Z"/><path class="cls-14" d="M68.69,33.68c17-15.06,34.89-14.79,42.41-14.38,8.29.46,15.29,2.36,20.73,7.57l.69,2.35,2.19-1.36S122.38,11.94,90,20c-7.47,1.84-15.49,7.15-21.37,12.35Z"/><path class="cls-15" d="M90,20c32.39-8,44.72,7.89,44.72,7.89l-3.84-8.7S114.8,8,92,15.2A70.36,70.36,0,0,0,67.72,29.11l.9,3.21C74.5,27.12,82.52,21.81,90,20Z"/><path class="cls-16" d="M63.51,48.51a38.3,38.3,0,0,0,19.42,27c10.2,5.66,23,6,33.75,1.53.3.38.4,1,.7,1.33-7,2.06-14.62,4.09-21.83,3.25-7.84-.92-15.11-5-20.64-10.66C63.57,60.51,62.59,49.29,62.59,49.29Z"/><path class="cls-17" d="M95.55,81.58c-7.84-.92-15.11-5-20.64-10.66C63.57,60.51,62.59,49.29,62.59,49.29l.51-.43L60.77,50c.29,11.24,7.11,21.88,16.77,27.66s21.79,6.83,32.61,3.75a41.15,41.15,0,0,0,7.23-3.11C110.42,80.39,102.76,82.42,95.55,81.58Z"/><path class="cls-18" d="M67,43.59c0,.09-.07.17-.11.25-1.52,3.32-6.36,9.39-10.64,5.57a4.61,4.61,0,0,1-.57-.6,9.29,9.29,0,0,1-1.78-4.24,21.19,21.19,0,0,1,1.75-13.49c1.3-2.55,3.93-6.29,7.4-5.82a4.24,4.24,0,0,1,.95.23C70.55,27.82,69,39,67,43.59Z"/><path class="cls-19" d="M67,43.59c0,.09-.07.17-.11.25-1.52,3.32-6.36,9.39-10.64,5.57a4.61,4.61,0,0,1-.57-.6,6.34,6.34,0,0,0,6-.78,11.37,11.37,0,0,0,3.79-5,19.07,19.07,0,0,0,.13-14.41A6.09,6.09,0,0,0,63,25.26a4.24,4.24,0,0,1,.95.23C70.55,27.82,69,39,67,43.59Z"/><path class="cls-20" d="M61.4,39.91c-.43,1.2-2.07,3-3.38,1.93s-1.19-3.65-1-5.12a6.91,6.91,0,0,1,1.86-3.86,1.69,1.69,0,0,1,1.29-.57c1.4.08,2,2.55,1.8,3.63a4.75,4.75,0,0,0-.47-1.77,1.55,1.55,0,0,0-1.42-1c-.74.05-1.22.77-1.52,1.44a10.3,10.3,0,0,0-.9,4.54,2.34,2.34,0,0,0,.94,2.09,1.61,1.61,0,0,0,1.57-.11A3.23,3.23,0,0,0,61.4,39.91Z"/><path class="cls-21" d="M131,28.58c2.54,8.72,2.27,24.89-5.2,36.32-4,4.46-10.54,6.14-16.33,4.76A22.09,22.09,0,0,1,95.8,58.91,32.32,32.32,0,0,1,92,41.68a60.79,60.79,0,0,1,3.71-17.42C107.59,20.61,121.12,21.24,131,28.58Z"/><path class="cls-22" d="M117.93,52.88a6.28,6.28,0,0,0,2.5,3.28,4.37,4.37,0,0,0,3.95-.11,9.36,9.36,0,0,0,3.05-2.69,22.76,22.76,0,0,0,4.7-10.93A16.84,16.84,0,0,0,131,33a11.16,11.16,0,0,0-7-6.17C109.9,23.08,115.14,46.43,117.93,52.88Z"/><path class="cls-23" d="M121.22,68.29c3.88-7.39-8.43-7.48-11-2.07-1.3,2.69-2.78,7.93,1.78,7.7C115.36,73.75,119.64,71.3,121.22,68.29Z"/><path class="cls-24" d="M18.18,77a23.29,23.29,0,0,1-7.44,9.5c-3.21-2.52-6.37-5.12-9.48-7.76-1.46-6.88-2-14,.36-20.32A109,109,0,0,1,10.37,47,16.22,16.22,0,0,1,18,51.86c.61.7-1.73,6-2.16,6.79a12.42,12.42,0,0,0-1.9,5.67A17.6,17.6,0,0,0,18.18,77Z"/><path class="cls-25" d="M86.54,96.24c-3.64-4-11.76-5.62-12.48,1.57a22.62,22.62,0,0,0,.18,5.34l-6.88-1.22a1.47,1.47,0,0,1-.94-.45,1.37,1.37,0,0,1-.1-.87c.51-5.37.84-10.4,1.36-15.76-4.33-5.67-7.81-12.29-12.41-17.79Q50.94,65,46.5,63.13A126.74,126.74,0,0,1,64.31,85.27a126.48,126.48,0,0,1-1.16,17.82,54.73,54.73,0,0,0,11.68,3,26.72,26.72,0,0,0,6.1,11.79,14.93,14.93,0,0,0,3.26,2.58c3.65,2.07,7,.23,8.07-3.52C94.41,109.8,91.57,101.8,86.54,96.24Z"/><path class="cls-26" d="M84.94,109.63l.19.17a1.74,1.74,0,0,0,1.31.49,1.51,1.51,0,0,0,1.07-.73c2.18-3.43.4-8.74-2.44-11.3-1.18-1.07-3.21-1.87-4.1-.1-.76,1.52-.22,3.87.21,5.38A13.17,13.17,0,0,0,84.94,109.63Z"/><path class="cls-27" d="M216.31,141a56.4,56.4,0,0,1-7.95,7.5q-1.25-1.35-2.49-2.58a116.69,116.69,0,0,0-10.27-9.11q-4.11.16-8.15.6a138.81,138.81,0,0,0-23.78,4.72c-4.93,10.56-11.19,20-17.61,29.67-6.57,9.88-14.36,15-25.91,17.54-10.76,2.41-22.82,1.88-31.59-5.52a67.45,67.45,0,0,1-14.19-16.61c-1-1.72-2-3.5-2.86-5.31-.56-1.13-1.09-2.27-1.57-3.43a133.05,133.05,0,0,1,48.86-30.44c1-.35,2-.7,3-1a63.68,63.68,0,0,1,9.8-10.62c3-2.53,6.16-3.52,9.85-4.78a82.14,82.14,0,0,1,10.24,1c10.32,1.64,20.51,5.05,30.34,8.7l.54-.11c2.76-.57,5.18-1.34,7.91-1.93l.86-.17q1.57-1.68,3.26-3.27,2.64-2.58,5.51-4.9a78.74,78.74,0,0,1,8.44-6.07c2.63-1.65,6.67-1.3,9.52-.32,3.65,1.26,5.43,4.2,6.44,7.54a31.07,31.07,0,0,1,.82,3.49C227.12,125.45,222.68,133.86,216.31,141Z"/><path class="cls-8" d="M187.45,137.44a138.81,138.81,0,0,0-23.78,4.72c-4.93,10.56-11.19,20-17.61,29.67-6.57,9.88-14.36,15-25.91,17.54-10.76,2.41-22.82,1.88-31.59-5.52a67.45,67.45,0,0,1-14.19-16.61c-1-1.72-2-3.5-2.86-5.31,3-2.69,6.55-4.88,8.89-8.11,2.6,2.49,6.44,3.34,10,3.08a43.67,43.67,0,0,0,11.08-2.81A66.45,66.45,0,0,1,119,131.65a116.29,116.29,0,0,0,16,7.19A61.36,61.36,0,0,1,187.45,137.44Z"/><path class="cls-28" d="M121.82,127c-2,3.62-2.59,4.06-4.48,7.86-9.55,3-18.15,8.57-25.76,15.08a189.43,189.43,0,0,0-17.21,17.26,67.6,67.6,0,0,1-4.43-8.74A132.94,132.94,0,0,1,121.82,127Z"/><path class="cls-29" d="M201.82,131.43a9.5,9.5,0,0,1-6.41,2.42,32.9,32.9,0,0,0-12.82-12.63c2.76-.57,5.18-1.34,7.91-1.93A18.73,18.73,0,0,1,201.82,131.43Z"/><path class="cls-30" d="M214.88,122.39a18,18,0,0,1-6.14,5.28c-4.15-4.58-8.49-9.31-14.12-11.82q2.64-2.58,5.51-4.9A40.84,40.84,0,0,1,214.88,122.39Z"/><path class="cls-31" d="M216.31,141a56.4,56.4,0,0,1-7.95,7.5q-1.25-1.35-2.49-2.58a44.28,44.28,0,0,0,5.3-4.45,44.51,44.51,0,0,0,13.36-29.4,31.07,31.07,0,0,1,.82,3.49C227.12,125.45,222.68,133.86,216.31,141Z"/><path class="cls-32" d="M159.09,119.88a23.76,23.76,0,0,0-7.38-7.25,82.14,82.14,0,0,0-10.24-1c-3.69,1.26-6.87,2.25-9.85,4.78a63.68,63.68,0,0,0-9.8,10.62c-1.3,2.31-2,3.32-2.82,4.74,3.91,6.62,10.1,12.73,17.61,14.63a65.31,65.31,0,0,1,14-11.09c3.23-1.89,6.74-1.88,10.33-2.92C162.48,128.1,161.49,123.73,159.09,119.88Z"/><path class="cls-33" d="M201.21,69.09c-1.63,6-12.13,14-18.25,9.79-2.44-1.66-3.86-4.4-5.21-7-1.68-3.32-3.39-6.7-4-10.38-1.25-7.67,2.84-15.45,1.85-23.16-.82-1-1.33-2.24-2.17-3.25.46-.6,1.26-1.37,1.72-2a35.93,35.93,0,0,0-1.78-7.29,5.14,5.14,0,0,1,.38-.42,4.9,4.9,0,0,1,4.23-1.7,32.46,32.46,0,0,1,5.32,8.12c1.2,2.37,0,5.75,0,8.41l1.14.07a69.94,69.94,0,0,1,12.81,1.8c3.09.73,2.7,5.38,3,8.52q.62,6,1.13,12.1A18.55,18.55,0,0,1,201.21,69.09Z"/><path class="cls-34" d="M210.08,53.76a9.16,9.16,0,0,1-1.68,5.09c-.66.2-1.32.43-2,.63A65.65,65.65,0,0,0,205,68c.28.34.42,1,.7,1.33,0,1.2,0,2.2-.07,3.39a12.64,12.64,0,0,1-2.44,1.49,8.25,8.25,0,0,1-3.47.81c-2.52,0-4.56-1.4-6.84-2.2-2.59-.91-5.19-1.79-7.78-2.68a8,8,0,0,1-.06-4.8,4.8,4.8,0,0,1-2.69-1.79,33.62,33.62,0,0,1,.07-5.85,2.54,2.54,0,0,1,.35-1.24c.47-.7,1.37-.76,2.11-.9,0-.88-.43-1.65-.56-2.51a23.79,23.79,0,0,1,0-4,1.79,1.79,0,0,1,.31-1.14,1.83,1.83,0,0,1,.91-.51c1.3-.42,2.53-.95,3.78-1.41a6.1,6.1,0,0,1-1.7-3.63c-.22-2.28.19-3.7,2.56-4.33a5.33,5.33,0,0,0,2.94-1.37,10.65,10.65,0,0,1,3-2.76l.62.15a19.22,19.22,0,0,1,13.63,12.15c.53,1.44-.38,3-1.07,4.38l-.12.25c-.26.07-.83.33-1.08.42a1.19,1.19,0,0,0,0,.6,1.43,1.43,0,0,0,.21.65A6.9,6.9,0,0,0,210.08,53.76Z"/><path class="cls-26" d="M209.39,50.59h-.11a38.92,38.92,0,0,0-10.82-9.5,29.94,29.94,0,0,0-1.62-5.5c-.1-.23-.19-.48-.28-.72a3.59,3.59,0,0,1,.26-.82,19.21,19.21,0,0,1,13.64,12.16C211,47.65,210.07,49.18,209.39,50.59Zm-1,1.92a1.43,1.43,0,0,1-.21-.65c-3.44-2.09-7.16-4.51-10.49-6.51A17.48,17.48,0,0,0,194,53.78a47.8,47.8,0,0,1,9.1,4.56,89.37,89.37,0,0,1-9.51-2.66,25.14,25.14,0,0,0-.68,7.82,18.33,18.33,0,0,1,7.5,5.84,28.85,28.85,0,0,0-7.08-3,14.2,14.2,0,0,1-.21,4.9,20.18,20.18,0,0,0,10,2.93,12.64,12.64,0,0,0,2.44-1.49c0-1.19,0-2.19.07-3.39-.28-.35-.42-1-.7-1.33a65.65,65.65,0,0,1,1.41-8.49c.66-.2,1.32-.43,2-.63a9.16,9.16,0,0,0,1.68-5.09A6.9,6.9,0,0,1,208.36,52.51Zm-25-12.31c0-2.66,1.18-6,0-8.41A32.46,32.46,0,0,0,178,23.67a4.9,4.9,0,0,0-4.23,1.7,25.14,25.14,0,0,1,1.92,4.41c.51,1.82.85,3.68,1.24,5.53a26.11,26.11,0,0,0,1.94,6.16,4,4,0,0,0,1,1.41,4.84,4.84,0,0,0,3.54.67c.34-1.1.7-2.2,1.07-3.28Z"/><path class="cls-35" d="M132.1,116.36c.41-.31.82-.59,1.24-.86q-1.18-1.94-2.28-4c-.65-.12-1.3-.25-1.94-.39C130.06,112.93,131.06,114.67,132.1,116.36Z"/><path class="cls-35" d="M160.74,115.07a202.44,202.44,0,0,1,21.06,6.76l.54-.11c2.76-.56,5.18-1.34,7.92-1.92l.85-.17.19-.2c-2.56.58-4.88,1.3-7.49,1.83l-.54.11a202.44,202.44,0,0,0-21.06-6.76,119.68,119.68,0,0,0,11.69-11.82,140.28,140.28,0,0,0,15.75-22.41c0-.1-.08-.19-.13-.29a12.3,12.3,0,0,1-1.52.35c.06.13.13.26.18.4a140.28,140.28,0,0,1-15.75,22.41A119.68,119.68,0,0,1,160.74,115.07Z"/><path class="cls-35" d="M198.2,75.36a7.13,7.13,0,0,1-.8-.18,19.62,19.62,0,0,1-6.81,4.56A18.25,18.25,0,0,0,198.2,75.36Z"/><path class="cls-35" d="M224.62,202.49a26.86,26.86,0,0,0-6.23-4.45,13.5,13.5,0,0,0-1.6-.74c-1-9.5-2.12-18.9-3.2-28.33q-.92-8.1-1.8-16.27a15.51,15.51,0,0,0-2.61-4.53l-1.07.86-.48-.51a15.62,15.62,0,0,1,2.69,4.65q.87,8.16,1.8,16.26c1.08,9.43,2.18,18.83,3.2,28.33a13.5,13.5,0,0,1,1.6.74,26.86,26.86,0,0,1,6.23,4.45,8,8,0,0,1,.59.55c1.29.28,2.59.51,3.91.72a59,59,0,0,0,7.74.65,49.76,49.76,0,0,0,10-.77,17.21,17.21,0,0,1,7.77,8.18,16.28,16.28,0,0,1,1.61,6.82,44.53,44.53,0,0,1-15.33,8.45,45.68,45.68,0,0,0,16.8-8.91,16.24,16.24,0,0,0-1.61-6.82,17.16,17.16,0,0,0-7.77-8.18,49.76,49.76,0,0,1-10,.77,60.75,60.75,0,0,1-7.74-.65c-1.32-.21-2.62-.45-3.91-.72A8,8,0,0,0,224.62,202.49Z"/><path class="cls-35" d="M73.29,166.29c-3.49,1.41-7.26,3-10.93,4.21,3.64-1.1,7.43-2.65,11-4.1Z"/><path class="cls-35" d="M44.4,56.29A58.67,58.67,0,0,0,49.51,52l.8-.8c-.05-.27-.13-.54-.18-.81-.69.7-1.38,1.4-2.09,2.07a57,57,0,0,1-5.11,4.3l-.64.51c-1.32,1.08-4,3.26-4.66,3q4.29,1.53,8.48,3.3l.14.06q4.44,1.85,8.78,3.92,2.91,1.41,5.79,2.93c-.67-.66-1.33-1.34-2-2l-.23-.28L56.5,67.1c-2.9-1.39-5.82-2.69-8.78-3.93l-.14-.06q-4.19-1.76-8.48-3.29c.67.24,3.34-1.94,4.66-3Z"/><path class="cls-35" d="M138.7,181.51l-1,.1a37.13,37.13,0,0,1-12.28,6.73A37.86,37.86,0,0,0,138.7,181.51Z"/><path class="cls-35" d="M103.52,2.06c.84.23,1.66.47,2.48.75,8,2.67,16.24,7.72,21,14.88a28.05,28.05,0,0,1,3.58,2l3.84,8.7-2.18,1.36-.08-.26a46.6,46.6,0,0,1,1.17,19.69A48.78,48.78,0,0,1,129,62.93a35,35,0,0,1-12.61,14.59l0,0c.3.38.4,1,.7,1.34l-.41.2c.84.08,1.76.23,2.79.37a91.75,91.75,0,0,1,13.86,3c1.35.4,12.5,5.35,12.91,5l.63-.61c-2.68-.83-10.92-4.46-12.07-4.8A91.75,91.75,0,0,0,121,79c-1-.14-2-.29-2.79-.37l.41-.21c-.3-.37-.4-1-.7-1.33l0,0a35,35,0,0,0,12.61-14.59,49.11,49.11,0,0,0,4.37-13.78A46.65,46.65,0,0,0,133.67,29l.08.27,2.18-1.36-3.84-8.7a28.05,28.05,0,0,0-3.58-2c-4.8-7.16-13-12.21-21-14.88-.82-.28-1.64-.52-2.48-.75a44.47,44.47,0,0,0-25.67.71A44.48,44.48,0,0,1,103.52,2.06Z"/><path class="cls-35" d="M177.75,24.17a32.89,32.89,0,0,1,5.31,8.12c1.2,2.37,0,5.76,0,8.42.39,0,.76,0,1.14.06q1.65.09,3.24.24a4.58,4.58,0,0,1,.15-.56c-.64-.05-1.27-.11-1.92-.14l-1.14-.07c0-2.65,1.18-6,0-8.41a32.89,32.89,0,0,0-5.31-8.12,4,4,0,0,0-2.54.44A3.85,3.85,0,0,1,177.75,24.17Z"/><path class="cls-35" d="M217.85,105.06c3.64,1.27,5.42,4.2,6.44,7.54a33,33,0,0,1,.82,3.5c1.76,9.85-2.67,18.27-9.05,25.43a57.39,57.39,0,0,1-6.87,6.63l.39.41a55.33,55.33,0,0,0,7.95-7.5c6.38-7.16,10.81-15.58,9.05-25.43a33,33,0,0,0-.82-3.5c-1-3.34-2.8-6.27-6.44-7.54-2.55-.87-6-1.24-8.63-.13A14.25,14.25,0,0,1,217.85,105.06Z"/><path class="cls-35" d="M131.56,27.36l.15.44-.13-.43Z"/><path class="cls-35" d="M196.58,34.56h0a19.14,19.14,0,0,1,13.29,11.33c.12.27.23.55.34.83a1,1,0,0,1,0,.17,4.44,4.44,0,0,1-.58,3.13c-.17.36-.36.72-.53,1.07l-.12.25c-.26.07-.82.34-1.08.42a1.31,1.31,0,0,0,0,.6,1.51,1.51,0,0,0,.22.65,6.67,6.67,0,0,0,1.71,1.25,9,9,0,0,1-1.68,5.09c-.66.21-1.31.44-2,.63a62.79,62.79,0,0,0-1.41,8.5c.28.33.41,1,.69,1.32,0,1.2,0,2.2-.07,3.39a12.61,12.61,0,0,1-2.43,1.5l-.41.16a9.86,9.86,0,0,0,1.88-.62,12.61,12.61,0,0,0,2.43-1.5c0-1.19,0-2.19.07-3.39-.28-.35-.41-1-.69-1.33a62.91,62.91,0,0,1,1.41-8.49c.66-.2,1.31-.42,2-.63a9,9,0,0,0,1.68-5.09,6.67,6.67,0,0,1-1.71-1.25,1.51,1.51,0,0,1-.22-.65,1.31,1.31,0,0,1,0-.6c.26-.08.82-.35,1.08-.42l.12-.25c.17-.35.36-.71.53-1.07a4.44,4.44,0,0,0,.58-3.13.85.85,0,0,0,0-.17c-.11-.28-.22-.56-.34-.83A19.14,19.14,0,0,0,198.05,34.1h0l-.61-.15q-.5.3-.9.6Z"/><path class="cls-35" d="M191.74,38l-.28.08a4.76,4.76,0,0,0-.81.29A10,10,0,0,0,191.74,38Z"/></g></g></svg>