<svg width="24" height="24" viewBox="0 0 24 24" fill="none" xmlns="http://www.w3.org/2000/svg">
<g clip-path="url(#clip0_51_13256)">
<path d="M7.65901 14.0702C7.57545 14.0702 7.497 14.0373 7.43788 13.9781C7.37876 13.9196 7.34636 13.8406 7.34636 13.7576C7.34636 13.674 7.37876 13.595 7.43788 13.5364L15.513 5.46076C16.0712 4.90309 16.8233 4.58418 17.5811 4.58418C17.589 4.58418 17.5976 4.58418 17.6061 4.58474C18.3622 4.59157 19.0728 4.89001 19.6077 5.42494C20.1426 5.95987 20.4411 6.67046 20.4479 7.42596C20.4553 8.19225 20.1358 8.95514 19.5719 9.51906L7.13886 21.9521C6.40668 22.6837 5.43232 23.0873 4.39372 23.0873C3.30112 23.0873 2.25343 22.6234 1.5184 21.8151C0.911845 21.1477 0.555415 20.2842 0.51619 19.3843C0.467302 18.2792 0.869779 17.2417 1.64915 16.4624L15.1725 2.93846C16.0928 2.0181 17.3167 1.5116 18.618 1.5116C19.9198 1.5116 21.1431 2.0181 22.0635 2.93846C23.9633 4.83885 23.9633 7.93019 22.0635 9.83002L12.8975 18.996C12.8383 19.0551 12.7599 19.0875 12.6763 19.0875C12.5928 19.0875 12.5143 19.0551 12.4552 18.996C12.3961 18.9369 12.3637 18.8585 12.3637 18.7749C12.3637 18.6913 12.3961 18.6129 12.4552 18.5538L21.6212 9.38775C22.4239 8.58564 22.8656 7.51862 22.8656 6.38452C22.8656 5.24985 22.4239 4.18284 21.6212 3.38073C20.8191 2.57861 19.7526 2.13691 18.618 2.13691C18.6157 2.13691 18.6134 2.13691 18.6112 2.13691C17.4958 2.13862 16.3901 2.60533 15.5778 3.41768L2.09142 16.9041C1.47634 17.5191 1.13753 18.3372 1.13753 19.2069C1.13753 20.0767 1.47634 20.8947 2.09142 21.5098C2.72583 22.1448 3.55978 22.462 4.39372 22.462C5.22767 22.462 6.06218 22.1448 6.6966 21.5098L19.1654 9.04098C19.6571 8.54925 19.8908 7.86766 19.8055 7.17128C19.7572 6.77335 19.6009 6.39589 19.3536 6.07982C18.9215 5.5267 18.2741 5.20949 17.5782 5.20949C16.9791 5.20949 16.4152 5.44313 15.9911 5.86721L7.88015 13.9781C7.82103 14.0373 7.74258 14.0702 7.65901 14.0702Z" fill="#A7B6C4"/>
<path d="M7.43779 13.9782C7.49691 14.0373 7.57536 14.0703 7.65892 14.0703C7.74249 14.0703 7.82094 14.0373 7.88006 13.9782L15.991 5.86724C16.4151 5.44316 16.979 5.20952 17.5781 5.20952C18.274 5.20952 18.9214 5.52672 19.3535 6.07985C19.6008 6.39592 19.7571 6.77338 19.8054 7.17131C19.8907 7.86768 19.657 8.54928 19.1653 9.041L6.6965 21.5098C6.06209 22.1448 5.22758 22.462 4.39363 22.462C3.55969 22.462 2.72574 22.1448 2.09133 21.5098C1.47624 20.8947 1.13744 20.0767 1.13744 19.2069C1.13744 18.3372 1.47624 17.5192 2.09133 16.9041L15.5777 3.4177C16.39 2.60536 17.4957 2.13865 18.6111 2.13694C18.6133 2.13694 18.6156 2.13694 18.6179 2.13694C19.7525 2.13694 20.819 2.57864 21.6211 3.38075C22.4238 4.18286 22.8655 5.24988 22.8655 6.38455C22.8655 7.51864 22.4238 8.58566 21.6211 9.38777L12.4551 18.5538C12.396 18.6129 12.3636 18.6913 12.3636 18.7749C12.3636 18.8585 12.396 18.9369 12.4551 18.996C12.5142 19.0552 12.5927 19.0876 12.6762 19.0876C12.7598 19.0876 12.8382 19.0552 12.8974 18.996L22.0634 9.83004C23.9632 7.93021 23.9632 4.83888 22.0634 2.93848C21.143 2.01813 19.9197 1.51162 18.6179 1.51162C17.3167 1.51162 16.0927 2.01813 15.1724 2.93848L1.64906 16.4624C0.869687 17.2417 0.46721 18.2792 0.516099 19.3843C0.555323 20.2842 0.911754 21.1477 1.51831 21.8151C2.25334 22.6235 3.30103 23.0873 4.39363 23.0873C5.43223 23.0873 6.40658 22.6837 7.13877 21.9521L19.5718 9.51909C20.1357 8.95517 20.4552 8.19228 20.4478 7.42598C20.441 6.67049 20.1425 5.9599 19.6076 5.42497C19.0727 4.89004 18.3621 4.59159 17.606 4.58477C17.5975 4.5842 17.589 4.5842 17.581 4.5842C16.8232 4.5842 16.0711 4.90311 15.5129 5.46078L7.43779 13.5365C7.37867 13.595 7.34626 13.674 7.34626 13.7576C7.34626 13.8406 7.37867 13.9196 7.43779 13.9782ZM22.4255 2.57694C24.5249 4.67629 24.5249 8.09223 22.4255 10.1916L13.2589 19.3576C13.1037 19.5134 12.8962 19.5992 12.6762 19.5992C12.4562 19.5992 12.2493 19.5134 12.0936 19.3576C11.9378 19.2024 11.852 18.9949 11.852 18.7749C11.852 18.5549 11.9378 18.348 12.0936 18.1922L21.2596 9.02623C21.965 8.32019 22.3539 7.38221 22.3539 6.38455C22.3539 5.38631 21.965 4.44834 21.2596 3.74287C20.5541 3.03683 19.6161 2.64856 18.6179 2.64856C18.6162 2.64856 18.6139 2.64856 18.6116 2.64856C17.631 2.6497 16.6567 3.06241 15.9393 3.77982L2.45288 17.2662C1.93443 17.7846 1.64906 18.4736 1.64906 19.2069C1.64906 19.9403 1.93443 20.6298 2.45288 21.1483C3.5233 22.2181 5.26453 22.2181 6.33496 21.1483L18.8038 8.67946C19.1835 8.29972 19.3631 7.77275 19.2978 7.23327C19.2603 6.92743 19.1403 6.63808 18.9504 6.39535C18.6156 5.96672 18.1154 5.72114 17.5781 5.72114C17.1154 5.72114 16.6805 5.90135 16.3531 6.22879L8.2416 14.3403C7.92042 14.6615 7.39743 14.6615 7.07567 14.3403C6.75449 14.0185 6.75449 13.4961 7.07567 13.1743L15.1514 5.09924C15.8119 4.43867 16.7112 4.06519 17.6106 4.07315C18.5013 4.08111 19.3393 4.43299 19.9691 5.06342C20.5996 5.69329 20.9509 6.53064 20.9594 7.42143C20.9679 8.3236 20.5939 9.22007 19.9333 9.8812L7.50032 22.3136C6.67206 23.1425 5.56866 23.5989 4.39363 23.5989C3.15721 23.5989 1.97138 23.0742 1.13971 22.159C0.452998 21.4035 0.0499533 20.4257 0.00447572 19.4071C-0.0506659 18.157 0.405247 16.9825 1.28694 16.1003L14.8108 2.57694C15.8278 1.55994 17.1797 1 18.6179 1C20.0561 1 21.4085 1.55994 22.4255 2.57694Z" fill="black"/>
</g>
<defs>
<clipPath id="clip0_51_13256">
<rect width="24" height="24" fill="white"/>
</clipPath>
</defs>
</svg>
