<svg width="47" height="47" viewBox="0 0 47 47" fill="none" xmlns="http://www.w3.org/2000/svg">
<path d="M47 23.5C47 36.4787 36.4787 47 23.5 47C10.5213 47 0 36.4787 0 23.5C0 10.5213 10.5213 0 23.5 0C36.4787 0 47 10.5213 47 23.5ZM0.443497 23.5C0.443497 36.2338 10.7662 46.5565 23.5 46.5565C36.2338 46.5565 46.5565 36.2338 46.5565 23.5C46.5565 10.7662 36.2338 0.443497 23.5 0.443497C10.7662 0.443497 0.443497 10.7662 0.443497 23.5Z" fill="#D9D9D9"/>
<path d="M42 6H6V42H42V6Z" fill="white" fill-opacity="0.01"/>
<path fill-rule="evenodd" clip-rule="evenodd" d="M24 9C15.7157 9 9 15.7157 9 24C9 32.2843 15.7157 39 24 39C32.2843 39 39 32.2843 39 24C39 15.7157 32.2843 9 24 9ZM6 24C6 14.0589 14.0589 6 24 6C33.9411 6 42 14.0589 42 24C42 33.9411 33.9411 42 24 42C14.0589 42 6 33.9411 6 24Z" fill="#F3F3F3"/>
<path fill-rule="evenodd" clip-rule="evenodd" d="M20.3872 40.1036C20.2421 39.9163 20.2421 38.2478 20.3872 35.0984C18.8333 35.1521 17.8516 35.0442 17.4419 34.7749C16.8275 34.3709 16.2124 33.1249 15.6666 32.2468C15.1208 31.3687 13.9094 31.2299 13.4203 31.0336C12.9311 30.8372 12.8083 30.0371 14.7682 30.6422C16.7281 31.2474 16.8236 32.8954 17.4419 33.2807C18.0602 33.6661 19.5383 33.4975 20.2084 33.1888C20.8784 32.8801 20.8291 31.7307 20.9486 31.2754C21.0996 30.8504 20.5672 30.7561 20.5555 30.7526C19.9014 30.7526 16.4652 30.0053 15.5213 26.6778C14.5775 23.3504 15.7934 21.1754 16.442 20.2405C16.8743 19.6172 16.8361 18.2888 16.3272 16.2551C18.1749 16.019 19.6007 16.6006 20.6048 17.9999C20.6058 18.008 21.9212 17.2178 23.9999 17.2178C26.0788 17.2178 26.8163 17.8614 27.3854 17.9999C27.9545 18.1385 28.4098 15.5504 31.9249 16.2551C31.191 17.6975 30.5764 19.4999 31.0455 20.2405C31.5146 20.981 33.3556 23.3359 32.2247 26.6778C31.4708 28.9058 29.9888 30.2641 27.7786 30.7526C27.5251 30.8335 27.3984 30.964 27.3984 31.144C27.3984 31.4141 27.741 31.4435 28.2347 32.7086C28.5637 33.552 28.5875 35.9609 28.3059 39.9351C27.5927 40.1167 27.0379 40.2386 26.6414 40.3009C25.9383 40.4114 25.175 40.4733 24.4249 40.4972C23.6749 40.5212 23.4144 40.5185 22.3775 40.4219C21.6863 40.3576 21.0228 40.2515 20.3872 40.1036Z" fill="#F3F3F3"/>
</svg>
