<svg width="47" height="47" viewBox="0 0 47 47" fill="none" xmlns="http://www.w3.org/2000/svg">
<path d="M47 23.5C47 36.4787 36.4787 47 23.5 47C10.5213 47 0 36.4787 0 23.5C0 10.5213 10.5213 0 23.5 0C36.4787 0 47 10.5213 47 23.5ZM0.443497 23.5C0.443497 36.2338 10.7662 46.5565 23.5 46.5565C36.2338 46.5565 46.5565 36.2338 46.5565 23.5C46.5565 10.7662 36.2338 0.443497 23.5 0.443497C10.7662 0.443497 0.443497 10.7662 0.443497 23.5Z" fill="#D9D9D9"/>
<path d="M30.5623 10.8748C32.3013 10.88 33.9676 11.5731 35.1972 12.8028C36.4269 14.0324 37.12 15.6987 37.1252 17.4377V30.5623C37.12 32.3013 36.4269 33.9676 35.1972 35.1972C33.9676 36.4269 32.3013 37.12 30.5623 37.1252H17.4377C15.6987 37.12 14.0324 36.4269 12.8028 35.1972C11.5731 33.9676 10.88 32.3013 10.8748 30.5623V17.4377C10.88 15.6987 11.5731 14.0324 12.8028 12.8028C14.0324 11.5731 15.6987 10.88 17.4377 10.8748H30.5623ZM30.5623 8.25H17.4377C12.3844 8.25 8.25 12.3844 8.25 17.4377V30.5623C8.25 35.6156 12.3844 39.75 17.4377 39.75H30.5623C35.6156 39.75 39.75 35.6156 39.75 30.5623V17.4377C39.75 12.3844 35.6156 8.25 30.5623 8.25Z" fill="#F3F3F3"/>
<path d="M32.531 17.4375C32.1416 17.4375 31.761 17.322 31.4372 17.1057C31.1135 16.8894 30.8611 16.5819 30.7121 16.2222C30.5631 15.8624 30.5241 15.4666 30.6001 15.0847C30.6761 14.7028 30.8636 14.352 31.1389 14.0766C31.4142 13.8013 31.765 13.6138 32.1469 13.5378C32.5288 13.4619 32.9247 13.5009 33.2844 13.6499C33.6442 13.7989 33.9516 14.0512 34.168 14.375C34.3843 14.6987 34.4998 15.0794 34.4998 15.4688C34.5003 15.7274 34.4498 15.9837 34.351 16.2228C34.2523 16.4619 34.1073 16.6792 33.9244 16.8621C33.7414 17.045 33.5242 17.19 33.2851 17.2888C33.046 17.3875 32.7897 17.4381 32.531 17.4375Z" fill="#F3F3F3"/>
<path d="M24 18.7498C25.0384 18.7498 26.0535 19.0577 26.9169 19.6346C27.7803 20.2115 28.4532 21.0315 28.8506 21.9908C29.248 22.9502 29.3519 24.0058 29.1494 25.0243C28.9468 26.0427 28.4467 26.9782 27.7125 27.7125C26.9782 28.4467 26.0427 28.9468 25.0243 29.1494C24.0058 29.3519 22.9502 29.248 21.9908 28.8506C21.0315 28.4532 20.2115 27.7803 19.6346 26.9169C19.0577 26.0535 18.7498 25.0384 18.7498 24C18.7513 22.608 19.3049 21.2735 20.2892 20.2892C21.2735 19.3049 22.608 18.7513 24 18.7498ZM24 16.125C22.4425 16.125 20.9199 16.5869 19.6249 17.4522C18.3299 18.3175 17.3205 19.5474 16.7245 20.9864C16.1284 22.4253 15.9725 24.0087 16.2763 25.5363C16.5802 27.0639 17.3302 28.4671 18.4315 29.5685C19.5329 30.6698 20.9361 31.4198 22.4637 31.7237C23.9913 32.0275 25.5747 31.8716 27.0136 31.2756C28.4526 30.6795 29.6825 29.6702 30.5478 28.3751C31.4131 27.0801 31.875 25.5575 31.875 24C31.875 21.9114 31.0453 19.9084 29.5685 18.4315C28.0916 16.9547 26.0886 16.125 24 16.125Z" fill="#F3F3F3"/>
</svg>
