<svg width="120" height="55" viewBox="0 0 120 55" fill="none" xmlns="http://www.w3.org/2000/svg">
<path d="M25.6049 16.675L22.1849 20.545L18.09 25.675L13.905 31.435L10.215 37.105H26.1V43H1.57495V38.815L4.63495 33.73L8.45995 28.06L12.465 22.525L16.29 17.71H2.29495V11.815H25.6049V16.675ZM31.066 43V11.815H52.1259V17.71H38.0859V23.83H50.5509V29.59H38.0859V37.105H53.1609V43H31.066ZM67.491 11.455C72.171 11.455 75.756 12.295 78.246 13.975C80.736 15.625 81.981 18.205 81.981 21.715C81.981 23.905 81.471 25.69 80.451 27.07C79.461 28.42 78.021 29.485 76.131 30.265C76.8285 31.1369 77.4891 32.0377 78.111 32.965C78.801 33.955 79.476 35.005 80.136 36.115C80.8442 37.2264 81.5047 38.3674 82.116 39.535C82.746 40.705 83.331 41.86 83.871 43H75.996L74.241 39.895C73.671 38.845 73.071 37.825 72.441 36.835C71.8684 35.8876 71.2682 34.9572 70.641 34.045C70.041 33.145 69.441 32.335 68.841 31.615H65.3759V43H58.3559V12.265C59.917 11.9609 61.4948 11.7505 63.081 11.635C64.731 11.515 66.201 11.455 67.491 11.455ZM67.896 17.44C67.386 17.44 66.921 17.455 66.501 17.485L65.3759 17.575V26.035H67.356C69.996 26.035 71.886 25.705 73.026 25.045C74.166 24.385 74.736 23.26 74.736 21.67C74.736 20.14 74.151 19.06 72.981 18.43C71.841 17.77 70.146 17.44 67.896 17.44ZM93.475 27.385C93.475 28.915 93.655 30.295 94.015 31.525C94.405 32.755 94.945 33.82 95.635 34.72C96.355 35.59 97.225 36.265 98.245 36.745C99.265 37.225 100.434 37.465 101.755 37.465C103.045 37.465 104.2 37.225 105.22 36.745C106.27 36.265 107.14 35.59 107.83 34.72C108.55 33.82 109.09 32.755 109.45 31.525C109.84 30.295 110.035 28.915 110.035 27.385C110.035 25.855 109.84 24.475 109.45 23.245C109.09 21.985 108.55 20.92 107.83 20.05C107.14 19.15 106.27 18.46 105.22 17.98C104.2 17.5 103.045 17.26 101.755 17.26C100.435 17.26 99.265 17.515 98.245 18.025C97.225 18.505 96.355 19.195 95.635 20.095C94.945 20.965 94.405 22.03 94.015 23.29C93.655 24.52 93.475 25.885 93.475 27.385ZM117.279 27.385C117.279 30.055 116.874 32.41 116.064 34.45C115.284 36.46 114.204 38.155 112.824 39.535C111.444 40.885 109.794 41.905 107.874 42.595C105.984 43.285 103.944 43.63 101.754 43.63C99.624 43.63 97.615 43.285 95.725 42.595C93.835 41.905 92.185 40.885 90.775 39.535C89.365 38.155 88.255 36.46 87.445 34.45C86.635 32.41 86.23 30.055 86.23 27.385C86.23 24.715 86.65 22.375 87.49 20.365C88.33 18.325 89.455 16.615 90.865 15.235C92.2826 13.869 93.9681 12.8117 95.815 12.13C97.705 11.44 99.685 11.095 101.755 11.095C103.885 11.095 105.895 11.44 107.785 12.13C109.675 12.82 111.325 13.855 112.735 15.235C114.145 16.615 115.255 18.325 116.065 20.365C116.875 22.375 117.279 24.715 117.279 27.385Z" fill="white"/>
</svg>
