<svg width="784" height="783" viewBox="0 0 784 783" fill="none" xmlns="http://www.w3.org/2000/svg">
<path style="mix-blend-mode:screen" fill-rule="evenodd" clip-rule="evenodd" d="M610.554 560.104C515.299 678.889 341.606 698.107 222.628 603.06C190.938 577.814 165.245 545.876 147.392 509.539C143.968 502.591 140.865 495.494 138.052 488.309C126.838 459.607 120.529 429.229 119.39 398.441C118.94 387.26 119.182 376.062 120.114 364.911C121.377 349.674 123.924 334.571 127.726 319.76C137.429 281.841 155.149 246.43 179.696 215.908C204.204 185.264 235.004 160.214 270.021 142.444C280.869 136.923 292.081 132.147 303.58 128.15C328.342 119.453 354.223 114.342 380.436 112.97C448.092 109.226 514.741 130.575 567.571 172.911C584.801 186.657 600.319 202.415 613.792 219.846C631.89 243.264 646.063 269.458 655.76 297.407C657.623 302.788 659.329 308.196 660.826 313.655C662.109 318.202 663.258 322.811 664.284 327.423C669.411 349.966 671.661 373.066 670.984 396.174C669.594 445.502 654.857 493.541 628.336 535.194C622.888 543.829 616.951 552.146 610.554 560.104Z" fill="url(#paint0_radial_35_8167)"/>
<path fill-rule="evenodd" clip-rule="evenodd" d="M594.967 547.652C506.597 657.85 345.454 675.667 235.098 587.508C205.686 564.084 181.845 534.441 165.289 500.715C162.109 494.282 159.232 487.702 156.616 481.029C146.22 454.4 140.365 426.22 139.294 397.658C138.878 387.287 139.107 376.9 139.979 366.556C141.148 352.417 143.501 338.4 147.013 324.652C156.014 289.485 172.449 256.646 195.214 228.34C217.947 199.909 246.518 176.669 279.003 160.185C289.068 155.061 299.473 150.631 310.145 146.927C333.119 138.862 357.132 134.124 381.452 132.858C444.213 129.388 506.04 149.19 555.052 188.459C571.036 201.214 585.43 215.836 597.926 232.011C614.718 253.728 627.867 278.023 636.859 303.947C638.587 308.95 640.155 313.961 641.551 319.02C642.751 323.248 643.791 327.55 644.79 331.82C649.515 352.745 651.579 374.182 650.931 395.624C649.653 441.382 635.984 485.945 611.376 524.579C606.345 532.571 600.866 540.274 594.967 547.652Z" fill="url(#paint1_radial_35_8167)"/>
<g style="mix-blend-mode:multiply" opacity="0.5">
<g style="mix-blend-mode:multiply" opacity="0.5">
<g style="mix-blend-mode:multiply">
<path fill-rule="evenodd" clip-rule="evenodd" d="M611.463 524.56C609.735 525.286 608.065 526.143 606.469 527.125C604.118 528.519 601.637 529.68 599.062 530.595C595.998 532.034 593.018 533.642 590.134 535.411C583.5 538.926 577.113 543.397 570.748 547.378C563.655 551.824 556.686 556.367 549.264 560.213C545.914 561.969 542.233 563.023 538.912 564.701C535.592 566.38 532.332 568.023 528.81 569.405C520.16 572.741 511.759 576.48 502.976 579.541C487.169 585.064 470.942 588.228 454.659 591.988C446.425 593.837 438.03 594.495 429.625 595.399C420.152 596.392 410.815 598.522 401.227 599.238C393.734 600.038 386.188 600.211 378.667 599.754C374.451 599.369 370.174 599.272 365.983 598.857C360.617 598.329 355.433 596.31 350.185 595.151C332.836 591.167 316.414 584.217 299.859 577.919C283.662 571.72 266.7 567.423 250.895 560.189C247.645 558.705 244.694 556.787 241.513 555.154C238.08 553.373 234.546 551.949 231.256 549.843C224.662 545.688 217.186 543.035 210.769 538.533C206.334 535.327 203.032 531.34 199.02 527.798C193.74 523.432 188.2 519.388 182.43 515.69C176.208 511.344 170.45 506.371 165.246 500.852C162.066 494.417 159.188 487.839 156.573 481.166L156.988 481.783C159.568 485.682 161.225 490.224 164.04 493.872C167.09 497.708 170.476 501.423 173.814 505.152C178.159 510.072 183.298 514.228 189.02 517.45C192.08 519.171 195.08 521.028 198.231 522.635C201.668 524.369 204.021 527.497 207.5 529.18C212.439 531.44 216.286 535.861 220.576 539.037C227.968 544.554 237.113 547.528 245.186 551.669C254.136 556.274 263.693 559.324 272.292 564.66C277.196 567.701 281.934 568.992 287.236 571.054C291.776 572.843 295.724 572.677 300.586 572.803C309.894 573.11 319.353 573.353 328.422 575.979C337.435 578.656 346.153 582.234 354.446 586.658C361.624 590.416 369.64 592.297 377.745 592.125C381.193 591.931 384.604 591.571 388.038 591.331C392.24 591.257 396.435 590.945 400.602 590.398C405.337 589.545 410.223 589.219 414.919 588.352C420.137 587.382 425.175 585.625 430.371 584.619C438.658 582.998 447.253 585.584 455.545 583.832C457.254 583.511 458.902 582.655 460.642 582.359C462.381 582.063 463.901 582.316 465.591 581.408C467.643 580.302 472.488 577.817 473.048 575.182C474.206 569.887 456.418 571.67 453.614 571.925C449.284 572.274 445.345 573.038 441.013 572.358C438.383 572.058 435.779 571.571 433.218 570.9C429.001 569.655 425.213 566.864 421.29 564.894C410.37 559.44 400 552.943 389.419 546.899C375.108 538.685 360.095 531.074 345.117 524.113C331.097 517.599 316.829 511.627 302.884 505.02C295.446 501.539 287.943 498.141 280.6 494.499C271.588 490.097 262.209 486.447 253.356 481.785C238.875 473.974 223.916 466.608 210.744 456.659C200.417 448.847 189.975 441.365 179.851 433.277C166.218 422.386 150.494 412.083 139.681 398.203C139.537 398.031 139.408 397.849 139.292 397.657C138.876 387.286 139.105 376.899 139.977 366.555C143.114 372.649 146.957 378.356 151.427 383.556C154.711 387.291 158.064 391.403 159.396 396.225C160.096 399.409 161.321 402.456 163.022 405.239C169.486 414.987 177.383 421.009 188.149 425.413C192.182 427.05 196.223 428.627 200.274 430.144C203.292 431.241 206.602 431.577 209.497 432.828C217.646 436.455 225.624 440.756 233.659 444.63C237.482 446.471 241.362 448.559 245.316 450.133C249.794 451.874 254.606 452.735 259.171 454.073C267.923 456.631 276.276 458.738 284.306 463.165C289.326 465.978 294.915 469.533 300.627 470.725C302.462 471.13 305.171 471.794 306.373 469.873C307.883 467.506 304.564 465.815 302.787 464.833C297.594 461.983 292.624 458.686 287.133 456.271C277.471 451.96 268.273 446.679 259.682 440.511C246.615 431.42 233.378 422.058 221.457 411.474C211.983 403.079 202.753 394.257 192.802 386.458C183.169 378.915 174.537 370.672 167.858 360.414C160.301 348.851 152.33 337.426 147.012 324.65C156.013 289.483 172.449 256.643 195.214 228.336C217.947 199.905 246.518 176.665 279.004 160.181C274.753 162.767 270.651 165.608 266.301 167.896C257.781 172.218 250.243 178.243 244.157 185.596C242.007 188.656 239.644 191.561 237.085 194.289C233.615 197.584 231.416 199.737 229.485 204.313C228.086 207.678 226.206 210.507 225.293 214.109C225.018 215.242 224.958 216.417 225.115 217.572C225.036 218.874 224.857 220.167 224.578 221.441C224.076 225.372 223.576 230.752 225.145 234.5C226.268 236.914 227.625 239.212 229.198 241.361C231.008 243.903 231.709 244.901 234.749 245.931C237.265 246.689 239.67 247.773 241.905 249.153C242.927 250.172 243.835 251.298 244.613 252.513C245.833 253.875 247.321 254.861 248.522 256.31C253.408 262.236 257.986 268.252 264.065 273.007C268.839 276.736 272.855 281.243 277.649 285.073C283.411 289.675 288.971 294.404 295.256 298.228C299.518 300.807 304.439 303.153 308.476 305.991C312.514 308.829 316.359 312.474 320.331 315.562C334.178 326.271 350.92 334.252 368.33 336.852C377.658 338.188 386.775 340.713 395.458 344.367C406.674 349.03 418.052 353.89 428.822 359.594C438.85 364.852 449.479 368.878 460.477 371.586C465.365 372.744 470.344 373.48 475.358 373.784C479.899 374.141 484.349 375.202 488.84 375.369C501.948 375.863 514.867 374.487 527.885 372.989C535.295 372.167 542.767 371.396 550.223 370.897C556.367 370.498 561.287 372.067 566.734 374.599C575.39 378.666 585.984 373.749 594.581 371.027C605.426 367.607 616.301 362.425 623.801 353.535C626.917 349.891 629.63 345.923 631.892 341.697C632.971 339.852 633.799 337.872 634.352 335.809C634.524 334.42 634.831 333.051 635.268 331.72C635.762 330.683 636.465 329.744 636.924 328.813C637.383 327.883 637.614 326.752 637.95 325.976C638.906 323.942 639.938 320.907 641.559 319.118L641.649 319.005C642.85 323.233 643.89 327.536 644.889 331.806C644.313 332.627 643.664 333.395 642.949 334.098C642.016 334.904 641.053 335.432 640.128 336.227C638.78 337.424 637.62 337.796 636.432 339.341C635.152 340.81 634.05 342.424 633.149 344.15C631.151 348.621 630.817 353.984 627.656 357.862C624.367 361.736 620.356 364.936 615.845 367.285C611.611 369.683 607.477 371.722 603.059 373.737C600.171 375.092 597.16 376.169 594.066 376.952C591.097 377.548 588.18 378.373 585.338 379.417C583.155 380.334 581.022 381.364 578.948 382.502C575.18 384.548 571.798 384.492 567.615 384.909C559.066 385.697 550.022 384.64 541.271 384.964C534.197 385.091 527.155 385.988 520.273 387.637C517.155 388.517 504.946 388.353 504.502 393.054C504.32 395.134 507.534 396.976 508.821 398.004C511.8 400.337 515.24 402.015 518.913 402.932C528.889 405.458 539.339 407.351 548.882 411.216C553.173 412.959 557.353 415.388 561.817 416.493C567.25 417.816 572.763 418.78 578.322 419.382C582.676 419.91 586.258 418.98 590.514 418.134C592.928 417.651 595.315 418.211 597.752 417.95C600.613 417.624 603.093 416.572 605.967 416.609C613.058 416.623 620.111 415.57 626.888 413.486C633.043 411.662 638.211 407.364 643.194 403.677C644.56 402.798 645.829 401.778 646.982 400.636C648.302 399.095 649.569 397.411 650.846 395.818L651.051 395.562C649.77 441.338 636.091 485.916 611.463 524.56Z" fill="#C4B0B8"/>
</g>
</g>
<g style="mix-blend-mode:multiply" opacity="0.5">
<g style="mix-blend-mode:multiply">
<path fill-rule="evenodd" clip-rule="evenodd" d="M624.634 321.794C620.248 325.705 616.262 329.834 611.753 333.647C607.243 337.46 602.989 342.301 597.814 345.009C588.962 349.733 581.594 356.942 571.636 359.384C567.412 360.441 563.455 362.05 558.999 362.197C557.459 362.054 555.934 361.788 554.438 361.402C552.865 361.258 550.951 361.414 549.399 361.37C541.098 361.008 532.387 360.504 524.083 361.368C515.201 362.277 506.629 363.283 497.674 362.432C494.991 362.159 492.48 361.501 489.851 361.053C487.687 360.859 485.539 360.521 483.419 360.043C481.111 359.136 478.687 358.561 476.216 358.334C473.941 358.247 471.685 357.887 469.496 357.262C465.788 356.12 461.989 355.259 458.296 354.095C456.58 353.583 454.983 352.797 453.295 352.206C448.424 350.641 445.786 348.332 440.636 344.84C439.649 342.956 440.994 343.931 442.695 344.378C443.75 344.645 444.852 344.666 445.918 344.442C447.862 344.151 449.828 344.031 451.794 344.082C455.141 344.244 458.548 345.719 461.936 346.168C466.306 346.675 470.958 346.768 475.35 347.058C479.055 347.321 482.921 346.163 486.564 345.703C490.47 345.168 494.63 345.221 498.618 344.985C503.251 344.743 507.766 343.868 512.414 343.671C517.174 343.529 521.862 342.466 526.216 340.542C528.106 339.743 530.165 339.702 532.11 338.897C533.983 338.26 535.812 337.504 537.588 336.634C539.61 335.501 541.746 334.647 543.77 333.618C546.1 332.395 547.857 330.142 549.842 328.509C555.788 323.62 561.724 318.638 567.541 313.595C572.327 309.182 576.769 304.409 580.827 299.32C584.865 294.642 589.988 291.033 593.913 286.181C595.514 284.533 596.717 282.544 597.431 280.362C598.239 277.25 598.685 274.337 599.773 271.297C603.141 261.959 603.621 251.827 601.151 242.216C600.758 240.789 599.218 236.627 597.997 232.129C614.788 253.845 627.937 278.139 636.928 304.063C634.165 310.792 629.969 316.841 624.634 321.794Z" fill="#C4B0B8"/>
</g>
</g>
<g style="mix-blend-mode:multiply" opacity="0.5">
<g style="mix-blend-mode:multiply">
<path fill-rule="evenodd" clip-rule="evenodd" d="M566.441 275.819C563.982 278 560.917 278.686 558.28 280.523C555.276 282.606 552.432 284.907 549.769 287.41C545.748 291.224 542.718 295.782 538.764 299.701C531.155 306.969 522.388 312.922 512.821 317.318C503.374 321.753 492.429 322.834 482.066 321.988C471.342 321.174 460.744 318.623 450.36 316.059C444.458 314.578 439.241 311.759 433.483 309.907C428.675 308.325 423.765 306.997 418.928 305.492C414.092 303.988 408.801 303.806 404.211 302.078C401.363 301 398.52 299.976 395.599 298.989C390.596 297.269 385.42 296.504 380.34 295.093C373.136 293.126 366.126 290.51 359.397 287.276C352.724 284.103 347.976 278.911 342.887 273.7C338.489 269.469 334.316 265.012 330.387 260.343C323.484 251.459 313.806 244.688 305.081 237.718C298.465 232.433 290.301 226.973 287.322 218.71C286.468 216.344 285.489 213.776 285.962 211.271C286.556 208.172 288.62 205.304 290.002 202.549C292.853 196.888 290.888 189.909 290.581 183.85C290.189 175.919 293.329 168.804 297.308 162.157C300.655 156.368 304.993 151.209 310.124 146.913C333.095 138.857 357.103 134.126 381.417 132.865C372.99 136.531 365.064 141.237 356.873 145.431C344.58 151.688 332.103 159.248 323.702 170.502C320.403 174.911 316.898 179.998 316.202 185.56C315.665 189.85 316.905 194.261 318.356 198.219C320.761 204.672 322.954 211.43 326.4 217.301C330.296 223.935 334.266 230.478 338.132 237.088C340.405 240.927 342.425 244.849 345.6 248.11C349.656 251.918 353.979 255.433 358.535 258.629C374.236 270.498 394.202 274.65 412.152 281.862C417.932 284.169 423.276 287.377 429.074 289.514C432.645 290.696 436.297 291.614 440.003 292.263C449.095 294.082 458.124 297.199 467.473 297.876C476.831 298.517 486.233 297.918 495.435 296.098C502.469 294.672 507.52 291.679 513.514 287.805C525.318 280.179 534.669 271.234 544.295 261.144C548.398 256.871 553.288 254.036 557.951 250.431C561.023 248.031 563.347 244.292 562.722 240.271C561.32 232.274 556.392 224.041 551.43 217.767C548.434 213.925 545.876 209.96 542.027 206.885C538.179 203.811 534.526 200.893 530.761 197.885C526.995 194.877 524.254 191.389 520.633 188.496C516.373 185.093 511.437 183.122 506.965 180.089C502.31 176.881 497.484 173.926 492.508 171.237C486.639 168.031 480.022 166.116 473.819 163.621C461.487 158.594 448.347 155.833 435.031 155.47C431.704 155.408 428.458 154.888 425.179 154.578C422.283 154.337 420.451 155.233 417.74 156.151C412.298 157.916 407.203 160.609 402.681 164.109C399.513 166.724 396.71 169.751 394.349 173.11C390.832 177.391 386.952 181.362 382.754 184.98C376.922 190.148 364.026 194.44 366.536 204.298C366.91 205.639 367.545 206.892 368.407 207.985C369.269 209.079 370.339 209.991 371.556 210.668C375.214 212.739 379.012 214.551 382.923 216.092C393.697 220.654 405.252 225.064 415.29 231.196C418.338 233.058 420.787 235.352 424.084 236.84C426.171 237.731 428.23 238.467 430.223 239.519C434.811 241.987 440.888 242.595 446.119 242.494C448.523 242.443 450.885 241.919 453.341 241.909C456.655 241.859 459.935 242.694 463.266 242.457C468.021 242.126 472.826 241.481 477.554 240.826C487.235 239.51 496.568 235.64 505.902 233.136C511.82 231.544 518.319 229.86 522.93 225.69C526.482 222.46 523.537 216.871 521.708 213.489C519.724 209.818 516.804 206.735 513.243 204.553C508.104 201.762 501.846 201.145 496.236 199.595C483.808 196.274 472.741 189.067 459.573 189.132C454.799 189.127 453.156 191.472 449.656 193.984C447.789 195.032 445.835 195.918 443.817 196.634C440.826 197.901 440.226 198.333 438.957 201.178C437.688 204.024 435.742 207.609 437.593 210.774C439.174 213.537 443.544 215.73 446.563 216.069C448.406 216.08 450.24 216.317 452.025 216.774C453.142 217.128 456.006 217.831 456.614 218.755C457.64 220.486 455.825 220.518 454.565 220.826C453.475 221.1 452.421 221.502 451.425 222.025C450.618 222.709 449.697 223.245 448.704 223.61C444.216 224.406 438.466 222.021 434.296 220.526C430.622 219.276 427.567 218.707 424.425 216.248C420.217 212.886 424.396 211.169 426.281 207.618C428.588 203.057 425.251 197.999 428.011 193.546C430.771 189.094 435.618 185.618 440.114 183.379C442.066 182.491 444.086 181.766 446.157 181.212C449.614 180.08 453.036 180.506 456.69 180.812C467.377 181.8 477.883 186.569 487.959 190.236C498.033 193.902 507.057 200.352 517.148 203.83C524.03 206.193 530.143 210.065 536.436 213.458C542.244 216.614 545.122 222.183 543.516 228.5C541.821 235.202 540.207 242.626 534.285 246.81C526.168 252.596 517.722 258.033 508.361 261.645C496.824 266.096 484.608 269.247 472.122 266.84C463.338 265.164 455.171 261.623 446.695 258.847C440.184 256.869 433.9 254.216 427.944 250.928C418.807 245.651 407.482 244.491 397.912 240.133C384.757 234.106 371.93 227.392 359.484 220.017C354.966 217.598 350.844 214.503 347.261 210.843C345.592 209.072 343.713 207.857 342.557 205.635C341.736 204.07 340.917 202.438 340.082 200.912C337.238 195.555 335.525 189.081 340.254 184.196C344.706 179.612 350.51 176.058 355.351 171.937C358.593 169.219 361.217 166.073 364.604 163.471C367.168 161.474 369.741 159.401 372.381 157.498C374.624 155.787 377.124 154.439 379.787 153.505C384.697 152.119 389.529 149.777 394.439 148.643C396.391 148.35 398.313 147.883 400.182 147.248C401.697 146.507 403.308 145.979 404.969 145.679C406.729 145.4 408.456 144.572 410.278 144.342C413.658 144.134 417.048 144.215 420.414 144.586C428.028 144.893 435.589 145.981 442.979 147.832C450.084 149.749 456.806 152.608 463.676 155.113C469.875 157.318 476.488 158.27 482.797 160.276C489.889 162.608 496.68 165.77 503.028 169.697C515.791 177.369 528.053 185.842 539.741 195.065C554.281 206.781 574.868 214.178 583.141 232.196C585.371 236.644 585.816 241.773 584.385 246.537C582.14 254.346 578.292 261.603 573.086 267.847C570.897 270.514 568.975 273.563 566.441 275.819Z" fill="#C4B0B8"/>
</g>
</g>
</g>
<g style="mix-blend-mode:soft-light" opacity="0.63">
<g style="mix-blend-mode:soft-light" opacity="0.63">
<g style="mix-blend-mode:soft-light">
<path fill-rule="evenodd" clip-rule="evenodd" d="M290.32 158.062C289.191 161.576 288.621 164.981 287.305 168.412C286.279 170.791 285.567 173.293 285.186 175.854C284.859 178.492 283.903 181.032 283.484 183.681C283.046 186.621 282.244 189.496 281.095 192.238C280.199 194.219 278.879 196.013 277.997 198.039C276.868 200.625 275.731 203.222 274.622 205.826C273.982 207.487 273.588 209.234 273.453 211.01C273.23 212.887 272.562 215.574 273.07 217.445C274.778 223.378 281.375 226.709 286.318 229.849C290.788 232.695 295.032 236.034 299.623 238.793C302 240.286 304.239 241.99 306.311 243.883C308.324 245.659 310.22 247.563 311.989 249.581C313.499 251.36 315.197 252.801 316.766 254.527C319.02 257.002 321.088 259.664 323.466 262.003C326.176 264.539 328.813 267.336 331.654 269.706C335.712 273.067 340.3 276.04 344.082 279.787C347.264 283.2 350.623 286.446 354.144 289.51C358.888 293.3 364.75 295.674 370.439 297.589C379.917 300.779 389.226 304.643 398.752 307.837C402.337 308.821 406.001 309.492 409.703 309.843C413.011 310.329 416.121 311.397 419.453 311.683C425.597 312.425 431.557 314.263 437.047 317.109C442.502 319.781 448.321 321.682 453.775 324.269C457.438 326.017 461.633 326.806 465.021 328.854C462.517 330.798 456.559 327.472 454.132 326.644C448.536 324.719 443.129 321.799 437.405 320.327C433.661 319.376 429.802 320.186 426.026 320.474C422.486 320.679 419.516 321.457 415.994 321.155C412.511 320.889 409.123 319.903 406.041 318.261C399.178 314.716 391.709 312.221 384.766 308.816C377.824 305.411 370.983 302.153 363.566 300.307C361.504 299.806 355.698 298.015 353.774 300.035C352.238 301.656 354.858 302.704 356.083 303.682C358.716 305.787 362.697 307.938 364.345 310.957C365.411 313.254 366.697 315.444 368.183 317.495C372.072 321.858 377.087 325.071 382.68 326.784C390.103 329.107 397.184 332.927 404.038 336.548C408.788 339.045 413.738 341.062 418.536 343.479C422.143 345.442 425.634 347.612 428.991 349.977C433.996 353.25 439.085 356.439 444.322 359.36C448.519 361.684 452.884 364.514 457.563 365.606C461.476 366.472 465.461 368.24 469.489 368.29C470.559 368.302 476.891 368.069 477.173 369.506C477.742 372.523 462.66 370.132 461.553 370.04C456.522 369.484 451.564 368.398 446.761 366.802C440.509 364.958 434.997 361.938 429.16 359.28C422.45 356.196 415.951 352.891 409.247 349.861C402.544 346.832 396.223 342.946 389.165 340.358C385.677 338.982 382.089 337.869 378.434 337.027C375.037 336.336 371.816 335.111 368.41 334.497C361.065 333.129 353.171 333.143 346.171 330.483C339.991 328.29 334.089 325.384 328.583 321.828C321.478 317.027 315.528 310.741 309.474 304.776C303.34 298.577 296.838 292.752 290.004 287.333C283.624 282.405 276.282 278.697 269.757 273.973C265.26 270.718 263.018 266.399 260.222 261.738C257.236 256.597 254.765 251.175 252.846 245.548C251.1 240.553 247.91 236.188 243.681 233.001C242.699 232.417 241.668 231.921 240.599 231.518C239.538 230.794 238.76 229.726 238.398 228.494C236.086 223.799 234.662 217.976 235.884 212.683C237.389 207.135 239.717 201.842 242.788 196.979C244.646 194.263 246.676 191.668 248.866 189.211C251.593 185.81 253.661 181.968 256.435 178.572C260.768 173.169 264.748 166.943 270.649 163.079C276.19 159.432 283.155 157.462 289.477 155.703C293.072 154.715 296.477 153.29 300.111 152.401C299.749 154.135 296.363 155.306 295.033 156.333C293.194 157.847 289.811 160.656 290.32 158.062Z" fill="#C4B0B8"/>
</g>
</g>
<g style="mix-blend-mode:soft-light" opacity="0.63">
<g style="mix-blend-mode:soft-light">
<path fill-rule="evenodd" clip-rule="evenodd" d="M520.74 390.522C517.498 391.303 512.511 391.65 509.902 393.998C507.293 396.346 510.616 398.242 512.761 399.484C517.395 402.125 522.021 405.196 527.233 406.697C530.314 407.59 533.537 407.991 536.627 408.875C539.191 409.593 541.469 410.941 544.025 411.668C550.124 413.388 555.847 416.293 562.028 417.825C567.581 418.995 573.288 419.238 578.921 418.546C582.849 418.195 586.315 418.251 590.047 416.733C592.816 415.574 595.719 414.691 598.375 413.273C601.824 411.297 604.992 408.869 607.795 406.052C609.33 404.59 610.681 402.949 611.819 401.161C614.319 396.991 610.813 393.617 607.259 391.501C602.882 388.898 597.875 388.657 592.944 388.829C588.012 389.002 583.549 390.021 578.844 389.363C573.622 388.696 568.476 388.125 563.258 387.748C560.521 387.442 557.759 387.422 555.019 387.687C552.697 387.973 550.341 388.384 547.997 388.465C545.621 388.494 543.245 388.338 540.893 387.999C538.965 387.773 536.876 387.957 535.007 387.593C532.586 387.078 530.1 386.939 527.637 387.184C525.952 387.249 524.286 387.573 522.699 388.143C519.988 389.314 518.193 391.993 520.74 390.522Z" fill="#C4B0B8"/>
</g>
</g>
<g style="mix-blend-mode:soft-light" opacity="0.63">
<g style="mix-blend-mode:soft-light">
<path fill-rule="evenodd" clip-rule="evenodd" d="M610.128 372.523C612.503 370.949 613.591 370.52 616.361 371.064C618.086 371.398 619.061 371.907 618.856 373.952C618.357 377.816 614.677 380.066 611.639 381.751C609.432 382.988 605.005 382.467 605.502 379.09C605.849 376.806 609.569 372.229 612.249 373.307L610.128 372.523Z" fill="#C4B0B8"/>
</g>
</g>
<g style="mix-blend-mode:soft-light" opacity="0.63">
<g style="mix-blend-mode:soft-light">
<path fill-rule="evenodd" clip-rule="evenodd" d="M380.997 316.283C383.551 315.204 383.952 315.187 386.325 315.954C387.938 316.301 389.481 316.918 390.889 317.779C392.585 318.883 395.004 319.383 396.122 321.252C397.871 324.082 395.686 325.859 392.809 326.055C391.58 326.24 390.324 326.067 389.19 325.558C387.641 324.87 386.176 324.005 384.826 322.981C382.583 321.189 380.636 319.786 379.736 316.909C379.849 316.664 380.045 316.467 380.291 316.354C380.536 316.242 380.814 316.219 381.074 316.293L380.997 316.283Z" fill="#C4B0B8"/>
</g>
</g>
<g style="mix-blend-mode:soft-light" opacity="0.63">
<g style="mix-blend-mode:soft-light">
<path fill-rule="evenodd" clip-rule="evenodd" d="M174.605 382.144C179.215 389.475 185.011 395.99 191.758 401.426C199.585 408.052 207.794 414.216 216.341 419.885C222.054 423.623 227.216 427.966 233.106 431.441C235.965 433.117 238.314 435.179 240.975 437.102C242.495 438.216 244.739 438.576 245.817 440.179C250.025 446.321 237.574 441.617 236.007 441.275C230.386 440.054 225.338 437.15 220.07 434.982C218.045 434.139 215.988 433.272 213.928 432.536C211.912 432.011 209.932 431.359 208 430.582C200.3 426.773 193.243 422.164 185.58 418.351C182.604 417.029 179.92 415.131 177.684 412.768C175.457 410.197 174.279 406.676 172.884 403.658C171.005 400.05 169.433 396.292 168.186 392.421C167.556 390.421 167.106 388.37 166.84 386.29C166.875 385.218 167.142 384.167 167.624 383.208C168.316 380.997 168.891 380.343 171.331 380.269C172.238 380.215 173.143 380.396 173.96 380.794C174.776 381.193 175.475 381.795 175.99 382.543C175.869 382.715 175.776 382.895 174.605 382.144Z" fill="#C4B0B8"/>
</g>
</g>
<g style="mix-blend-mode:soft-light" opacity="0.63">
<g style="mix-blend-mode:soft-light">
<path fill-rule="evenodd" clip-rule="evenodd" d="M291.522 583.272C287.452 581.543 283.136 580.461 278.731 580.065C276.767 579.945 274.013 580.222 274.959 582.832C276.24 586.351 280.955 588.785 283.84 590.702C288.829 593.997 294.122 596.827 299.219 599.903C302.704 601.997 306.056 604.134 309.665 605.99C314.426 608.324 319.328 610.36 324.342 612.086C327.978 613.472 331.772 614.397 335.639 614.841C339.611 615.499 343.623 615.889 347.649 616.008C352.999 615.884 358.899 617.159 363.569 613.86C367.456 611.118 358.709 606.238 356.985 605.231C350.6 601.47 343.847 598.374 336.829 595.988C333.806 594.938 330.774 593.561 327.641 592.711C323.459 591.61 319.204 590.875 315.083 589.571C313.122 588.965 311.065 588.856 309.124 588.182C307.402 587.614 305.71 586.988 303.964 586.469C302.218 585.952 300.008 585.382 298.118 584.665C293.792 583.114 289.627 581.319 291.522 583.272Z" fill="#C4B0B8"/>
</g>
</g>
<g style="mix-blend-mode:soft-light" opacity="0.63">
<g style="mix-blend-mode:soft-light">
<path fill-rule="evenodd" clip-rule="evenodd" d="M374.003 606.585C376.13 605.133 378.073 605.235 380.615 604.991C382.591 604.8 384.582 604.486 386.378 605.55C387.712 606.329 388.501 609.218 386.881 610.165C385.831 610.561 384.735 610.818 383.618 610.929C382.411 611.355 381.118 611.479 379.851 611.291C377.492 610.702 375.436 609.262 374.076 607.251L374.003 606.585Z" fill="#C4B0B8"/>
</g>
</g>
<g style="mix-blend-mode:soft-light" opacity="0.63">
<g style="mix-blend-mode:soft-light">
<path fill-rule="evenodd" clip-rule="evenodd" d="M431.514 575.886C429.511 575.618 427.537 575.169 425.616 574.546C424.29 573.908 422.999 573.199 421.752 572.419C417.917 570.233 414.209 567.658 410.5 565.251C405.76 562.173 400.92 559.284 396.238 556.133C388.01 550.521 379.315 544.671 369.985 541.127C362.147 538.129 354.045 535.871 345.784 534.383C338.559 532.938 331.218 532.151 323.852 532.031C321.367 532.101 318.89 532.328 316.434 532.712C314.769 532.839 313.138 533.244 311.607 533.912C309.328 535.091 309.064 536.936 309.845 539.246C311.068 542.836 313.988 545.404 316.535 548.079C320.316 552.06 324.116 555.973 327.818 560.008C331.618 564.219 335.644 568.222 339.876 572.001C344.249 575.832 349.047 579.512 354.686 581.321C358.628 582.673 362.673 583.712 366.78 584.426C370.836 585.053 374.863 585.693 378.956 585.979C381.835 586.39 384.743 586.566 387.65 586.503C388.933 586.399 390.152 586.394 391.424 586.366C393.431 586.284 395.303 585.74 397.285 585.688C401.761 585.59 406.211 584.984 410.551 583.881C413.89 583.044 417.324 582.803 420.643 581.949C422.61 581.431 424.134 581.553 425.951 580.443C427.98 579.149 429.847 577.62 431.514 575.886Z" fill="#C4B0B8"/>
</g>
</g>
<g style="mix-blend-mode:soft-light" opacity="0.63">
<g style="mix-blend-mode:soft-light">
<path fill-rule="evenodd" clip-rule="evenodd" d="M445.885 576.968C447.657 576.227 449.559 575.843 451.48 575.842C453.125 575.707 455.604 575.142 457.229 575.766C457.656 575.891 458.04 576.128 458.34 576.455C458.641 576.781 458.846 577.183 458.934 577.618C458.95 578.069 458.868 578.518 458.696 578.935C458.524 579.353 458.266 579.729 457.938 580.041C456.418 581.388 453.924 581.383 452.083 581.026C449.801 580.568 449.192 579.39 447.683 577.797L445.885 576.968Z" fill="#C4B0B8"/>
</g>
</g>
<g style="mix-blend-mode:soft-light" opacity="0.63">
<g style="mix-blend-mode:soft-light">
<path fill-rule="evenodd" clip-rule="evenodd" d="M549.209 568.96C547.831 568.935 546.456 569.069 545.109 569.358C542.886 570.026 540.745 570.927 538.456 571.34C536.035 571.897 533.667 572.659 531.377 573.622C528.466 574.768 525.439 575.618 522.602 576.84C516.431 579.526 510.565 582.863 504.553 585.878C501.541 587.381 498.623 589.061 495.7 590.602C492.445 592.156 489.411 594.135 486.677 596.487C484.761 598.225 481.503 601.235 483.9 603.739C486.871 606.854 492.522 606.667 496.482 606.697C506.921 606.671 517.282 604.893 527.131 601.438C536.921 598.069 547.681 593.218 553.264 584.046C555.885 579.968 559.012 576.238 562.572 572.944C566.273 569.38 570.685 566.384 573.986 562.415C576.276 559.56 579.041 557.185 580.67 553.869C581.322 552.881 581.571 551.682 581.367 550.516C580.972 549.494 580.112 549.514 579.04 549.483C575.874 549.335 572.72 549.97 569.859 551.333C566.352 553.013 563.916 555.904 560.556 557.82C559.448 558.57 558.301 559.263 557.12 559.895C556.091 560.336 554.994 560.672 553.946 561.117C552.183 562.02 550.534 563.13 549.034 564.422C548.037 565.159 547.194 565.917 546.186 566.646C545.396 567.211 544.451 567.737 543.714 568.362C542.977 568.986 542.757 569.787 549.209 568.96Z" fill="#C4B0B8"/>
</g>
</g>
<g style="mix-blend-mode:soft-light" opacity="0.63">
<g style="mix-blend-mode:soft-light">
<path fill-rule="evenodd" clip-rule="evenodd" d="M478.841 593.639C477.646 593.762 470.472 594.435 471.237 596.681C471.447 597.304 472.863 597.98 473.451 598.13C474.577 598.395 475.739 598.475 476.891 598.367C477.547 598.401 478.2 598.249 478.775 597.931C479.35 597.613 479.823 597.139 480.141 596.565C481.55 594.808 480.398 593.972 478.439 593.384L478.841 593.639Z" fill="#C4B0B8"/>
</g>
</g>
<g style="mix-blend-mode:soft-light" opacity="0.63">
<g style="mix-blend-mode:soft-light">
<path fill-rule="evenodd" clip-rule="evenodd" d="M481.067 610.614C482.853 610.154 483.495 609.858 485.088 610.356C486.389 610.546 487.667 610.873 488.9 611.328C490.35 612.15 490.561 613.109 489.626 614.486C488.04 616.842 483.023 617.519 480.538 618.113C477.421 618.967 474.211 619.435 470.979 619.509C466.444 619.46 467.235 614.327 470.367 612.549C472.263 611.468 474.018 609.804 476.135 609.186C479.449 608.211 481.745 610.061 484.578 611.582L481.067 610.614Z" fill="#C4B0B8"/>
</g>
</g>
<g style="mix-blend-mode:soft-light" opacity="0.63">
<g style="mix-blend-mode:soft-light">
<path fill-rule="evenodd" clip-rule="evenodd" d="M458.257 198.274C456.569 197.971 454.836 198.028 453.172 198.442C451.508 198.855 449.95 199.616 448.602 200.673C447.197 201.624 444.545 203.921 444.732 205.857C445.044 209.173 451.539 211.008 453.842 211.736C458.323 213.158 463.376 213.993 467.622 216.002C475.605 219.835 483.506 225.118 492.618 225.606C497.854 225.766 503.078 225.026 508.063 223.417C511.23 222.458 514.538 222.269 516.932 219.683C521.762 214.44 514.3 207.872 509.964 205.807C500.783 201.292 491.135 197.795 481.19 195.377C475.284 194.029 467.903 192.413 461.834 193.834C460.219 194.292 458.676 194.971 457.247 195.849C456.176 196.426 453.335 198.286 458.257 198.274Z" fill="#C4B0B8"/>
</g>
</g>
<g style="mix-blend-mode:soft-light" opacity="0.63">
<g style="mix-blend-mode:soft-light">
<path fill-rule="evenodd" clip-rule="evenodd" d="M460.259 225.416C460.991 222.63 460.678 222.094 463.198 222.067C465.273 222.108 467.338 222.353 469.364 222.797C471.785 223.319 474.043 224.418 475.946 225.999C479.465 229.568 474.186 232.53 471.294 233.675C469.479 234.399 467.944 235.178 466.12 234.884C463.963 234.542 462.619 234.177 461.42 232.325C460.621 230.967 460.107 229.461 459.907 227.898C459.717 226.786 459.041 224.493 460.015 223.553L460.573 223.846L460.259 225.416Z" fill="#C4B0B8"/>
</g>
</g>
<g style="mix-blend-mode:soft-light" opacity="0.63">
<g style="mix-blend-mode:soft-light">
<path fill-rule="evenodd" clip-rule="evenodd" d="M394.599 251.43C396.166 249.665 396.341 249.131 398.424 248.891C401.533 248.508 405.114 249.179 408.17 249.496C415.106 250.255 421.917 251.911 428.427 254.421C434.231 256.629 439.842 259.314 445.202 262.446C449.228 264.751 453.561 266.274 457.565 268.648C463.722 272.318 472.672 275.071 472.898 283.862C473.048 290.959 461.948 291.328 456.946 291.125C452.732 290.914 448.611 289.821 444.849 287.915C440.237 285.815 435.528 283.941 430.916 281.841C422.368 277.912 413.039 275.987 404.067 273.219C397.9 271.291 394.685 268.437 392.696 262.264C391.662 258.859 390.984 251.728 394.599 251.43Z" fill="#C4B0B8"/>
</g>
</g>
<g style="mix-blend-mode:soft-light" opacity="0.63">
<g style="mix-blend-mode:soft-light">
<path fill-rule="evenodd" clip-rule="evenodd" d="M484.646 271.367C482.353 272.333 477.545 273.614 479.661 277.058C480.862 279.013 483.163 278.626 485.152 278.63C487.141 278.635 489.814 278.984 492 278.152C492.531 278.033 493.025 277.785 493.438 277.431C493.851 277.077 494.172 276.628 494.371 276.122C494.57 275.616 494.642 275.069 494.581 274.529C494.52 273.989 494.327 273.473 494.019 273.024C491.776 268.687 487.442 270.702 483.594 271.437L484.646 271.367Z" fill="#C4B0B8"/>
</g>
</g>
<g style="mix-blend-mode:soft-light" opacity="0.63">
<g style="mix-blend-mode:soft-light">
<path fill-rule="evenodd" clip-rule="evenodd" d="M566.46 281.074C560.804 281.813 555.951 284.054 552.807 289.007C549.662 293.96 551.951 297.188 557.166 298.304C558.656 298.742 560.181 299.053 561.723 299.231C563.394 299.252 565.234 298.261 566.857 297.838C570.404 297.044 573.562 295.035 575.781 292.161C578.03 289.357 580.765 286.62 582.188 283.309C582.979 281.48 583.977 278.974 583.4 276.997C582.661 274.721 580.372 275.134 578.488 275.146C576.83 274.952 575.148 275.1 573.549 275.581C570.446 276.919 567.522 278.636 564.842 280.692L566.46 281.074Z" fill="#C4B0B8"/>
</g>
</g>
<g style="mix-blend-mode:soft-light" opacity="0.63">
<g style="mix-blend-mode:soft-light">
<path fill-rule="evenodd" clip-rule="evenodd" d="M426.796 326.417C428.627 324.407 428.68 324.215 431.153 324.268C433.023 324.23 434.895 324.308 436.758 324.499C440.149 325.106 443.385 326.379 446.279 328.245C448.607 329.666 450.468 331.738 451.628 334.204C452.288 335.844 451.41 337.401 449.967 338.591C447.939 340.257 444.922 339.936 442.482 339.926C440.043 339.915 436.716 339.853 434.471 338.801C431.658 337.67 429.178 335.845 427.262 333.497C426.16 332.01 423.676 329.065 425.297 327.107L426.796 326.417Z" fill="#C4B0B8"/>
</g>
</g>
<g style="mix-blend-mode:soft-light" opacity="0.63">
<g style="mix-blend-mode:soft-light">
<path fill-rule="evenodd" clip-rule="evenodd" d="M469.702 328.765C472.619 327.927 474.86 326.902 477.961 327.307C479.311 327.475 482.944 327.597 484.107 328.526C484.503 328.989 484.755 329.558 484.829 330.163C484.902 330.767 484.795 331.38 484.522 331.924C483.863 332.999 481.86 333.539 480.692 333.921C478.109 334.742 475.347 334.825 472.72 334.158C471.499 333.918 470.413 333.23 469.674 332.231C468.876 331.122 469.272 329.87 468.686 328.897L469.702 328.765Z" fill="#C4B0B8"/>
</g>
</g>
<g style="mix-blend-mode:soft-light" opacity="0.63">
<g style="mix-blend-mode:soft-light">
<path fill-rule="evenodd" clip-rule="evenodd" d="M427.054 159.662C422.142 160.188 417.611 161.27 413.612 164.446C412.954 164.838 412.427 165.418 412.103 166.111C411.779 166.805 411.671 167.58 411.793 168.335C412.215 170.779 414.627 171.559 416.794 172.33C422.84 174.514 429.621 175.28 435.936 175.825C441.716 176.364 447.348 179.717 453.15 178.419C456.288 177.725 459.665 176.883 460.228 173.086C460.683 169.826 458.096 166.209 455.773 164.286C452.307 161.589 448.217 159.805 443.879 159.099C438.289 158.186 432.572 158.377 427.054 159.662Z" fill="#C4B0B8"/>
</g>
</g>
<g style="mix-blend-mode:soft-light" opacity="0.63">
<g style="mix-blend-mode:soft-light">
<path fill-rule="evenodd" clip-rule="evenodd" d="M420.815 135.523C426.907 138.704 432.319 141.258 439.158 142.12C440.528 142.305 441.669 142.778 442.957 142.981C444.246 143.185 444.859 142.714 446.012 142.624C447.273 140.126 440.471 136.798 438.69 136.303C436.328 135.629 433.706 135.237 431.295 134.726C430.034 134.396 428.749 134.169 427.45 134.048C424.71 133.949 421.91 135.336 419.349 136.172L420.815 135.523Z" fill="#C4B0B8"/>
</g>
</g>
</g>
<g style="mix-blend-mode:multiply" opacity="0.47">
<g style="mix-blend-mode:multiply" opacity="0.47">
<g style="mix-blend-mode:multiply">
<path fill-rule="evenodd" clip-rule="evenodd" d="M490.657 383.577C488.382 383.318 486.122 382.931 483.89 382.417C480.38 381.383 476.754 380.98 473.224 380.015C469.067 378.884 465.025 377.104 460.972 375.653C455.31 373.518 449.433 372.005 443.443 371.138C437.317 370.356 430.454 370.873 424.852 373.544C421.63 375.099 418.409 378.104 417.846 381.817C417.416 384.11 417.679 386.479 418.601 388.622C420.335 391.996 423.586 393.329 426.814 394.863C430.851 396.86 435.124 398.343 439.531 399.275C441.908 399.742 444.319 399.999 446.704 400.455C449.09 400.912 451.693 401.811 454.137 402.533C456.036 403.09 457.909 403.744 459.751 404.457C462.039 405.3 464.454 405.747 466.893 405.781C471.605 406.027 476.315 405.269 480.712 403.556C486.302 401.281 490.856 398.044 493.755 392.808C495.996 388.75 494.772 384.909 490.657 383.577Z" fill="#C4B0B8"/>
</g>
</g>
<g style="mix-blend-mode:multiply" opacity="0.47">
<g style="mix-blend-mode:multiply">
<path fill-rule="evenodd" clip-rule="evenodd" d="M419.656 368.747C419.723 366.558 418.956 366.166 417.236 364.943C415.854 364.063 414.414 363.279 412.925 362.594C405.712 358.957 398.889 354.584 391.496 351.256C387.5 349.288 383.275 347.825 378.915 346.903C374.494 346.102 370.079 345.018 365.585 344.412C355.221 343.178 345.14 340.216 335.758 335.652C329.964 332.708 324.17 329.766 318.438 326.703C314.99 324.858 311.565 322.897 308.076 321.122C304.588 319.346 300.924 317.852 297.384 316.119C291.126 312.919 284.644 310.175 277.989 307.907C271.141 305.689 264.306 303.245 257.002 303.934C253.246 304.302 248.158 305.109 245.664 308.241C244.008 310.532 243.01 313.232 242.779 316.048C241.441 326.138 246.117 336.496 250.198 345.469C255.854 357.909 266.68 367.586 276.139 377.115C288.573 389.453 302.885 399.748 318.544 407.62C325.543 411.205 332.56 414.856 339.506 418.55C347.886 423.004 356.029 427.924 364.512 432.207C371.504 435.719 378.643 439.131 385.886 442.119C389.831 443.81 393.886 445.231 398.024 446.371C401.731 447.225 405.484 447.865 409.265 448.289C412.355 448.823 415.477 449.149 418.61 449.266C421.37 449.156 424.108 448.724 426.767 447.979C431.115 446.935 434.932 444.996 439.037 443.371C441.849 442.161 444.725 441.105 447.651 440.207C450.565 439.417 453.634 438.936 456.597 438.336C462.822 437.057 469.348 436.876 475.483 435.288C479.057 434.369 483.067 432.82 485.636 430.102C487.389 428.251 489.032 426.225 487.678 423.66C486.275 421.251 484.258 419.256 481.832 417.877C479.342 416.577 476.746 415.49 474.072 414.629C469.583 412.762 464.925 411.331 460.16 410.357C448.04 408.125 435.173 407.098 424.002 401.494C419.385 399.188 415.098 396.471 412.564 391.885C410.593 388.53 409.023 384.956 407.884 381.237C406.494 376.233 409.751 374.215 413.794 372.12C415.564 371.175 419.851 369.492 419.656 368.747Z" fill="#C4B0B8"/>
</g>
</g>
<g style="mix-blend-mode:multiply" opacity="0.47">
<g style="mix-blend-mode:multiply">
<path fill-rule="evenodd" clip-rule="evenodd" d="M638.16 470.931C635.358 474.375 632.307 477.609 629.033 480.61C627.59 481.967 626.088 483.313 624.649 484.623C622.684 486.423 620.257 487.45 618.151 489.086C614.379 492.022 610.131 493.784 605.915 495.927C601.698 498.069 597.721 500.924 593.389 503.126C581.29 509.502 570.438 517.835 558.416 524.325C552.463 527.539 546.563 531.066 540.506 534.029C535.014 536.669 529.289 538.819 523.767 541.35C521.696 542.291 517.165 543.456 517.498 546.452C517.771 548.827 521.16 549.546 523.16 549.914C531.153 551.396 539.205 546.218 546.63 544.01C550.388 542.901 554.589 543.156 558.403 542.126C563.382 540.778 569.306 539.158 573.81 536.74C583.148 531.747 591.453 525.474 600.482 519.981C607.949 515.447 613.273 509.523 618.66 502.806C620.916 499.991 623.5 497.422 624.805 494.049C626.057 490.887 628.809 486.193 638.16 470.931Z" fill="#C4B0B8"/>
</g>
</g>
<g style="mix-blend-mode:multiply" opacity="0.47">
<g style="mix-blend-mode:multiply">
<path fill-rule="evenodd" clip-rule="evenodd" d="M620.042 472.271C615.856 472.65 606.548 474.365 605.878 479.914C605.496 482.979 609.904 485.017 612.601 484.307C614.914 483.695 616.688 480.999 618.096 479.243C618.871 478.277 620.351 477.084 620.732 475.956C621.113 474.829 620.321 473.942 620.834 472.904L620.042 472.271Z" fill="#C4B0B8"/>
</g>
</g>
<g style="mix-blend-mode:multiply" opacity="0.47">
<g style="mix-blend-mode:multiply">
<path fill-rule="evenodd" clip-rule="evenodd" d="M488.49 543.592C484.029 542.965 479.531 542.631 475.026 542.594C470.951 542.26 466.913 541.567 462.961 540.524C452.797 538.139 443.02 534.335 433.922 529.224C422.19 522.802 410.517 515.719 397.871 511.026C388.276 507.457 378.637 504.088 368.965 500.759C359.856 497.595 350.346 492.949 340.626 492.144C338.25 491.93 334.85 491.895 333.725 494.435C331.925 498.49 338.701 504.123 341.068 506.182C348.209 512.392 355.947 518.068 363.345 523.978C366.895 526.814 370.611 529.463 373.871 532.64C377.927 536.597 382.367 540.144 387.124 543.228C393.065 547.164 398.747 551.889 405.461 554.505C418.395 559.427 431.735 563.696 444.964 567.81C456.856 571.462 475.872 574.568 484.116 562.666C487.69 557.515 490.135 548.278 488.49 543.592Z" fill="#C4B0B8"/>
</g>
</g>
<g style="mix-blend-mode:multiply" opacity="0.47">
<g style="mix-blend-mode:multiply">
<path fill-rule="evenodd" clip-rule="evenodd" d="M496.234 564.351C497.202 560.069 497.452 558.937 501.36 557.391C503.838 556.405 509.058 556.21 511.371 558.041C515.969 561.714 511.896 567.089 508.306 569.461C505.16 571.532 500.598 574.864 497.138 572.337C496.549 571.997 496.045 571.528 495.662 570.966C495.281 570.404 495.03 569.763 494.931 569.09C494.483 567.418 495.032 563.66 494.025 562.536L496.234 564.351Z" fill="#C4B0B8"/>
</g>
</g>
<g style="mix-blend-mode:multiply" opacity="0.47">
<g style="mix-blend-mode:multiply">
<path fill-rule="evenodd" clip-rule="evenodd" d="M165.232 314.505C161.598 317.333 158.54 320.114 157.554 324.838C156.163 331.394 158.856 338.687 162.43 344.019C164.738 347.302 167.467 350.269 170.546 352.845C173.923 355.813 176.984 359.153 180.444 362.017C185.644 366.278 190.554 370.88 195.139 375.795C197.692 378.527 199.816 381.604 202.417 384.255C204.466 386.286 206.4 388.427 208.211 390.671C212.03 395.508 216.677 399.271 220.883 403.709C225.431 408.308 230.603 412.247 236.248 415.411C241.098 418.224 246.149 421.315 251.56 418.778C255.811 416.781 256.044 414.069 254.96 409.528C253.996 405.488 250.387 401.189 248.173 397.803C244.793 392.608 241.352 387.551 237.577 382.596C232.269 375.743 227.808 368.338 222.836 361.213C212.615 346.593 204.182 330.857 191.202 318.414C185.837 313.251 179.034 307.715 171.557 306.092C169.089 305.646 166.541 306.135 164.414 307.464C161.029 309.327 161.075 312.111 165.232 314.505Z" fill="#C4B0B8"/>
</g>
</g>
<g style="mix-blend-mode:multiply" opacity="0.47">
<g style="mix-blend-mode:multiply">
<path fill-rule="evenodd" clip-rule="evenodd" d="M184.061 289.415C182.872 292.477 182.108 293.114 183.82 295.61C184.793 297.373 186.272 298.805 188.065 299.725C190.423 300.7 193.836 301.117 195.689 299.311C197.755 297.304 197.105 294.073 196.066 291.642C193.979 286.772 190.913 284.575 185.848 287.186L184.061 289.415Z" fill="#C4B0B8"/>
</g>
</g>
<g style="mix-blend-mode:multiply" opacity="0.47">
<g style="mix-blend-mode:multiply">
<path fill-rule="evenodd" clip-rule="evenodd" d="M472.212 250.791C473.188 249.39 474.526 248.282 476.085 247.582C478.144 246.508 480.279 245.589 482.475 244.835C484.009 244.375 485.375 243.596 486.901 243.061C489.058 242.308 491.129 241.704 493.219 240.761C495.978 239.708 498.844 238.957 501.766 238.523C503.68 238.184 505.549 237.631 507.34 236.875C508.816 236.234 510.393 236.079 511.868 235.438C513.738 234.707 515.539 233.533 517.427 232.716C519.393 231.772 521.415 230.95 523.483 230.257C524.951 229.641 526.507 229.263 528.094 229.138C529.32 228.996 530.557 228.968 531.789 229.057C534.205 229.706 534.626 231.053 534.226 233.447C533.325 237.507 531.391 241.266 528.611 244.364C525.775 247.613 522.49 250.441 518.854 252.764C516.201 254.278 513.412 255.542 510.525 256.541C505.245 258.643 499.763 260.111 494.302 261.68C491.076 262.609 487.108 262.336 483.706 262.264C481.602 262.247 479.519 261.85 477.556 261.093C476.441 260.674 474.72 260.294 473.91 259.326C473.234 258.33 472.631 257.287 472.11 256.203C470.604 253.703 471.049 251.042 472.212 250.791Z" fill="#C4B0B8"/>
</g>
</g>
<g style="mix-blend-mode:multiply" opacity="0.47">
<g style="mix-blend-mode:multiply">
<path fill-rule="evenodd" clip-rule="evenodd" d="M461.662 247.226C459.856 246.845 458.146 246.22 456.472 247.193C456.013 247.449 455.116 248.063 455.061 248.677C454.896 250.988 460.033 251.824 461.478 251.664C462.923 251.504 464.987 250.741 465.064 249.066C465.057 248.711 464.979 248.359 464.832 248.034C464.686 247.709 464.476 247.417 464.214 247.175C463.951 246.934 463.641 246.749 463.305 246.63C462.968 246.511 462.611 246.462 462.255 246.486L461.662 247.226Z" fill="#C4B0B8"/>
</g>
</g>
<g style="mix-blend-mode:multiply" opacity="0.47">
<g style="mix-blend-mode:multiply">
<path fill-rule="evenodd" clip-rule="evenodd" d="M569.921 246.735C568.755 246.42 567.544 246.314 566.341 246.42C565.55 246.756 564.804 247.191 564.122 247.714C561.366 249.365 558.825 251.347 556.554 253.616C554.346 255.864 550.806 260.13 552.86 263.422C556.85 269.812 568.18 272.291 573.616 266.438C576.706 263.11 577.419 258.286 577.509 253.943C577.646 251.703 577.497 249.455 577.067 247.253C576.896 246.515 576.581 245.818 576.139 245.202C575.697 244.586 575.138 244.063 574.493 243.664C572.256 242.518 569.263 243.261 569.921 246.735Z" fill="#C4B0B8"/>
</g>
</g>
<g style="mix-blend-mode:multiply" opacity="0.47">
<g style="mix-blend-mode:multiply">
<path fill-rule="evenodd" clip-rule="evenodd" d="M544.42 276.239C545.392 275.027 545.631 274.729 547.068 274.58C548.031 274.422 549.015 274.452 549.966 274.67C551.629 275.291 551.7 276.949 550.765 278.241C550.059 279.227 548.56 281.181 547.179 281.156C545.798 281.132 542.818 277.774 544.093 276.585L544.42 276.239Z" fill="#C4B0B8"/>
</g>
</g>
<g style="mix-blend-mode:multiply" opacity="0.47">
<g style="mix-blend-mode:multiply">
<path fill-rule="evenodd" clip-rule="evenodd" d="M605.137 283.376C602.718 285.235 600.89 287.684 598.553 289.693C594.741 292.999 591.174 296.575 587.878 300.393C586.159 302.39 584.641 304.43 582.916 306.372C580.658 308.629 578.576 311.057 576.689 313.631C574.44 317.109 572.09 320.776 572.171 325.053C572.228 328.098 574.892 329.132 577.491 329.995C579.714 330.495 581.989 330.739 584.267 330.723C585.98 330.886 587.705 330.905 589.421 330.779C597.15 330.212 604.774 328.872 611.323 324.346C616.077 321.049 621.287 317.14 623.803 311.836C625.519 308.528 626.369 304.841 626.271 301.118C626.085 298.32 625.371 295.582 624.166 293.05C623.23 290.87 621.518 289.384 620.109 287.585C618.912 286.093 617.548 284.744 616.044 283.562C614.657 282.464 613.169 281.501 611.599 280.685C608.251 278.904 604.433 282.19 605.137 283.376Z" fill="#C4B0B8"/>
</g>
</g>
<g style="mix-blend-mode:multiply" opacity="0.47">
<g style="mix-blend-mode:multiply">
<path fill-rule="evenodd" clip-rule="evenodd" d="M570.939 335.133C572.747 333.932 575.244 333.197 576.439 335.6C576.87 336.447 576.954 337.429 576.671 338.336C576.388 339.243 575.761 340.004 574.924 340.457C574.255 340.748 573.504 340.801 572.8 340.606C572.095 340.412 571.479 339.982 571.055 339.388C570.576 338.515 570.347 337.527 570.391 336.533C570.439 335.104 571.544 334.842 572.483 333.923L570.939 335.133Z" fill="#C4B0B8"/>
</g>
</g>
<g style="mix-blend-mode:multiply" opacity="0.47">
<g style="mix-blend-mode:multiply">
<path fill-rule="evenodd" clip-rule="evenodd" d="M544.341 378.956C542.759 377.92 541.063 377.068 539.287 376.418C538.891 376.642 538.462 376.8 538.016 376.886C537.405 377.039 536.108 376.845 535.809 377.534C537.048 379.82 540.736 380.694 543.062 381.12C544.252 381.388 545.472 381.501 546.69 381.457C547.482 381.42 548.266 381.307 549.036 381.122C550.497 380.52 550.354 379.479 549.244 378.609C548.135 377.74 544.756 376.439 543.557 377.723L544.341 378.956Z" fill="#C4B0B8"/>
</g>
</g>
<g style="mix-blend-mode:multiply" opacity="0.47">
<g style="mix-blend-mode:multiply">
<path fill-rule="evenodd" clip-rule="evenodd" d="M611.052 421.922C610.081 423.213 608.792 424.232 607.311 424.883C605.724 425.789 603.723 426.768 602.774 428.437C600.479 432.35 605.885 435.523 608.609 437.177C611.815 439.115 615.092 440.67 618.91 440.351C621.568 440.304 624.104 439.232 625.986 437.358C629.482 434.05 635.388 428.454 629.837 424.137C627.428 422.464 624.589 421.519 621.657 421.412C619.679 421.293 617.694 421.487 615.777 421.989C613.306 422.459 610.899 422.576 611.052 421.922Z" fill="#C4B0B8"/>
</g>
</g>
<g style="mix-blend-mode:multiply" opacity="0.47">
<g style="mix-blend-mode:multiply">
<path fill-rule="evenodd" clip-rule="evenodd" d="M410.735 592.695C416.508 588.781 422.561 586.369 429.689 587.226C431.351 587.425 433.015 587.288 433.79 589.037C434.419 590.483 433.2 591.583 431.996 592.39C430.002 593.536 427.826 594.335 425.563 594.749C423.439 595.115 421.297 595.362 419.147 595.489C417.822 595.696 416.467 595.558 415.211 595.092C413.846 594.076 412.337 593.269 410.735 592.695Z" fill="#C4B0B8"/>
</g>
</g>
<g style="mix-blend-mode:multiply" opacity="0.47">
<g style="mix-blend-mode:multiply">
<path fill-rule="evenodd" clip-rule="evenodd" d="M216.872 447.609C218.563 445.691 220.465 445.676 223.093 445.618C228.784 445.706 234.404 446.877 239.652 449.072C244.21 450.842 249.194 453.51 252.138 457.564C253.447 459.384 254.905 461.881 254.242 464.182C253.087 468.147 246.359 469.969 242.665 469.714C238.023 469.376 233.18 466.553 228.922 464.853C224.961 463.253 221.375 460.852 218.387 457.803C217.25 456.782 216.246 455.623 215.397 454.353C214.531 453.224 213.725 452.051 212.982 450.839C212.452 449.606 211.866 447.874 212.664 446.709C213.167 446.028 213.848 445.499 214.633 445.181C215.977 444.704 217.311 445.567 216.872 447.609Z" fill="#C4B0B8"/>
</g>
</g>
</g>
<g style="mix-blend-mode:soft-light">
<g style="mix-blend-mode:soft-light">
<g style="mix-blend-mode:soft-light">
<path fill-rule="evenodd" clip-rule="evenodd" d="M616.407 404.228C614.543 404.07 611.316 403.379 610.282 405.553C609.9 406.584 609.576 407.636 609.309 408.703C608.96 409.606 608.511 410.469 607.973 411.274C607.111 412.617 606.641 414.173 606.615 415.768C606.684 416.817 607.757 416.68 608.606 416.398C609.553 416.183 610.422 415.711 611.118 415.035C611.909 414.078 612.795 413.206 613.763 412.429C614.163 412.142 614.705 412.035 615.051 411.773C615.557 411.319 616.004 410.804 616.381 410.24C617.024 409.37 617.373 408.319 617.378 407.239C617.383 406.157 617.043 405.103 616.407 404.228Z" fill="#C4B0FF"/>
</g>
</g>
<g style="mix-blend-mode:soft-light">
<g style="mix-blend-mode:soft-light">
<path fill-rule="evenodd" clip-rule="evenodd" d="M513.386 492.997C513.079 492.938 512.756 492.814 512.462 492.95C512.31 493.033 512.173 493.14 512.056 493.266C511.536 493.811 512.142 494.717 512.453 495.151C512.886 495.803 513.452 496.358 514.112 496.782C514.772 497.204 515.513 497.486 516.289 497.608C516.873 497.684 517.468 497.637 518.034 497.471C518.599 497.306 519.124 497.024 519.576 496.645C520.028 496.083 520.313 495.405 520.398 494.689C520.483 493.973 520.364 493.248 520.055 492.595C519.879 491.947 519.532 491.358 519.052 490.889C518.571 490.418 517.974 490.085 517.32 489.922C516.805 489.849 516.279 489.943 515.821 490.191C515.461 490.409 515.219 490.755 514.879 490.988C514.539 491.222 513.901 491.387 513.6 491.888C513.403 492.222 513.327 492.614 513.386 492.997Z" fill="#C4B0FF"/>
</g>
</g>
<g style="mix-blend-mode:soft-light">
<g style="mix-blend-mode:soft-light">
<path fill-rule="evenodd" clip-rule="evenodd" d="M518.413 500.265C518.505 500.138 518.628 500.038 518.771 499.975C518.914 499.911 519.07 499.887 519.226 499.904C519.388 499.874 519.554 499.904 519.695 499.988C519.836 500.072 519.94 500.206 519.989 500.361C520.028 500.507 520.037 500.659 520.017 500.808C519.997 500.958 519.947 501.101 519.871 501.232C519.795 501.361 519.694 501.476 519.574 501.567C519.454 501.658 519.316 501.724 519.17 501.762C518.972 501.786 518.77 501.761 518.584 501.689C518.397 501.617 518.232 501.499 518.102 501.348C517.977 501.171 517.915 500.957 517.93 500.741C517.943 500.525 518.03 500.32 518.176 500.16L518.413 500.265Z" fill="#C4B0FF"/>
</g>
</g>
<g style="mix-blend-mode:soft-light">
<g style="mix-blend-mode:soft-light">
<path fill-rule="evenodd" clip-rule="evenodd" d="M554.456 488.604C554.031 488.32 553.511 488.213 553.007 488.307C552.854 488.304 552.703 488.34 552.568 488.413C552.433 488.485 552.32 488.59 552.237 488.72C551.747 489.562 551.587 490.557 551.787 491.511C551.861 491.809 552.002 492.086 552.201 492.32C552.4 492.555 552.649 492.741 552.931 492.864C553.5 493.012 554.088 493.067 554.674 493.026C555.18 493.053 555.687 493.046 556.191 493.008C556.633 493.05 557.077 492.966 557.472 492.765C557.866 492.563 558.196 492.254 558.419 491.872C558.614 491.473 558.7 491.03 558.665 490.587C558.631 490.145 558.479 489.72 558.225 489.357C557.838 488.913 557.338 488.583 556.778 488.404C556.128 488.12 555.747 487.816 554.456 488.604Z" fill="#C4B0FF"/>
</g>
</g>
<g style="mix-blend-mode:soft-light">
<g style="mix-blend-mode:soft-light">
<path fill-rule="evenodd" clip-rule="evenodd" d="M549.682 488.345C549.912 488.727 550.053 489.156 550.093 489.6C549.899 489.715 549.949 489.99 549.705 490.083C549.462 490.175 549.09 489.693 548.955 489.484C548.776 489.188 548.719 488.835 548.799 488.499C548.873 488.407 548.968 487.826 549.161 488.048L549.682 488.345Z" fill="#C4B0FF"/>
</g>
</g>
<g style="mix-blend-mode:soft-light">
<g style="mix-blend-mode:soft-light">
<path fill-rule="evenodd" clip-rule="evenodd" d="M502.836 472.825C502.209 472.932 501.518 473.037 501.293 473.801C501.256 474.124 501.323 474.451 501.486 474.733C501.649 475.016 501.899 475.237 502.198 475.367C502.456 475.572 502.827 475.7 503.162 475.513C503.498 475.326 503.81 475.019 504.134 474.805C504.91 474.28 505.986 474.6 506.242 473.44C506.299 473.181 506.296 472.913 506.234 472.655C506.171 472.397 506.05 472.157 505.88 471.954C505.211 471.42 504.192 471.617 503.365 471.849L502.836 472.825Z" fill="#C4B0FF"/>
</g>
</g>
<g style="mix-blend-mode:soft-light">
<g style="mix-blend-mode:soft-light">
<path fill-rule="evenodd" clip-rule="evenodd" d="M348.896 464.217C349.455 463.94 350.353 463.326 351.337 463.657C351.926 463.864 352.426 464.263 352.757 464.791C353.751 465.888 354.595 467.152 352.938 467.682C351.912 467.869 350.853 467.706 349.932 467.219C349.162 466.79 348.08 465.571 348.603 465.045L348.896 464.217Z" fill="#C4B0FF"/>
</g>
</g>
<g style="mix-blend-mode:soft-light">
<g style="mix-blend-mode:soft-light">
<path fill-rule="evenodd" clip-rule="evenodd" d="M609.969 279.912C608.888 280.733 607.509 281.738 608.063 283.445C608.471 284.579 610.122 285.089 611.227 285.078C613.217 284.954 615.114 284.196 616.641 282.916C617.895 281.71 617.422 278.973 616.312 277.833C614.038 275.511 609.486 278.43 607.834 280.195L609.969 279.912Z" fill="#C4B0FF"/>
</g>
</g>
<g style="mix-blend-mode:soft-light">
<g style="mix-blend-mode:soft-light">
<path fill-rule="evenodd" clip-rule="evenodd" d="M422.671 501.992C420.961 502.55 419.527 503.736 418.66 505.31C418.096 506.224 417.208 507.352 418.076 508.501C420.13 511.203 426.608 508.576 428.557 507.555C430.144 506.798 431.516 505.658 432.55 504.239C433.079 503.432 433.701 501.519 433.053 500.495C432.519 499.881 431.834 499.414 431.067 499.14C430.299 498.867 429.474 498.795 428.67 498.932C425.187 499.318 423.543 501.662 420.822 502.909L422.671 501.992Z" fill="#C4B0FF"/>
</g>
</g>
<g style="mix-blend-mode:soft-light">
<g style="mix-blend-mode:soft-light">
<path fill-rule="evenodd" clip-rule="evenodd" d="M421.462 500.74C420.712 500.302 419.914 499.948 419.086 499.684C418.618 499.614 417.883 499.499 417.531 499.706C417.179 499.913 417.045 500.565 417.139 501.079C417.195 501.279 417.297 501.465 417.438 501.618C417.579 501.772 417.754 501.89 417.95 501.962C418.32 502.015 418.696 502.001 419.062 501.923C419.61 501.844 420.148 501.71 420.668 501.521C420.927 501.466 421.179 501.377 421.417 501.259C421.74 501.046 421.581 500.802 421.693 500.536L421.462 500.74Z" fill="#C4B0FF"/>
</g>
</g>
<g style="mix-blend-mode:soft-light">
<g style="mix-blend-mode:soft-light">
<path fill-rule="evenodd" clip-rule="evenodd" d="M409.379 509.789L410.036 510.736C409.713 510.95 409.551 511.342 409.007 511.262C408.521 511.123 408.081 510.859 407.731 510.496C407.416 510.109 407.372 509.721 407.688 509.433C408.003 509.145 408.674 509.278 409.207 509.518L409.379 509.789Z" fill="#C4B0FF"/>
</g>
</g>
<g style="mix-blend-mode:soft-light">
<g style="mix-blend-mode:soft-light">
<path fill-rule="evenodd" clip-rule="evenodd" d="M358.136 484.59C357.889 484.898 357.716 485.114 357.959 485.527C358.181 485.855 358.484 486.12 358.839 486.298C359.194 486.475 359.588 486.558 359.984 486.539C361.081 486.454 362.502 485.82 362.581 484.921C362.54 484.519 362.36 484.142 362.075 483.855C361.789 483.568 361.412 483.388 361.008 483.345C360.519 483.316 360.028 483.336 359.543 483.405C359.249 483.481 358.976 483.619 358.741 483.808C358.505 483.996 358.311 484.233 358.174 484.502L358.136 484.59Z" fill="#C4B0FF"/>
</g>
</g>
<g style="mix-blend-mode:soft-light">
<g style="mix-blend-mode:soft-light">
<path fill-rule="evenodd" clip-rule="evenodd" d="M371.728 373.949C371.198 373.979 370.969 373.948 370.584 374.281C370.354 374.44 370.157 374.643 370.006 374.879C369.855 375.114 369.753 375.377 369.704 375.651C369.739 376.983 370.235 378.261 371.11 379.268C371.386 379.659 371.752 379.979 372.175 380.203C372.599 380.428 373.07 380.55 373.55 380.56C374.11 380.615 374.676 380.549 375.209 380.366C375.742 380.184 376.23 379.892 376.64 379.507C377.09 379.172 377.421 378.704 377.586 378.168C377.751 377.634 377.741 377.061 377.557 376.531C377.284 375.427 376.778 374.391 376.076 373.495C375.79 373.168 375.43 372.915 375.025 372.756C374.621 372.598 374.185 372.538 373.752 372.582C372.892 372.602 371.587 372.841 371.728 373.949Z" fill="#C4B0FF"/>
</g>
</g>
<g style="mix-blend-mode:soft-light">
<g style="mix-blend-mode:soft-light">
<path fill-rule="evenodd" clip-rule="evenodd" d="M376.066 382.35C376.263 382.104 376.502 381.806 376.808 381.931C377.037 382.109 377.228 382.33 377.371 382.583C377.513 382.836 377.603 383.114 377.636 383.403C377.652 383.846 377.507 384.281 377.228 384.627C376.97 384.797 376.659 384.871 376.352 384.837C376.113 384.847 375.878 384.779 375.681 384.644C375.486 384.508 375.339 384.313 375.265 384.087C375.156 383.781 374.854 383.084 375.191 382.832L376.066 382.35Z" fill="#C4B0FF"/>
</g>
</g>
<g style="mix-blend-mode:soft-light">
<g style="mix-blend-mode:soft-light">
<path fill-rule="evenodd" clip-rule="evenodd" d="M267.971 252.861C268.14 248.699 269.77 244.728 272.577 241.644C273.76 240.315 275.616 237.686 277.435 239.459C279.883 241.836 277.946 247.03 277.04 249.675C275.67 253.636 274.268 257.572 271.234 260.557C267.083 264.639 268.336 250.911 268.416 249.611L267.971 252.861Z" fill="#C4B0FF"/>
</g>
</g>
<g style="mix-blend-mode:soft-light">
<g style="mix-blend-mode:soft-light">
<path fill-rule="evenodd" clip-rule="evenodd" d="M285.643 242.529C283.069 244.771 281.26 249.426 283.416 252.547C284.206 253.667 285.068 253.327 286.37 252.8C287.03 252.596 287.638 252.249 288.15 251.785C288.662 251.321 289.067 250.75 289.335 250.113C289.568 249.154 289.682 248.17 289.675 247.184C289.669 246.619 289.719 246.055 289.826 245.5C289.969 244.923 290.304 244.652 290.271 244.019C290.196 242.493 287.714 239.315 286.351 241.646L285.643 242.529Z" fill="#C4B0FF"/>
</g>
</g>
<g style="mix-blend-mode:soft-light">
<g style="mix-blend-mode:soft-light">
<path fill-rule="evenodd" clip-rule="evenodd" d="M165.646 451.384C167.601 450.222 169.875 449.709 172.14 449.915C174.748 450.129 177.297 450.797 179.673 451.888C181.896 452.956 183.739 454.674 184.955 456.816C185.953 459.13 186.393 461.739 187.182 464.122C187.892 466.29 188.957 468.034 189.225 470.373C189.434 472.505 189.186 474.656 188.501 476.687C187.496 479.793 185.221 483.976 182.258 485.586C179.561 487.055 178.229 486.042 176.05 484.234C173.005 481.717 172.017 476.782 171.875 472.96C171.949 471.075 171.84 469.188 171.55 467.324C171.029 465.089 170.382 462.886 169.708 460.695C168.898 458.734 168.202 456.726 167.625 454.684C167.454 453.739 166.743 450.878 165.646 451.384Z" fill="#C4B0FF"/>
</g>
</g>
<g style="mix-blend-mode:soft-light">
<g style="mix-blend-mode:soft-light">
<path fill-rule="evenodd" clip-rule="evenodd" d="M331.414 354.092C330.312 355.066 329.629 355.329 330.017 356.549C330.127 356.938 330.356 357.281 330.671 357.533C330.987 357.786 331.374 357.933 331.777 357.955C332.701 358.086 335.203 357.894 335.621 356.93C336.576 354.98 332.469 351.598 331.079 353.774L331.414 354.092Z" fill="#C4B0FF"/>
</g>
</g>
<g style="mix-blend-mode:soft-light">
<g style="mix-blend-mode:soft-light">
<path fill-rule="evenodd" clip-rule="evenodd" d="M366.769 469.366C368.57 465.75 375.319 463.775 380.898 464.103C388.853 464.56 397.187 469.936 402.257 475.233C406.518 479.666 408.41 485.306 406.632 489.482C406.156 490.601 405.215 491.416 404.698 492.503C404.313 493.342 404.177 493.89 402.678 493.654C398.954 493.056 394.184 490.711 390.923 488.882C387.204 486.953 383.666 484.692 380.355 482.125C377.647 479.86 375.334 477.356 372.66 475.05C371.341 474.005 370.12 472.843 369.011 471.579C368.461 470.938 366.665 469.874 366.769 469.366Z" fill="#C4B0FF"/>
</g>
</g>
<g style="mix-blend-mode:soft-light">
<g style="mix-blend-mode:soft-light">
<path fill-rule="evenodd" clip-rule="evenodd" d="M408.123 471.246C408.126 472.21 407.876 472.566 408.729 473.416C409.463 473.994 410.344 474.353 411.273 474.454C412.37 474.623 414.233 474.426 414.34 473.534C414.58 471.888 409.558 468.973 408.835 470.822L408.123 471.246Z" fill="#C4B0FF"/>
</g>
</g>
<g style="mix-blend-mode:soft-light">
<g style="mix-blend-mode:soft-light">
<path fill-rule="evenodd" clip-rule="evenodd" d="M526.379 467.994C527.199 467.258 528.161 466.695 529.206 466.342C529.538 466.373 529.861 466.47 530.155 466.627C530.449 466.784 530.709 466.998 530.92 467.256C531.367 467.661 531.713 468.163 531.931 468.723C532.15 469.284 532.235 469.887 532.178 470.486C532.288 471.267 532.226 472.064 531.996 472.818C530.111 476.622 525.521 470.662 526.409 468.018L526.379 467.994Z" fill="#C4B0FF"/>
</g>
</g>
</g>
<path style="mix-blend-mode:screen" d="M377.295 695.977C446.742 703.306 505.924 682.098 509.481 648.608C513.038 615.117 459.623 582.027 390.174 574.697C320.727 567.368 261.545 588.576 257.988 622.066C254.431 655.557 307.846 688.647 377.295 695.977Z" fill="url(#paint2_radial_35_8167)"/>
<defs>
<radialGradient id="paint0_radial_35_8167" cx="0" cy="0" r="1" gradientUnits="userSpaceOnUse" gradientTransform="translate(395.118 387.983) rotate(38.62) scale(275.751 275.713)">
<stop offset="0.81" stop-color="#008BC4"/>
<stop offset="0.979167" stop-opacity="0"/>
</radialGradient>
<radialGradient id="paint1_radial_35_8167" cx="0" cy="0" r="1" gradientUnits="userSpaceOnUse" gradientTransform="translate(404.819 288.636) rotate(38.62) scale(351.721 351.673)">
<stop stop-color="#7C83FF"/>
<stop offset="0.84" stop-color="#482088"/>
<stop offset="0.95" stop-color="#403B77"/>
<stop offset="1" stop-color="#4D79D1"/>
</radialGradient>
<radialGradient id="paint2_radial_35_8167" cx="0" cy="0" r="1" gradientUnits="userSpaceOnUse" gradientTransform="translate(383.024 641.408) rotate(6.02449) scale(126.432 60.5812)">
<stop stop-color="#2C6AFF"/>
<stop offset="1" stop-opacity="0"/>
</radialGradient>
</defs>
</svg>
