<svg width="47" height="47" viewBox="0 0 47 47" fill="none" xmlns="http://www.w3.org/2000/svg">
<path d="M47 23.5C47 36.4787 36.4787 47 23.5 47C10.5213 47 0 36.4787 0 23.5C0 10.5213 10.5213 0 23.5 0C36.4787 0 47 10.5213 47 23.5ZM0.443497 23.5C0.443497 36.2338 10.7662 46.5565 23.5 46.5565C36.2338 46.5565 46.5565 36.2338 46.5565 23.5C46.5565 10.7662 36.2338 0.443497 23.5 0.443497C10.7662 0.443497 0.443497 10.7662 0.443497 23.5Z" fill="#D9D9D9"/>
<g clip-path="url(#clip0_59_188)">
<path d="M37.0438 28.1365C37.0438 28.1365 39.9544 31.0111 40.6744 32.3413C40.6884 32.3605 40.6993 32.3817 40.7068 32.4043C41.0002 32.8957 41.0722 33.2809 40.9282 33.5653C40.6852 34.0351 39.8626 34.2709 39.5836 34.2907H34.4392C34.081 34.2907 33.3358 34.1971 32.4286 33.5707C31.7356 33.0865 31.0462 32.2891 30.3784 31.5097C29.3812 30.3523 28.519 29.3479 27.646 29.3479C27.5357 29.3476 27.4262 29.3659 27.322 29.4019C26.6614 29.6107 25.8226 30.5521 25.8226 33.0595C25.8226 33.8443 25.2034 34.2907 24.7696 34.2907H22.4134C21.6106 34.2907 17.431 34.0099 13.7248 30.1021C9.18336 25.3177 5.10456 15.7201 5.06496 15.6355C4.81116 15.0145 5.34396 14.6761 5.91996 14.6761H11.1148C11.8114 14.6761 12.0382 15.0973 12.1966 15.4753C12.3802 15.9091 13.0606 17.6443 14.1766 19.5937C15.9838 22.7653 17.0944 24.0559 17.9818 24.0559C18.1485 24.0564 18.3124 24.0129 18.457 23.9299C19.6162 23.2927 19.4002 19.1527 19.3462 18.2995C19.3462 18.1339 19.3444 16.4509 18.7504 15.6373C18.3256 15.0541 17.602 14.8273 17.1646 14.7445C17.2816 14.5753 17.53 14.3161 17.8486 14.1631C18.6424 13.7671 20.077 13.7095 21.5008 13.7095H22.291C23.8354 13.7311 24.235 13.8301 24.7966 13.9723C25.927 14.2423 25.9486 14.9749 25.8496 17.4697C25.8208 18.1825 25.7902 18.9853 25.7902 19.9303C25.7902 20.1319 25.7812 20.3569 25.7812 20.5855C25.747 21.8653 25.702 23.3071 26.6056 23.8993C26.7228 23.9723 26.8581 24.0109 26.9962 24.0109C27.3094 24.0109 28.2472 24.0109 30.7906 19.6459C31.9066 17.7181 32.7706 15.4447 32.83 15.2737C32.8804 15.1783 33.0316 14.9101 33.2152 14.8021C33.3458 14.7326 33.4921 14.6979 33.64 14.7013H39.751C40.417 14.7013 40.8688 14.8021 40.957 15.0541C41.1046 15.4627 40.9282 16.7101 38.1382 20.4829C37.6684 21.1111 37.2562 21.6547 36.8944 22.1299C34.3654 25.4491 34.3654 25.6165 37.0438 28.1365Z" fill="#F3F3F3"/>
</g>
<defs>
<clipPath id="clip0_59_188">
<rect width="36" height="36" fill="white" transform="translate(5 6)"/>
</clipPath>
</defs>
</svg>
